M48
; DRILL file {KiCad 6.0.11-3.fc36} date Mon 24 Jul 2023 20:28:04 BST
; FORMAT={-:-/ absolute / inch / decimal}
; #@! TF.CreationDate,2023-07-24T20:28:04+01:00
; #@! TF.GenerationSoftware,Kicad,Pcbnew,6.0.11-3.fc36
; #@! TF.FileFunction,Plated,1,2,PTH
FMAT,2
INCH
; #@! TA.AperFunction,Plated,PTH,ViaDrill
T1C0.0197
; #@! TA.AperFunction,Plated,PTH,ComponentDrill
T2C0.0315
; #@! TA.AperFunction,Plated,PTH,ComponentDrill
T3C0.0394
; #@! TA.AperFunction,Plated,PTH,ComponentDrill
T4C0.0400
; #@! TA.AperFunction,Plated,PTH,ComponentDrill
T5C0.1260
%
G90
G05
T1
X7.125Y-4.7
X7.125Y-5.15
X8.6142Y-5.3465
X8.85Y-4.425
X9.275Y-4.45
X9.525Y-4.55
X9.525Y-4.725
X9.525Y-5.224
X9.575Y-4.725
X9.575Y-4.975
X9.575Y-5.3
X9.575Y-5.675
X9.6264Y-5.35
X9.65Y-4.55
T2
X6.6266Y-5.425
X6.725Y-5.425
X6.9Y-5.05
X6.9Y-5.1484
X7.025Y-5.35
X7.025Y-5.4484
X7.25Y-4.7
X7.3484Y-4.7
X7.35Y-5.05
X7.35Y-5.15
X7.35Y-5.25
X7.35Y-5.35
X7.35Y-5.45
X7.35Y-5.55
X7.35Y-5.65
X7.35Y-5.75
X7.65Y-4.875
X7.65Y-5.05
X7.65Y-5.15
X7.65Y-5.25
X7.65Y-5.35
X7.65Y-5.45
X7.65Y-5.55
X7.65Y-5.65
X7.65Y-5.75
X7.7484Y-4.875
X8.275Y-4.65
X8.3734Y-4.65
X8.5Y-4.8534
X8.5Y-4.9519
X8.7766Y-4.65
X8.7999Y-5.126
X8.875Y-4.65
X8.8983Y-5.126
X9.1004Y-4.5496
X9.1004Y-4.6496
X9.1004Y-4.7496
X9.1004Y-4.8496
X9.1004Y-4.9496
X9.1004Y-5.0496
X9.1004Y-5.1496
X9.1004Y-5.2496
X9.4004Y-4.5496
X9.4004Y-4.6496
X9.4004Y-4.7496
X9.4004Y-4.8496
X9.4004Y-4.9496
X9.4004Y-5.0496
X9.4004Y-5.1496
X9.4004Y-5.2496
X9.45Y-4.35
X9.5484Y-4.35
T3
X6.7502Y-4.2722
X6.8502Y-4.2722
X6.9502Y-4.2722
X7.0502Y-4.2722
X7.1502Y-4.2722
X7.7638Y-4.35
X7.8183Y-4.2382
X7.8728Y-4.35
X7.9274Y-4.2382
X7.9819Y-4.35
X8.0364Y-4.2382
X8.0909Y-4.35
X8.1455Y-4.2382
X8.2Y-4.35
X8.8502Y-4.2722
X8.9502Y-4.2722
X9.0502Y-4.2722
X9.1502Y-4.2722
X9.2502Y-4.2722
X9.7278Y-5.15
X9.7278Y-5.25
X9.7278Y-5.35
X9.7278Y-5.45
X9.7278Y-5.55
X9.7278Y-5.65
X9.75Y-4.4
X9.75Y-4.5
X9.75Y-4.6
X9.75Y-4.7
X9.75Y-4.8
X9.75Y-4.9
T4
X6.13Y-5.969
X6.23Y-5.969
X6.33Y-5.969
X6.43Y-5.969
X6.53Y-5.969
X6.63Y-5.969
X6.73Y-5.969
X6.83Y-5.969
X6.93Y-5.969
X7.03Y-5.969
X7.13Y-5.969
X7.23Y-5.969
X7.33Y-5.969
X7.43Y-5.969
X7.53Y-5.969
X7.63Y-5.969
X7.73Y-5.969
X7.83Y-5.969
X7.93Y-5.969
X8.03Y-5.969
X8.13Y-5.969
X8.23Y-5.969
X8.33Y-5.969
X8.43Y-5.969
X8.53Y-5.969
X8.63Y-5.969
X8.73Y-5.969
X8.83Y-5.969
X8.93Y-5.969
X9.03Y-5.969
X9.13Y-5.969
X9.23Y-5.969
X9.33Y-5.969
X9.43Y-5.969
X9.53Y-5.969
X9.63Y-5.969
X9.73Y-5.969
X9.83Y-5.969
X9.93Y-5.969
T5
X7.4898Y-4.3382
X8.474Y-4.3382
T0
M30
