%TF.GenerationSoftware,KiCad,Pcbnew,6.0.9-1.fc35*%
%TF.CreationDate,2023-07-09T18:22:09+01:00*%
%TF.ProjectId,max232_conv,6d617832-3332-45f6-936f-6e762e6b6963,0.1a*%
%TF.SameCoordinates,Original*%
%TF.FileFunction,Drillmap*%
%TF.FilePolarity,Positive*%
%FSLAX45Y45*%
G04 Gerber Fmt 4.5, Leading zero omitted, Abs format (unit mm)*
G04 Created by KiCad (PCBNEW 6.0.9-1.fc35) date 2023-07-09 18:22:09*
%MOMM*%
%LPD*%
G01*
G04 APERTURE LIST*
%ADD10C,0.150000*%
%ADD11C,0.200000*%
%ADD12C,0.050000*%
%ADD13C,0.080000*%
%ADD14C,0.100000*%
%ADD15C,0.101600*%
%ADD16C,0.320000*%
G04 APERTURE END LIST*
D10*
X24781840Y-10350500D02*
X24821840Y-10352000D01*
X15389860Y-11851640D02*
X15389860Y-15336520D01*
X25300000Y-15336520D02*
X25340000Y-15336616D01*
X25339840Y-10861980D02*
X25340000Y-15330000D01*
X15389860Y-15336520D02*
X25300000Y-15336520D01*
X25339840Y-10870000D02*
G75*
G03*
X24821840Y-10352000I-518000J0D01*
G01*
X16891000Y-10350500D02*
X15389860Y-11851640D01*
X24781840Y-10350500D02*
X16891000Y-10350500D01*
D11*
D12*
X18072500Y-11913000D02*
X18122500Y-11963000D01*
X18122500Y-11913000D02*
X18072500Y-11963000D01*
X18072500Y-13056000D02*
X18122500Y-13106000D01*
X18122500Y-13056000D02*
X18072500Y-13106000D01*
X21855000Y-13555000D02*
X21905000Y-13605000D01*
X21905000Y-13555000D02*
X21855000Y-13605000D01*
X22454000Y-11214500D02*
X22504000Y-11264500D01*
X22504000Y-11214500D02*
X22454000Y-11264500D01*
X23533500Y-11278000D02*
X23583500Y-11328000D01*
X23583500Y-11278000D02*
X23533500Y-11328000D01*
X24168500Y-11532000D02*
X24218500Y-11582000D01*
X24218500Y-11532000D02*
X24168500Y-11582000D01*
X24168500Y-11976500D02*
X24218500Y-12026500D01*
X24218500Y-11976500D02*
X24168500Y-12026500D01*
X24168539Y-13244058D02*
X24218539Y-13294058D01*
X24218539Y-13244058D02*
X24168539Y-13294058D01*
X24295500Y-11976500D02*
X24345500Y-12026500D01*
X24345500Y-11976500D02*
X24295500Y-12026500D01*
X24295500Y-12611500D02*
X24345500Y-12661500D01*
X24345500Y-12611500D02*
X24295500Y-12661500D01*
X24295500Y-13437000D02*
X24345500Y-13487000D01*
X24345500Y-13437000D02*
X24295500Y-13487000D01*
X24295500Y-14389500D02*
X24345500Y-14439500D01*
X24345500Y-14389500D02*
X24295500Y-14439500D01*
X24426000Y-13564000D02*
X24476000Y-13614000D01*
X24476000Y-13564000D02*
X24426000Y-13614000D01*
X24486000Y-11532000D02*
X24536000Y-11582000D01*
X24536000Y-11532000D02*
X24486000Y-11582000D01*
D13*
X16871500Y-13779500D02*
G75*
G03*
X16871500Y-13779500I-40000J0D01*
G01*
X17121500Y-13779500D02*
G75*
G03*
X17121500Y-13779500I-40000J0D01*
G01*
X17566000Y-12827000D02*
G75*
G03*
X17566000Y-12827000I-40000J0D01*
G01*
X17566000Y-13077000D02*
G75*
G03*
X17566000Y-13077000I-40000J0D01*
G01*
X17883500Y-13589000D02*
G75*
G03*
X17883500Y-13589000I-40000J0D01*
G01*
X17883500Y-13839000D02*
G75*
G03*
X17883500Y-13839000I-40000J0D01*
G01*
X18455000Y-11938000D02*
G75*
G03*
X18455000Y-11938000I-40000J0D01*
G01*
X18705000Y-11938000D02*
G75*
G03*
X18705000Y-11938000I-40000J0D01*
G01*
X18709000Y-12827000D02*
G75*
G03*
X18709000Y-12827000I-40000J0D01*
G01*
X18709000Y-13081000D02*
G75*
G03*
X18709000Y-13081000I-40000J0D01*
G01*
X18709000Y-13335000D02*
G75*
G03*
X18709000Y-13335000I-40000J0D01*
G01*
X18709000Y-13589000D02*
G75*
G03*
X18709000Y-13589000I-40000J0D01*
G01*
X18709000Y-13843000D02*
G75*
G03*
X18709000Y-13843000I-40000J0D01*
G01*
X18709000Y-14097000D02*
G75*
G03*
X18709000Y-14097000I-40000J0D01*
G01*
X18709000Y-14351000D02*
G75*
G03*
X18709000Y-14351000I-40000J0D01*
G01*
X18709000Y-14605000D02*
G75*
G03*
X18709000Y-14605000I-40000J0D01*
G01*
X19471000Y-12382500D02*
G75*
G03*
X19471000Y-12382500I-40000J0D01*
G01*
X19471000Y-12827000D02*
G75*
G03*
X19471000Y-12827000I-40000J0D01*
G01*
X19471000Y-13081000D02*
G75*
G03*
X19471000Y-13081000I-40000J0D01*
G01*
X19471000Y-13335000D02*
G75*
G03*
X19471000Y-13335000I-40000J0D01*
G01*
X19471000Y-13589000D02*
G75*
G03*
X19471000Y-13589000I-40000J0D01*
G01*
X19471000Y-13843000D02*
G75*
G03*
X19471000Y-13843000I-40000J0D01*
G01*
X19471000Y-14097000D02*
G75*
G03*
X19471000Y-14097000I-40000J0D01*
G01*
X19471000Y-14351000D02*
G75*
G03*
X19471000Y-14351000I-40000J0D01*
G01*
X19471000Y-14605000D02*
G75*
G03*
X19471000Y-14605000I-40000J0D01*
G01*
X19721000Y-12382500D02*
G75*
G03*
X19721000Y-12382500I-40000J0D01*
G01*
X21058500Y-11811000D02*
G75*
G03*
X21058500Y-11811000I-40000J0D01*
G01*
X21308500Y-11811000D02*
G75*
G03*
X21308500Y-11811000I-40000J0D01*
G01*
X21630000Y-12327762D02*
G75*
G03*
X21630000Y-12327762I-40000J0D01*
G01*
X21630000Y-12577762D02*
G75*
G03*
X21630000Y-12577762I-40000J0D01*
G01*
X22332500Y-11811000D02*
G75*
G03*
X22332500Y-11811000I-40000J0D01*
G01*
X22396000Y-13017500D02*
G75*
G03*
X22396000Y-13017500I-40000J0D01*
G01*
X22582500Y-11811000D02*
G75*
G03*
X22582500Y-11811000I-40000J0D01*
G01*
X22646000Y-13017500D02*
G75*
G03*
X22646000Y-13017500I-40000J0D01*
G01*
X23155000Y-11556000D02*
G75*
G03*
X23155000Y-11556000I-40000J0D01*
G01*
X23155000Y-11810000D02*
G75*
G03*
X23155000Y-11810000I-40000J0D01*
G01*
X23155000Y-12064000D02*
G75*
G03*
X23155000Y-12064000I-40000J0D01*
G01*
X23155000Y-12318000D02*
G75*
G03*
X23155000Y-12318000I-40000J0D01*
G01*
X23155000Y-12572000D02*
G75*
G03*
X23155000Y-12572000I-40000J0D01*
G01*
X23155000Y-12826000D02*
G75*
G03*
X23155000Y-12826000I-40000J0D01*
G01*
X23155000Y-13080000D02*
G75*
G03*
X23155000Y-13080000I-40000J0D01*
G01*
X23155000Y-13334000D02*
G75*
G03*
X23155000Y-13334000I-40000J0D01*
G01*
X23917000Y-11556000D02*
G75*
G03*
X23917000Y-11556000I-40000J0D01*
G01*
X23917000Y-11810000D02*
G75*
G03*
X23917000Y-11810000I-40000J0D01*
G01*
X23917000Y-12064000D02*
G75*
G03*
X23917000Y-12064000I-40000J0D01*
G01*
X23917000Y-12318000D02*
G75*
G03*
X23917000Y-12318000I-40000J0D01*
G01*
X23917000Y-12572000D02*
G75*
G03*
X23917000Y-12572000I-40000J0D01*
G01*
X23917000Y-12826000D02*
G75*
G03*
X23917000Y-12826000I-40000J0D01*
G01*
X23917000Y-13080000D02*
G75*
G03*
X23917000Y-13080000I-40000J0D01*
G01*
X23917000Y-13334000D02*
G75*
G03*
X23917000Y-13334000I-40000J0D01*
G01*
X24043000Y-11049000D02*
G75*
G03*
X24043000Y-11049000I-40000J0D01*
G01*
X24293000Y-11049000D02*
G75*
G03*
X24293000Y-11049000I-40000J0D01*
G01*
D14*
X17145500Y-10801500D02*
X17145500Y-10901500D01*
X17095500Y-10851500D02*
X17195500Y-10851500D01*
X17399500Y-10801500D02*
X17399500Y-10901500D01*
X17349500Y-10851500D02*
X17449500Y-10851500D01*
X17653500Y-10801500D02*
X17653500Y-10901500D01*
X17603500Y-10851500D02*
X17703500Y-10851500D01*
X17907500Y-10801500D02*
X17907500Y-10901500D01*
X17857500Y-10851500D02*
X17957500Y-10851500D01*
X18161500Y-10801500D02*
X18161500Y-10901500D01*
X18111500Y-10851500D02*
X18211500Y-10851500D01*
X19720000Y-10999000D02*
X19720000Y-11099000D01*
X19670000Y-11049000D02*
X19770000Y-11049000D01*
X19858500Y-10715000D02*
X19858500Y-10815000D01*
X19808500Y-10765000D02*
X19908500Y-10765000D01*
X19997000Y-10999000D02*
X19997000Y-11099000D01*
X19947000Y-11049000D02*
X20047000Y-11049000D01*
X20135500Y-10715000D02*
X20135500Y-10815000D01*
X20085500Y-10765000D02*
X20185500Y-10765000D01*
X20274000Y-10999000D02*
X20274000Y-11099000D01*
X20224000Y-11049000D02*
X20324000Y-11049000D01*
X20412500Y-10715000D02*
X20412500Y-10815000D01*
X20362500Y-10765000D02*
X20462500Y-10765000D01*
X20551000Y-10999000D02*
X20551000Y-11099000D01*
X20501000Y-11049000D02*
X20601000Y-11049000D01*
X20689500Y-10715000D02*
X20689500Y-10815000D01*
X20639500Y-10765000D02*
X20739500Y-10765000D01*
X20828000Y-10999000D02*
X20828000Y-11099000D01*
X20778000Y-11049000D02*
X20878000Y-11049000D01*
X22479500Y-10801500D02*
X22479500Y-10901500D01*
X22429500Y-10851500D02*
X22529500Y-10851500D01*
X22733500Y-10801500D02*
X22733500Y-10901500D01*
X22683500Y-10851500D02*
X22783500Y-10851500D01*
X22987500Y-10801500D02*
X22987500Y-10901500D01*
X22937500Y-10851500D02*
X23037500Y-10851500D01*
X23241500Y-10801500D02*
X23241500Y-10901500D01*
X23191500Y-10851500D02*
X23291500Y-10851500D01*
X23495500Y-10801500D02*
X23495500Y-10901500D01*
X23445500Y-10851500D02*
X23545500Y-10851500D01*
X24708500Y-13031000D02*
X24708500Y-13131000D01*
X24658500Y-13081000D02*
X24758500Y-13081000D01*
X24708500Y-13285000D02*
X24708500Y-13385000D01*
X24658500Y-13335000D02*
X24758500Y-13335000D01*
X24708500Y-13539000D02*
X24708500Y-13639000D01*
X24658500Y-13589000D02*
X24758500Y-13589000D01*
X24708500Y-13793000D02*
X24708500Y-13893000D01*
X24658500Y-13843000D02*
X24758500Y-13843000D01*
X24708500Y-14047000D02*
X24708500Y-14147000D01*
X24658500Y-14097000D02*
X24758500Y-14097000D01*
X24708500Y-14301000D02*
X24708500Y-14401000D01*
X24658500Y-14351000D02*
X24758500Y-14351000D01*
X24765000Y-11126000D02*
X24765000Y-11226000D01*
X24715000Y-11176000D02*
X24815000Y-11176000D01*
X24765000Y-11380000D02*
X24765000Y-11480000D01*
X24715000Y-11430000D02*
X24815000Y-11430000D01*
X24765000Y-11634000D02*
X24765000Y-11734000D01*
X24715000Y-11684000D02*
X24815000Y-11684000D01*
X24765000Y-11888000D02*
X24765000Y-11988000D01*
X24715000Y-11938000D02*
X24815000Y-11938000D01*
X24765000Y-12142000D02*
X24765000Y-12242000D01*
X24715000Y-12192000D02*
X24815000Y-12192000D01*
X24765000Y-12396000D02*
X24765000Y-12496000D01*
X24715000Y-12446000D02*
X24815000Y-12446000D01*
D15*
X15606121Y-15197181D02*
X15606121Y-15125339D01*
X15534279Y-15125339D01*
X15534279Y-15197181D01*
X15606121Y-15197181D01*
X15860121Y-15197181D02*
X15860121Y-15125339D01*
X15788279Y-15125339D01*
X15788279Y-15197181D01*
X15860121Y-15197181D01*
X16114121Y-15197181D02*
X16114121Y-15125339D01*
X16042279Y-15125339D01*
X16042279Y-15197181D01*
X16114121Y-15197181D01*
X16368121Y-15197181D02*
X16368121Y-15125339D01*
X16296279Y-15125339D01*
X16296279Y-15197181D01*
X16368121Y-15197181D01*
X16622121Y-15197181D02*
X16622121Y-15125339D01*
X16550279Y-15125339D01*
X16550279Y-15197181D01*
X16622121Y-15197181D01*
X16876121Y-15197181D02*
X16876121Y-15125339D01*
X16804279Y-15125339D01*
X16804279Y-15197181D01*
X16876121Y-15197181D01*
X17130121Y-15197181D02*
X17130121Y-15125339D01*
X17058279Y-15125339D01*
X17058279Y-15197181D01*
X17130121Y-15197181D01*
X17384121Y-15197181D02*
X17384121Y-15125339D01*
X17312279Y-15125339D01*
X17312279Y-15197181D01*
X17384121Y-15197181D01*
X17638121Y-15197181D02*
X17638121Y-15125339D01*
X17566279Y-15125339D01*
X17566279Y-15197181D01*
X17638121Y-15197181D01*
X17892121Y-15197181D02*
X17892121Y-15125339D01*
X17820279Y-15125339D01*
X17820279Y-15197181D01*
X17892121Y-15197181D01*
X18146121Y-15197181D02*
X18146121Y-15125339D01*
X18074279Y-15125339D01*
X18074279Y-15197181D01*
X18146121Y-15197181D01*
X18400121Y-15197181D02*
X18400121Y-15125339D01*
X18328279Y-15125339D01*
X18328279Y-15197181D01*
X18400121Y-15197181D01*
X18654121Y-15197181D02*
X18654121Y-15125339D01*
X18582279Y-15125339D01*
X18582279Y-15197181D01*
X18654121Y-15197181D01*
X18908121Y-15197181D02*
X18908121Y-15125339D01*
X18836279Y-15125339D01*
X18836279Y-15197181D01*
X18908121Y-15197181D01*
X19162121Y-15197181D02*
X19162121Y-15125339D01*
X19090279Y-15125339D01*
X19090279Y-15197181D01*
X19162121Y-15197181D01*
X19416121Y-15197181D02*
X19416121Y-15125339D01*
X19344279Y-15125339D01*
X19344279Y-15197181D01*
X19416121Y-15197181D01*
X19670121Y-15197181D02*
X19670121Y-15125339D01*
X19598279Y-15125339D01*
X19598279Y-15197181D01*
X19670121Y-15197181D01*
X19924121Y-15197181D02*
X19924121Y-15125339D01*
X19852279Y-15125339D01*
X19852279Y-15197181D01*
X19924121Y-15197181D01*
X20178121Y-15197181D02*
X20178121Y-15125339D01*
X20106279Y-15125339D01*
X20106279Y-15197181D01*
X20178121Y-15197181D01*
X20432121Y-15197181D02*
X20432121Y-15125339D01*
X20360279Y-15125339D01*
X20360279Y-15197181D01*
X20432121Y-15197181D01*
X20686121Y-15197181D02*
X20686121Y-15125339D01*
X20614279Y-15125339D01*
X20614279Y-15197181D01*
X20686121Y-15197181D01*
X20940121Y-15197181D02*
X20940121Y-15125339D01*
X20868279Y-15125339D01*
X20868279Y-15197181D01*
X20940121Y-15197181D01*
X21194121Y-15197181D02*
X21194121Y-15125339D01*
X21122279Y-15125339D01*
X21122279Y-15197181D01*
X21194121Y-15197181D01*
X21448121Y-15197181D02*
X21448121Y-15125339D01*
X21376279Y-15125339D01*
X21376279Y-15197181D01*
X21448121Y-15197181D01*
X21702121Y-15197181D02*
X21702121Y-15125339D01*
X21630279Y-15125339D01*
X21630279Y-15197181D01*
X21702121Y-15197181D01*
X21956121Y-15197181D02*
X21956121Y-15125339D01*
X21884279Y-15125339D01*
X21884279Y-15197181D01*
X21956121Y-15197181D01*
X22210121Y-15197181D02*
X22210121Y-15125339D01*
X22138279Y-15125339D01*
X22138279Y-15197181D01*
X22210121Y-15197181D01*
X22464121Y-15197181D02*
X22464121Y-15125339D01*
X22392279Y-15125339D01*
X22392279Y-15197181D01*
X22464121Y-15197181D01*
X22718121Y-15197181D02*
X22718121Y-15125339D01*
X22646279Y-15125339D01*
X22646279Y-15197181D01*
X22718121Y-15197181D01*
X22972121Y-15197181D02*
X22972121Y-15125339D01*
X22900279Y-15125339D01*
X22900279Y-15197181D01*
X22972121Y-15197181D01*
X23226121Y-15197181D02*
X23226121Y-15125339D01*
X23154279Y-15125339D01*
X23154279Y-15197181D01*
X23226121Y-15197181D01*
X23480121Y-15197181D02*
X23480121Y-15125339D01*
X23408279Y-15125339D01*
X23408279Y-15197181D01*
X23480121Y-15197181D01*
X23734121Y-15197181D02*
X23734121Y-15125339D01*
X23662279Y-15125339D01*
X23662279Y-15197181D01*
X23734121Y-15197181D01*
X23988121Y-15197181D02*
X23988121Y-15125339D01*
X23916279Y-15125339D01*
X23916279Y-15197181D01*
X23988121Y-15197181D01*
X24242121Y-15197181D02*
X24242121Y-15125339D01*
X24170279Y-15125339D01*
X24170279Y-15197181D01*
X24242121Y-15197181D01*
X24496121Y-15197181D02*
X24496121Y-15125339D01*
X24424279Y-15125339D01*
X24424279Y-15197181D01*
X24496121Y-15197181D01*
X24750121Y-15197181D02*
X24750121Y-15125339D01*
X24678279Y-15125339D01*
X24678279Y-15197181D01*
X24750121Y-15197181D01*
X25004121Y-15197181D02*
X25004121Y-15125339D01*
X24932279Y-15125339D01*
X24932279Y-15197181D01*
X25004121Y-15197181D01*
X25258121Y-15197181D02*
X25258121Y-15125339D01*
X25186279Y-15125339D01*
X25186279Y-15197181D01*
X25258121Y-15197181D01*
D16*
X19024000Y-11179000D02*
X19184000Y-11019000D01*
X19024000Y-10859000D01*
X18864000Y-11019000D01*
X19024000Y-11179000D01*
X21524000Y-11179000D02*
X21684000Y-11019000D01*
X21524000Y-10859000D01*
X21364000Y-11019000D01*
X21524000Y-11179000D01*
D11*
X15639979Y-15654592D02*
X15639979Y-15454592D01*
X15687598Y-15454592D01*
X15716169Y-15464116D01*
X15735217Y-15483164D01*
X15744741Y-15502211D01*
X15754265Y-15540307D01*
X15754265Y-15568878D01*
X15744741Y-15606973D01*
X15735217Y-15626021D01*
X15716169Y-15645068D01*
X15687598Y-15654592D01*
X15639979Y-15654592D01*
X15839979Y-15654592D02*
X15839979Y-15521259D01*
X15839979Y-15559354D02*
X15849503Y-15540307D01*
X15859027Y-15530783D01*
X15878074Y-15521259D01*
X15897122Y-15521259D01*
X15963788Y-15654592D02*
X15963788Y-15521259D01*
X15963788Y-15454592D02*
X15954265Y-15464116D01*
X15963788Y-15473640D01*
X15973312Y-15464116D01*
X15963788Y-15454592D01*
X15963788Y-15473640D01*
X16087598Y-15654592D02*
X16068550Y-15645068D01*
X16059027Y-15626021D01*
X16059027Y-15454592D01*
X16192360Y-15654592D02*
X16173312Y-15645068D01*
X16163788Y-15626021D01*
X16163788Y-15454592D01*
X16420931Y-15654592D02*
X16420931Y-15454592D01*
X16487598Y-15597449D01*
X16554265Y-15454592D01*
X16554265Y-15654592D01*
X16735217Y-15654592D02*
X16735217Y-15549830D01*
X16725693Y-15530783D01*
X16706646Y-15521259D01*
X16668550Y-15521259D01*
X16649503Y-15530783D01*
X16735217Y-15645068D02*
X16716169Y-15654592D01*
X16668550Y-15654592D01*
X16649503Y-15645068D01*
X16639979Y-15626021D01*
X16639979Y-15606973D01*
X16649503Y-15587926D01*
X16668550Y-15578402D01*
X16716169Y-15578402D01*
X16735217Y-15568878D01*
X16830455Y-15521259D02*
X16830455Y-15721259D01*
X16830455Y-15530783D02*
X16849503Y-15521259D01*
X16887598Y-15521259D01*
X16906646Y-15530783D01*
X16916170Y-15540307D01*
X16925693Y-15559354D01*
X16925693Y-15616497D01*
X16916170Y-15635545D01*
X16906646Y-15645068D01*
X16887598Y-15654592D01*
X16849503Y-15654592D01*
X16830455Y-15645068D01*
X17011408Y-15635545D02*
X17020931Y-15645068D01*
X17011408Y-15654592D01*
X17001884Y-15645068D01*
X17011408Y-15635545D01*
X17011408Y-15654592D01*
X17011408Y-15530783D02*
X17020931Y-15540307D01*
X17011408Y-15549830D01*
X17001884Y-15540307D01*
X17011408Y-15530783D01*
X17011408Y-15549830D01*
D12*
X15332360Y-15959116D02*
X15382360Y-16009116D01*
X15382360Y-15959116D02*
X15332360Y-16009116D01*
D11*
X15678074Y-15874592D02*
X15697122Y-15874592D01*
X15716169Y-15884116D01*
X15725693Y-15893640D01*
X15735217Y-15912688D01*
X15744741Y-15950783D01*
X15744741Y-15998402D01*
X15735217Y-16036497D01*
X15725693Y-16055545D01*
X15716169Y-16065068D01*
X15697122Y-16074592D01*
X15678074Y-16074592D01*
X15659027Y-16065068D01*
X15649503Y-16055545D01*
X15639979Y-16036497D01*
X15630455Y-15998402D01*
X15630455Y-15950783D01*
X15639979Y-15912688D01*
X15649503Y-15893640D01*
X15659027Y-15884116D01*
X15678074Y-15874592D01*
X15830455Y-16055545D02*
X15839979Y-16065068D01*
X15830455Y-16074592D01*
X15820931Y-16065068D01*
X15830455Y-16055545D01*
X15830455Y-16074592D01*
X16020931Y-15874592D02*
X15925693Y-15874592D01*
X15916169Y-15969830D01*
X15925693Y-15960307D01*
X15944741Y-15950783D01*
X15992360Y-15950783D01*
X16011408Y-15960307D01*
X16020931Y-15969830D01*
X16030455Y-15988878D01*
X16030455Y-16036497D01*
X16020931Y-16055545D01*
X16011408Y-16065068D01*
X15992360Y-16074592D01*
X15944741Y-16074592D01*
X15925693Y-16065068D01*
X15916169Y-16055545D01*
X16154265Y-15874592D02*
X16173312Y-15874592D01*
X16192360Y-15884116D01*
X16201884Y-15893640D01*
X16211408Y-15912688D01*
X16220931Y-15950783D01*
X16220931Y-15998402D01*
X16211408Y-16036497D01*
X16201884Y-16055545D01*
X16192360Y-16065068D01*
X16173312Y-16074592D01*
X16154265Y-16074592D01*
X16135217Y-16065068D01*
X16125693Y-16055545D01*
X16116169Y-16036497D01*
X16106646Y-15998402D01*
X16106646Y-15950783D01*
X16116169Y-15912688D01*
X16125693Y-15893640D01*
X16135217Y-15884116D01*
X16154265Y-15874592D01*
X16344741Y-15874592D02*
X16363788Y-15874592D01*
X16382836Y-15884116D01*
X16392360Y-15893640D01*
X16401884Y-15912688D01*
X16411408Y-15950783D01*
X16411408Y-15998402D01*
X16401884Y-16036497D01*
X16392360Y-16055545D01*
X16382836Y-16065068D01*
X16363788Y-16074592D01*
X16344741Y-16074592D01*
X16325693Y-16065068D01*
X16316169Y-16055545D01*
X16306646Y-16036497D01*
X16297122Y-15998402D01*
X16297122Y-15950783D01*
X16306646Y-15912688D01*
X16316169Y-15893640D01*
X16325693Y-15884116D01*
X16344741Y-15874592D01*
X16497122Y-16074592D02*
X16497122Y-15941259D01*
X16497122Y-15960307D02*
X16506646Y-15950783D01*
X16525693Y-15941259D01*
X16554265Y-15941259D01*
X16573312Y-15950783D01*
X16582836Y-15969830D01*
X16582836Y-16074592D01*
X16582836Y-15969830D02*
X16592360Y-15950783D01*
X16611408Y-15941259D01*
X16639979Y-15941259D01*
X16659027Y-15950783D01*
X16668550Y-15969830D01*
X16668550Y-16074592D01*
X16763788Y-16074592D02*
X16763788Y-15941259D01*
X16763788Y-15960307D02*
X16773312Y-15950783D01*
X16792360Y-15941259D01*
X16820931Y-15941259D01*
X16839979Y-15950783D01*
X16849503Y-15969830D01*
X16849503Y-16074592D01*
X16849503Y-15969830D02*
X16859027Y-15950783D01*
X16878074Y-15941259D01*
X16906646Y-15941259D01*
X16925693Y-15950783D01*
X16935217Y-15969830D01*
X16935217Y-16074592D01*
X17325693Y-15865068D02*
X17154265Y-16122211D01*
X17582836Y-15874592D02*
X17601884Y-15874592D01*
X17620931Y-15884116D01*
X17630455Y-15893640D01*
X17639979Y-15912688D01*
X17649503Y-15950783D01*
X17649503Y-15998402D01*
X17639979Y-16036497D01*
X17630455Y-16055545D01*
X17620931Y-16065068D01*
X17601884Y-16074592D01*
X17582836Y-16074592D01*
X17563789Y-16065068D01*
X17554265Y-16055545D01*
X17544741Y-16036497D01*
X17535217Y-15998402D01*
X17535217Y-15950783D01*
X17544741Y-15912688D01*
X17554265Y-15893640D01*
X17563789Y-15884116D01*
X17582836Y-15874592D01*
X17735217Y-16055545D02*
X17744741Y-16065068D01*
X17735217Y-16074592D01*
X17725693Y-16065068D01*
X17735217Y-16055545D01*
X17735217Y-16074592D01*
X17868550Y-15874592D02*
X17887598Y-15874592D01*
X17906646Y-15884116D01*
X17916170Y-15893640D01*
X17925693Y-15912688D01*
X17935217Y-15950783D01*
X17935217Y-15998402D01*
X17925693Y-16036497D01*
X17916170Y-16055545D01*
X17906646Y-16065068D01*
X17887598Y-16074592D01*
X17868550Y-16074592D01*
X17849503Y-16065068D01*
X17839979Y-16055545D01*
X17830455Y-16036497D01*
X17820931Y-15998402D01*
X17820931Y-15950783D01*
X17830455Y-15912688D01*
X17839979Y-15893640D01*
X17849503Y-15884116D01*
X17868550Y-15874592D01*
X18125693Y-16074592D02*
X18011408Y-16074592D01*
X18068550Y-16074592D02*
X18068550Y-15874592D01*
X18049503Y-15903164D01*
X18030455Y-15922211D01*
X18011408Y-15931735D01*
X18220931Y-16074592D02*
X18259027Y-16074592D01*
X18278074Y-16065068D01*
X18287598Y-16055545D01*
X18306646Y-16026973D01*
X18316170Y-15988878D01*
X18316170Y-15912688D01*
X18306646Y-15893640D01*
X18297122Y-15884116D01*
X18278074Y-15874592D01*
X18239979Y-15874592D01*
X18220931Y-15884116D01*
X18211408Y-15893640D01*
X18201884Y-15912688D01*
X18201884Y-15960307D01*
X18211408Y-15979354D01*
X18220931Y-15988878D01*
X18239979Y-15998402D01*
X18278074Y-15998402D01*
X18297122Y-15988878D01*
X18306646Y-15979354D01*
X18316170Y-15960307D01*
X18382836Y-15874592D02*
X18516170Y-15874592D01*
X18430455Y-16074592D01*
X18582836Y-15874592D02*
X18582836Y-15912688D01*
X18659027Y-15874592D02*
X18659027Y-15912688D01*
X18954265Y-16150783D02*
X18944741Y-16141259D01*
X18925693Y-16112688D01*
X18916170Y-16093640D01*
X18906646Y-16065068D01*
X18897122Y-16017449D01*
X18897122Y-15979354D01*
X18906646Y-15931735D01*
X18916170Y-15903164D01*
X18925693Y-15884116D01*
X18944741Y-15855545D01*
X18954265Y-15846021D01*
X19135217Y-16074592D02*
X19020931Y-16074592D01*
X19078074Y-16074592D02*
X19078074Y-15874592D01*
X19059027Y-15903164D01*
X19039979Y-15922211D01*
X19020931Y-15931735D01*
X19306646Y-15941259D02*
X19306646Y-16074592D01*
X19259027Y-15865068D02*
X19211408Y-16007926D01*
X19335217Y-16007926D01*
X19563789Y-16074592D02*
X19563789Y-15874592D01*
X19649503Y-16074592D02*
X19649503Y-15969830D01*
X19639979Y-15950783D01*
X19620931Y-15941259D01*
X19592360Y-15941259D01*
X19573312Y-15950783D01*
X19563789Y-15960307D01*
X19773312Y-16074592D02*
X19754265Y-16065068D01*
X19744741Y-16055545D01*
X19735217Y-16036497D01*
X19735217Y-15979354D01*
X19744741Y-15960307D01*
X19754265Y-15950783D01*
X19773312Y-15941259D01*
X19801884Y-15941259D01*
X19820931Y-15950783D01*
X19830455Y-15960307D01*
X19839979Y-15979354D01*
X19839979Y-16036497D01*
X19830455Y-16055545D01*
X19820931Y-16065068D01*
X19801884Y-16074592D01*
X19773312Y-16074592D01*
X19954265Y-16074592D02*
X19935217Y-16065068D01*
X19925693Y-16046021D01*
X19925693Y-15874592D01*
X20106646Y-16065068D02*
X20087598Y-16074592D01*
X20049503Y-16074592D01*
X20030455Y-16065068D01*
X20020931Y-16046021D01*
X20020931Y-15969830D01*
X20030455Y-15950783D01*
X20049503Y-15941259D01*
X20087598Y-15941259D01*
X20106646Y-15950783D01*
X20116170Y-15969830D01*
X20116170Y-15988878D01*
X20020931Y-16007926D01*
X20192360Y-16065068D02*
X20211408Y-16074592D01*
X20249503Y-16074592D01*
X20268550Y-16065068D01*
X20278074Y-16046021D01*
X20278074Y-16036497D01*
X20268550Y-16017449D01*
X20249503Y-16007926D01*
X20220931Y-16007926D01*
X20201884Y-15998402D01*
X20192360Y-15979354D01*
X20192360Y-15969830D01*
X20201884Y-15950783D01*
X20220931Y-15941259D01*
X20249503Y-15941259D01*
X20268550Y-15950783D01*
X20344741Y-16150783D02*
X20354265Y-16141259D01*
X20373312Y-16112688D01*
X20382836Y-16093640D01*
X20392360Y-16065068D01*
X20401884Y-16017449D01*
X20401884Y-15979354D01*
X20392360Y-15931735D01*
X20382836Y-15903164D01*
X20373312Y-15884116D01*
X20354265Y-15855545D01*
X20344741Y-15846021D01*
D13*
X15382360Y-16248116D02*
G75*
G03*
X15382360Y-16248116I-40000J0D01*
G01*
D11*
X15678074Y-16138592D02*
X15697122Y-16138592D01*
X15716169Y-16148116D01*
X15725693Y-16157640D01*
X15735217Y-16176688D01*
X15744741Y-16214783D01*
X15744741Y-16262402D01*
X15735217Y-16300497D01*
X15725693Y-16319545D01*
X15716169Y-16329068D01*
X15697122Y-16338592D01*
X15678074Y-16338592D01*
X15659027Y-16329068D01*
X15649503Y-16319545D01*
X15639979Y-16300497D01*
X15630455Y-16262402D01*
X15630455Y-16214783D01*
X15639979Y-16176688D01*
X15649503Y-16157640D01*
X15659027Y-16148116D01*
X15678074Y-16138592D01*
X15830455Y-16319545D02*
X15839979Y-16329068D01*
X15830455Y-16338592D01*
X15820931Y-16329068D01*
X15830455Y-16319545D01*
X15830455Y-16338592D01*
X15954265Y-16224307D02*
X15935217Y-16214783D01*
X15925693Y-16205259D01*
X15916169Y-16186211D01*
X15916169Y-16176688D01*
X15925693Y-16157640D01*
X15935217Y-16148116D01*
X15954265Y-16138592D01*
X15992360Y-16138592D01*
X16011408Y-16148116D01*
X16020931Y-16157640D01*
X16030455Y-16176688D01*
X16030455Y-16186211D01*
X16020931Y-16205259D01*
X16011408Y-16214783D01*
X15992360Y-16224307D01*
X15954265Y-16224307D01*
X15935217Y-16233830D01*
X15925693Y-16243354D01*
X15916169Y-16262402D01*
X15916169Y-16300497D01*
X15925693Y-16319545D01*
X15935217Y-16329068D01*
X15954265Y-16338592D01*
X15992360Y-16338592D01*
X16011408Y-16329068D01*
X16020931Y-16319545D01*
X16030455Y-16300497D01*
X16030455Y-16262402D01*
X16020931Y-16243354D01*
X16011408Y-16233830D01*
X15992360Y-16224307D01*
X16154265Y-16138592D02*
X16173312Y-16138592D01*
X16192360Y-16148116D01*
X16201884Y-16157640D01*
X16211408Y-16176688D01*
X16220931Y-16214783D01*
X16220931Y-16262402D01*
X16211408Y-16300497D01*
X16201884Y-16319545D01*
X16192360Y-16329068D01*
X16173312Y-16338592D01*
X16154265Y-16338592D01*
X16135217Y-16329068D01*
X16125693Y-16319545D01*
X16116169Y-16300497D01*
X16106646Y-16262402D01*
X16106646Y-16214783D01*
X16116169Y-16176688D01*
X16125693Y-16157640D01*
X16135217Y-16148116D01*
X16154265Y-16138592D01*
X16344741Y-16138592D02*
X16363788Y-16138592D01*
X16382836Y-16148116D01*
X16392360Y-16157640D01*
X16401884Y-16176688D01*
X16411408Y-16214783D01*
X16411408Y-16262402D01*
X16401884Y-16300497D01*
X16392360Y-16319545D01*
X16382836Y-16329068D01*
X16363788Y-16338592D01*
X16344741Y-16338592D01*
X16325693Y-16329068D01*
X16316169Y-16319545D01*
X16306646Y-16300497D01*
X16297122Y-16262402D01*
X16297122Y-16214783D01*
X16306646Y-16176688D01*
X16316169Y-16157640D01*
X16325693Y-16148116D01*
X16344741Y-16138592D01*
X16497122Y-16338592D02*
X16497122Y-16205259D01*
X16497122Y-16224307D02*
X16506646Y-16214783D01*
X16525693Y-16205259D01*
X16554265Y-16205259D01*
X16573312Y-16214783D01*
X16582836Y-16233830D01*
X16582836Y-16338592D01*
X16582836Y-16233830D02*
X16592360Y-16214783D01*
X16611408Y-16205259D01*
X16639979Y-16205259D01*
X16659027Y-16214783D01*
X16668550Y-16233830D01*
X16668550Y-16338592D01*
X16763788Y-16338592D02*
X16763788Y-16205259D01*
X16763788Y-16224307D02*
X16773312Y-16214783D01*
X16792360Y-16205259D01*
X16820931Y-16205259D01*
X16839979Y-16214783D01*
X16849503Y-16233830D01*
X16849503Y-16338592D01*
X16849503Y-16233830D02*
X16859027Y-16214783D01*
X16878074Y-16205259D01*
X16906646Y-16205259D01*
X16925693Y-16214783D01*
X16935217Y-16233830D01*
X16935217Y-16338592D01*
X17325693Y-16129068D02*
X17154265Y-16386211D01*
X17582836Y-16138592D02*
X17601884Y-16138592D01*
X17620931Y-16148116D01*
X17630455Y-16157640D01*
X17639979Y-16176688D01*
X17649503Y-16214783D01*
X17649503Y-16262402D01*
X17639979Y-16300497D01*
X17630455Y-16319545D01*
X17620931Y-16329068D01*
X17601884Y-16338592D01*
X17582836Y-16338592D01*
X17563789Y-16329068D01*
X17554265Y-16319545D01*
X17544741Y-16300497D01*
X17535217Y-16262402D01*
X17535217Y-16214783D01*
X17544741Y-16176688D01*
X17554265Y-16157640D01*
X17563789Y-16148116D01*
X17582836Y-16138592D01*
X17735217Y-16319545D02*
X17744741Y-16329068D01*
X17735217Y-16338592D01*
X17725693Y-16329068D01*
X17735217Y-16319545D01*
X17735217Y-16338592D01*
X17868550Y-16138592D02*
X17887598Y-16138592D01*
X17906646Y-16148116D01*
X17916170Y-16157640D01*
X17925693Y-16176688D01*
X17935217Y-16214783D01*
X17935217Y-16262402D01*
X17925693Y-16300497D01*
X17916170Y-16319545D01*
X17906646Y-16329068D01*
X17887598Y-16338592D01*
X17868550Y-16338592D01*
X17849503Y-16329068D01*
X17839979Y-16319545D01*
X17830455Y-16300497D01*
X17820931Y-16262402D01*
X17820931Y-16214783D01*
X17830455Y-16176688D01*
X17839979Y-16157640D01*
X17849503Y-16148116D01*
X17868550Y-16138592D01*
X18001884Y-16138592D02*
X18125693Y-16138592D01*
X18059027Y-16214783D01*
X18087598Y-16214783D01*
X18106646Y-16224307D01*
X18116170Y-16233830D01*
X18125693Y-16252878D01*
X18125693Y-16300497D01*
X18116170Y-16319545D01*
X18106646Y-16329068D01*
X18087598Y-16338592D01*
X18030455Y-16338592D01*
X18011408Y-16329068D01*
X18001884Y-16319545D01*
X18316170Y-16338592D02*
X18201884Y-16338592D01*
X18259027Y-16338592D02*
X18259027Y-16138592D01*
X18239979Y-16167164D01*
X18220931Y-16186211D01*
X18201884Y-16195735D01*
X18497122Y-16138592D02*
X18401884Y-16138592D01*
X18392360Y-16233830D01*
X18401884Y-16224307D01*
X18420931Y-16214783D01*
X18468550Y-16214783D01*
X18487598Y-16224307D01*
X18497122Y-16233830D01*
X18506646Y-16252878D01*
X18506646Y-16300497D01*
X18497122Y-16319545D01*
X18487598Y-16329068D01*
X18468550Y-16338592D01*
X18420931Y-16338592D01*
X18401884Y-16329068D01*
X18392360Y-16319545D01*
X18582836Y-16138592D02*
X18582836Y-16176688D01*
X18659027Y-16138592D02*
X18659027Y-16176688D01*
X18954265Y-16414783D02*
X18944741Y-16405259D01*
X18925693Y-16376688D01*
X18916170Y-16357640D01*
X18906646Y-16329068D01*
X18897122Y-16281449D01*
X18897122Y-16243354D01*
X18906646Y-16195735D01*
X18916170Y-16167164D01*
X18925693Y-16148116D01*
X18944741Y-16119545D01*
X18954265Y-16110021D01*
X19125693Y-16138592D02*
X19030455Y-16138592D01*
X19020931Y-16233830D01*
X19030455Y-16224307D01*
X19049503Y-16214783D01*
X19097122Y-16214783D01*
X19116170Y-16224307D01*
X19125693Y-16233830D01*
X19135217Y-16252878D01*
X19135217Y-16300497D01*
X19125693Y-16319545D01*
X19116170Y-16329068D01*
X19097122Y-16338592D01*
X19049503Y-16338592D01*
X19030455Y-16329068D01*
X19020931Y-16319545D01*
X19211408Y-16157640D02*
X19220931Y-16148116D01*
X19239979Y-16138592D01*
X19287598Y-16138592D01*
X19306646Y-16148116D01*
X19316170Y-16157640D01*
X19325693Y-16176688D01*
X19325693Y-16195735D01*
X19316170Y-16224307D01*
X19201884Y-16338592D01*
X19325693Y-16338592D01*
X19563789Y-16338592D02*
X19563789Y-16138592D01*
X19649503Y-16338592D02*
X19649503Y-16233830D01*
X19639979Y-16214783D01*
X19620931Y-16205259D01*
X19592360Y-16205259D01*
X19573312Y-16214783D01*
X19563789Y-16224307D01*
X19773312Y-16338592D02*
X19754265Y-16329068D01*
X19744741Y-16319545D01*
X19735217Y-16300497D01*
X19735217Y-16243354D01*
X19744741Y-16224307D01*
X19754265Y-16214783D01*
X19773312Y-16205259D01*
X19801884Y-16205259D01*
X19820931Y-16214783D01*
X19830455Y-16224307D01*
X19839979Y-16243354D01*
X19839979Y-16300497D01*
X19830455Y-16319545D01*
X19820931Y-16329068D01*
X19801884Y-16338592D01*
X19773312Y-16338592D01*
X19954265Y-16338592D02*
X19935217Y-16329068D01*
X19925693Y-16310021D01*
X19925693Y-16138592D01*
X20106646Y-16329068D02*
X20087598Y-16338592D01*
X20049503Y-16338592D01*
X20030455Y-16329068D01*
X20020931Y-16310021D01*
X20020931Y-16233830D01*
X20030455Y-16214783D01*
X20049503Y-16205259D01*
X20087598Y-16205259D01*
X20106646Y-16214783D01*
X20116170Y-16233830D01*
X20116170Y-16252878D01*
X20020931Y-16271926D01*
X20192360Y-16329068D02*
X20211408Y-16338592D01*
X20249503Y-16338592D01*
X20268550Y-16329068D01*
X20278074Y-16310021D01*
X20278074Y-16300497D01*
X20268550Y-16281449D01*
X20249503Y-16271926D01*
X20220931Y-16271926D01*
X20201884Y-16262402D01*
X20192360Y-16243354D01*
X20192360Y-16233830D01*
X20201884Y-16214783D01*
X20220931Y-16205259D01*
X20249503Y-16205259D01*
X20268550Y-16214783D01*
X20344741Y-16414783D02*
X20354265Y-16405259D01*
X20373312Y-16376688D01*
X20382836Y-16357640D01*
X20392360Y-16329068D01*
X20401884Y-16281449D01*
X20401884Y-16243354D01*
X20392360Y-16195735D01*
X20382836Y-16167164D01*
X20373312Y-16148116D01*
X20354265Y-16119545D01*
X20344741Y-16110021D01*
D14*
X15332360Y-16462116D02*
X15332360Y-16562116D01*
X15282360Y-16512116D02*
X15382360Y-16512116D01*
D11*
X15744741Y-16602592D02*
X15630455Y-16602592D01*
X15687598Y-16602592D02*
X15687598Y-16402592D01*
X15668550Y-16431164D01*
X15649503Y-16450211D01*
X15630455Y-16459735D01*
X15830455Y-16583545D02*
X15839979Y-16593068D01*
X15830455Y-16602592D01*
X15820931Y-16593068D01*
X15830455Y-16583545D01*
X15830455Y-16602592D01*
X15963788Y-16402592D02*
X15982836Y-16402592D01*
X16001884Y-16412116D01*
X16011408Y-16421640D01*
X16020931Y-16440688D01*
X16030455Y-16478783D01*
X16030455Y-16526402D01*
X16020931Y-16564497D01*
X16011408Y-16583545D01*
X16001884Y-16593068D01*
X15982836Y-16602592D01*
X15963788Y-16602592D01*
X15944741Y-16593068D01*
X15935217Y-16583545D01*
X15925693Y-16564497D01*
X15916169Y-16526402D01*
X15916169Y-16478783D01*
X15925693Y-16440688D01*
X15935217Y-16421640D01*
X15944741Y-16412116D01*
X15963788Y-16402592D01*
X16154265Y-16402592D02*
X16173312Y-16402592D01*
X16192360Y-16412116D01*
X16201884Y-16421640D01*
X16211408Y-16440688D01*
X16220931Y-16478783D01*
X16220931Y-16526402D01*
X16211408Y-16564497D01*
X16201884Y-16583545D01*
X16192360Y-16593068D01*
X16173312Y-16602592D01*
X16154265Y-16602592D01*
X16135217Y-16593068D01*
X16125693Y-16583545D01*
X16116169Y-16564497D01*
X16106646Y-16526402D01*
X16106646Y-16478783D01*
X16116169Y-16440688D01*
X16125693Y-16421640D01*
X16135217Y-16412116D01*
X16154265Y-16402592D01*
X16344741Y-16402592D02*
X16363788Y-16402592D01*
X16382836Y-16412116D01*
X16392360Y-16421640D01*
X16401884Y-16440688D01*
X16411408Y-16478783D01*
X16411408Y-16526402D01*
X16401884Y-16564497D01*
X16392360Y-16583545D01*
X16382836Y-16593068D01*
X16363788Y-16602592D01*
X16344741Y-16602592D01*
X16325693Y-16593068D01*
X16316169Y-16583545D01*
X16306646Y-16564497D01*
X16297122Y-16526402D01*
X16297122Y-16478783D01*
X16306646Y-16440688D01*
X16316169Y-16421640D01*
X16325693Y-16412116D01*
X16344741Y-16402592D01*
X16497122Y-16602592D02*
X16497122Y-16469259D01*
X16497122Y-16488307D02*
X16506646Y-16478783D01*
X16525693Y-16469259D01*
X16554265Y-16469259D01*
X16573312Y-16478783D01*
X16582836Y-16497830D01*
X16582836Y-16602592D01*
X16582836Y-16497830D02*
X16592360Y-16478783D01*
X16611408Y-16469259D01*
X16639979Y-16469259D01*
X16659027Y-16478783D01*
X16668550Y-16497830D01*
X16668550Y-16602592D01*
X16763788Y-16602592D02*
X16763788Y-16469259D01*
X16763788Y-16488307D02*
X16773312Y-16478783D01*
X16792360Y-16469259D01*
X16820931Y-16469259D01*
X16839979Y-16478783D01*
X16849503Y-16497830D01*
X16849503Y-16602592D01*
X16849503Y-16497830D02*
X16859027Y-16478783D01*
X16878074Y-16469259D01*
X16906646Y-16469259D01*
X16925693Y-16478783D01*
X16935217Y-16497830D01*
X16935217Y-16602592D01*
X17325693Y-16393068D02*
X17154265Y-16650211D01*
X17582836Y-16402592D02*
X17601884Y-16402592D01*
X17620931Y-16412116D01*
X17630455Y-16421640D01*
X17639979Y-16440688D01*
X17649503Y-16478783D01*
X17649503Y-16526402D01*
X17639979Y-16564497D01*
X17630455Y-16583545D01*
X17620931Y-16593068D01*
X17601884Y-16602592D01*
X17582836Y-16602592D01*
X17563789Y-16593068D01*
X17554265Y-16583545D01*
X17544741Y-16564497D01*
X17535217Y-16526402D01*
X17535217Y-16478783D01*
X17544741Y-16440688D01*
X17554265Y-16421640D01*
X17563789Y-16412116D01*
X17582836Y-16402592D01*
X17735217Y-16583545D02*
X17744741Y-16593068D01*
X17735217Y-16602592D01*
X17725693Y-16593068D01*
X17735217Y-16583545D01*
X17735217Y-16602592D01*
X17868550Y-16402592D02*
X17887598Y-16402592D01*
X17906646Y-16412116D01*
X17916170Y-16421640D01*
X17925693Y-16440688D01*
X17935217Y-16478783D01*
X17935217Y-16526402D01*
X17925693Y-16564497D01*
X17916170Y-16583545D01*
X17906646Y-16593068D01*
X17887598Y-16602592D01*
X17868550Y-16602592D01*
X17849503Y-16593068D01*
X17839979Y-16583545D01*
X17830455Y-16564497D01*
X17820931Y-16526402D01*
X17820931Y-16478783D01*
X17830455Y-16440688D01*
X17839979Y-16421640D01*
X17849503Y-16412116D01*
X17868550Y-16402592D01*
X18001884Y-16402592D02*
X18125693Y-16402592D01*
X18059027Y-16478783D01*
X18087598Y-16478783D01*
X18106646Y-16488307D01*
X18116170Y-16497830D01*
X18125693Y-16516878D01*
X18125693Y-16564497D01*
X18116170Y-16583545D01*
X18106646Y-16593068D01*
X18087598Y-16602592D01*
X18030455Y-16602592D01*
X18011408Y-16593068D01*
X18001884Y-16583545D01*
X18220931Y-16602592D02*
X18259027Y-16602592D01*
X18278074Y-16593068D01*
X18287598Y-16583545D01*
X18306646Y-16554973D01*
X18316170Y-16516878D01*
X18316170Y-16440688D01*
X18306646Y-16421640D01*
X18297122Y-16412116D01*
X18278074Y-16402592D01*
X18239979Y-16402592D01*
X18220931Y-16412116D01*
X18211408Y-16421640D01*
X18201884Y-16440688D01*
X18201884Y-16488307D01*
X18211408Y-16507354D01*
X18220931Y-16516878D01*
X18239979Y-16526402D01*
X18278074Y-16526402D01*
X18297122Y-16516878D01*
X18306646Y-16507354D01*
X18316170Y-16488307D01*
X18487598Y-16469259D02*
X18487598Y-16602592D01*
X18439979Y-16393068D02*
X18392360Y-16535926D01*
X18516170Y-16535926D01*
X18582836Y-16402592D02*
X18582836Y-16440688D01*
X18659027Y-16402592D02*
X18659027Y-16440688D01*
X18954265Y-16678783D02*
X18944741Y-16669259D01*
X18925693Y-16640688D01*
X18916170Y-16621640D01*
X18906646Y-16593068D01*
X18897122Y-16545449D01*
X18897122Y-16507354D01*
X18906646Y-16459735D01*
X18916170Y-16431164D01*
X18925693Y-16412116D01*
X18944741Y-16383545D01*
X18954265Y-16374021D01*
X19011408Y-16402592D02*
X19135217Y-16402592D01*
X19068550Y-16478783D01*
X19097122Y-16478783D01*
X19116170Y-16488307D01*
X19125693Y-16497830D01*
X19135217Y-16516878D01*
X19135217Y-16564497D01*
X19125693Y-16583545D01*
X19116170Y-16593068D01*
X19097122Y-16602592D01*
X19039979Y-16602592D01*
X19020931Y-16593068D01*
X19011408Y-16583545D01*
X19325693Y-16602592D02*
X19211408Y-16602592D01*
X19268550Y-16602592D02*
X19268550Y-16402592D01*
X19249503Y-16431164D01*
X19230455Y-16450211D01*
X19211408Y-16459735D01*
X19563789Y-16602592D02*
X19563789Y-16402592D01*
X19649503Y-16602592D02*
X19649503Y-16497830D01*
X19639979Y-16478783D01*
X19620931Y-16469259D01*
X19592360Y-16469259D01*
X19573312Y-16478783D01*
X19563789Y-16488307D01*
X19773312Y-16602592D02*
X19754265Y-16593068D01*
X19744741Y-16583545D01*
X19735217Y-16564497D01*
X19735217Y-16507354D01*
X19744741Y-16488307D01*
X19754265Y-16478783D01*
X19773312Y-16469259D01*
X19801884Y-16469259D01*
X19820931Y-16478783D01*
X19830455Y-16488307D01*
X19839979Y-16507354D01*
X19839979Y-16564497D01*
X19830455Y-16583545D01*
X19820931Y-16593068D01*
X19801884Y-16602592D01*
X19773312Y-16602592D01*
X19954265Y-16602592D02*
X19935217Y-16593068D01*
X19925693Y-16574021D01*
X19925693Y-16402592D01*
X20106646Y-16593068D02*
X20087598Y-16602592D01*
X20049503Y-16602592D01*
X20030455Y-16593068D01*
X20020931Y-16574021D01*
X20020931Y-16497830D01*
X20030455Y-16478783D01*
X20049503Y-16469259D01*
X20087598Y-16469259D01*
X20106646Y-16478783D01*
X20116170Y-16497830D01*
X20116170Y-16516878D01*
X20020931Y-16535926D01*
X20192360Y-16593068D02*
X20211408Y-16602592D01*
X20249503Y-16602592D01*
X20268550Y-16593068D01*
X20278074Y-16574021D01*
X20278074Y-16564497D01*
X20268550Y-16545449D01*
X20249503Y-16535926D01*
X20220931Y-16535926D01*
X20201884Y-16526402D01*
X20192360Y-16507354D01*
X20192360Y-16497830D01*
X20201884Y-16478783D01*
X20220931Y-16469259D01*
X20249503Y-16469259D01*
X20268550Y-16478783D01*
X20344741Y-16678783D02*
X20354265Y-16669259D01*
X20373312Y-16640688D01*
X20382836Y-16621640D01*
X20392360Y-16593068D01*
X20401884Y-16545449D01*
X20401884Y-16507354D01*
X20392360Y-16459735D01*
X20382836Y-16431164D01*
X20373312Y-16412116D01*
X20354265Y-16383545D01*
X20344741Y-16374021D01*
D15*
X15367481Y-16812038D02*
X15367481Y-16740195D01*
X15295639Y-16740195D01*
X15295639Y-16812038D01*
X15367481Y-16812038D01*
D11*
X15744741Y-16866592D02*
X15630455Y-16866592D01*
X15687598Y-16866592D02*
X15687598Y-16666592D01*
X15668550Y-16695164D01*
X15649503Y-16714211D01*
X15630455Y-16723735D01*
X15830455Y-16847545D02*
X15839979Y-16857069D01*
X15830455Y-16866592D01*
X15820931Y-16857069D01*
X15830455Y-16847545D01*
X15830455Y-16866592D01*
X15963788Y-16666592D02*
X15982836Y-16666592D01*
X16001884Y-16676116D01*
X16011408Y-16685640D01*
X16020931Y-16704688D01*
X16030455Y-16742783D01*
X16030455Y-16790402D01*
X16020931Y-16828497D01*
X16011408Y-16847545D01*
X16001884Y-16857069D01*
X15982836Y-16866592D01*
X15963788Y-16866592D01*
X15944741Y-16857069D01*
X15935217Y-16847545D01*
X15925693Y-16828497D01*
X15916169Y-16790402D01*
X15916169Y-16742783D01*
X15925693Y-16704688D01*
X15935217Y-16685640D01*
X15944741Y-16676116D01*
X15963788Y-16666592D01*
X16220931Y-16866592D02*
X16106646Y-16866592D01*
X16163788Y-16866592D02*
X16163788Y-16666592D01*
X16144741Y-16695164D01*
X16125693Y-16714211D01*
X16106646Y-16723735D01*
X16392360Y-16666592D02*
X16354265Y-16666592D01*
X16335217Y-16676116D01*
X16325693Y-16685640D01*
X16306646Y-16714211D01*
X16297122Y-16752307D01*
X16297122Y-16828497D01*
X16306646Y-16847545D01*
X16316169Y-16857069D01*
X16335217Y-16866592D01*
X16373312Y-16866592D01*
X16392360Y-16857069D01*
X16401884Y-16847545D01*
X16411408Y-16828497D01*
X16411408Y-16780878D01*
X16401884Y-16761830D01*
X16392360Y-16752307D01*
X16373312Y-16742783D01*
X16335217Y-16742783D01*
X16316169Y-16752307D01*
X16306646Y-16761830D01*
X16297122Y-16780878D01*
X16497122Y-16866592D02*
X16497122Y-16733259D01*
X16497122Y-16752307D02*
X16506646Y-16742783D01*
X16525693Y-16733259D01*
X16554265Y-16733259D01*
X16573312Y-16742783D01*
X16582836Y-16761830D01*
X16582836Y-16866592D01*
X16582836Y-16761830D02*
X16592360Y-16742783D01*
X16611408Y-16733259D01*
X16639979Y-16733259D01*
X16659027Y-16742783D01*
X16668550Y-16761830D01*
X16668550Y-16866592D01*
X16763788Y-16866592D02*
X16763788Y-16733259D01*
X16763788Y-16752307D02*
X16773312Y-16742783D01*
X16792360Y-16733259D01*
X16820931Y-16733259D01*
X16839979Y-16742783D01*
X16849503Y-16761830D01*
X16849503Y-16866592D01*
X16849503Y-16761830D02*
X16859027Y-16742783D01*
X16878074Y-16733259D01*
X16906646Y-16733259D01*
X16925693Y-16742783D01*
X16935217Y-16761830D01*
X16935217Y-16866592D01*
X17325693Y-16657068D02*
X17154265Y-16914211D01*
X17582836Y-16666592D02*
X17601884Y-16666592D01*
X17620931Y-16676116D01*
X17630455Y-16685640D01*
X17639979Y-16704688D01*
X17649503Y-16742783D01*
X17649503Y-16790402D01*
X17639979Y-16828497D01*
X17630455Y-16847545D01*
X17620931Y-16857069D01*
X17601884Y-16866592D01*
X17582836Y-16866592D01*
X17563789Y-16857069D01*
X17554265Y-16847545D01*
X17544741Y-16828497D01*
X17535217Y-16790402D01*
X17535217Y-16742783D01*
X17544741Y-16704688D01*
X17554265Y-16685640D01*
X17563789Y-16676116D01*
X17582836Y-16666592D01*
X17735217Y-16847545D02*
X17744741Y-16857069D01*
X17735217Y-16866592D01*
X17725693Y-16857069D01*
X17735217Y-16847545D01*
X17735217Y-16866592D01*
X17868550Y-16666592D02*
X17887598Y-16666592D01*
X17906646Y-16676116D01*
X17916170Y-16685640D01*
X17925693Y-16704688D01*
X17935217Y-16742783D01*
X17935217Y-16790402D01*
X17925693Y-16828497D01*
X17916170Y-16847545D01*
X17906646Y-16857069D01*
X17887598Y-16866592D01*
X17868550Y-16866592D01*
X17849503Y-16857069D01*
X17839979Y-16847545D01*
X17830455Y-16828497D01*
X17820931Y-16790402D01*
X17820931Y-16742783D01*
X17830455Y-16704688D01*
X17839979Y-16685640D01*
X17849503Y-16676116D01*
X17868550Y-16666592D01*
X18106646Y-16733259D02*
X18106646Y-16866592D01*
X18059027Y-16657068D02*
X18011408Y-16799926D01*
X18135217Y-16799926D01*
X18249503Y-16666592D02*
X18268550Y-16666592D01*
X18287598Y-16676116D01*
X18297122Y-16685640D01*
X18306646Y-16704688D01*
X18316170Y-16742783D01*
X18316170Y-16790402D01*
X18306646Y-16828497D01*
X18297122Y-16847545D01*
X18287598Y-16857069D01*
X18268550Y-16866592D01*
X18249503Y-16866592D01*
X18230455Y-16857069D01*
X18220931Y-16847545D01*
X18211408Y-16828497D01*
X18201884Y-16790402D01*
X18201884Y-16742783D01*
X18211408Y-16704688D01*
X18220931Y-16685640D01*
X18230455Y-16676116D01*
X18249503Y-16666592D01*
X18439979Y-16666592D02*
X18459027Y-16666592D01*
X18478074Y-16676116D01*
X18487598Y-16685640D01*
X18497122Y-16704688D01*
X18506646Y-16742783D01*
X18506646Y-16790402D01*
X18497122Y-16828497D01*
X18487598Y-16847545D01*
X18478074Y-16857069D01*
X18459027Y-16866592D01*
X18439979Y-16866592D01*
X18420931Y-16857069D01*
X18411408Y-16847545D01*
X18401884Y-16828497D01*
X18392360Y-16790402D01*
X18392360Y-16742783D01*
X18401884Y-16704688D01*
X18411408Y-16685640D01*
X18420931Y-16676116D01*
X18439979Y-16666592D01*
X18582836Y-16666592D02*
X18582836Y-16704688D01*
X18659027Y-16666592D02*
X18659027Y-16704688D01*
X18954265Y-16942783D02*
X18944741Y-16933259D01*
X18925693Y-16904688D01*
X18916170Y-16885640D01*
X18906646Y-16857069D01*
X18897122Y-16809450D01*
X18897122Y-16771354D01*
X18906646Y-16723735D01*
X18916170Y-16695164D01*
X18925693Y-16676116D01*
X18944741Y-16647545D01*
X18954265Y-16638021D01*
X19011408Y-16666592D02*
X19135217Y-16666592D01*
X19068550Y-16742783D01*
X19097122Y-16742783D01*
X19116170Y-16752307D01*
X19125693Y-16761830D01*
X19135217Y-16780878D01*
X19135217Y-16828497D01*
X19125693Y-16847545D01*
X19116170Y-16857069D01*
X19097122Y-16866592D01*
X19039979Y-16866592D01*
X19020931Y-16857069D01*
X19011408Y-16847545D01*
X19230455Y-16866592D02*
X19268550Y-16866592D01*
X19287598Y-16857069D01*
X19297122Y-16847545D01*
X19316170Y-16818973D01*
X19325693Y-16780878D01*
X19325693Y-16704688D01*
X19316170Y-16685640D01*
X19306646Y-16676116D01*
X19287598Y-16666592D01*
X19249503Y-16666592D01*
X19230455Y-16676116D01*
X19220931Y-16685640D01*
X19211408Y-16704688D01*
X19211408Y-16752307D01*
X19220931Y-16771354D01*
X19230455Y-16780878D01*
X19249503Y-16790402D01*
X19287598Y-16790402D01*
X19306646Y-16780878D01*
X19316170Y-16771354D01*
X19325693Y-16752307D01*
X19563789Y-16866592D02*
X19563789Y-16666592D01*
X19649503Y-16866592D02*
X19649503Y-16761830D01*
X19639979Y-16742783D01*
X19620931Y-16733259D01*
X19592360Y-16733259D01*
X19573312Y-16742783D01*
X19563789Y-16752307D01*
X19773312Y-16866592D02*
X19754265Y-16857069D01*
X19744741Y-16847545D01*
X19735217Y-16828497D01*
X19735217Y-16771354D01*
X19744741Y-16752307D01*
X19754265Y-16742783D01*
X19773312Y-16733259D01*
X19801884Y-16733259D01*
X19820931Y-16742783D01*
X19830455Y-16752307D01*
X19839979Y-16771354D01*
X19839979Y-16828497D01*
X19830455Y-16847545D01*
X19820931Y-16857069D01*
X19801884Y-16866592D01*
X19773312Y-16866592D01*
X19954265Y-16866592D02*
X19935217Y-16857069D01*
X19925693Y-16838021D01*
X19925693Y-16666592D01*
X20106646Y-16857069D02*
X20087598Y-16866592D01*
X20049503Y-16866592D01*
X20030455Y-16857069D01*
X20020931Y-16838021D01*
X20020931Y-16761830D01*
X20030455Y-16742783D01*
X20049503Y-16733259D01*
X20087598Y-16733259D01*
X20106646Y-16742783D01*
X20116170Y-16761830D01*
X20116170Y-16780878D01*
X20020931Y-16799926D01*
X20192360Y-16857069D02*
X20211408Y-16866592D01*
X20249503Y-16866592D01*
X20268550Y-16857069D01*
X20278074Y-16838021D01*
X20278074Y-16828497D01*
X20268550Y-16809450D01*
X20249503Y-16799926D01*
X20220931Y-16799926D01*
X20201884Y-16790402D01*
X20192360Y-16771354D01*
X20192360Y-16761830D01*
X20201884Y-16742783D01*
X20220931Y-16733259D01*
X20249503Y-16733259D01*
X20268550Y-16742783D01*
X20344741Y-16942783D02*
X20354265Y-16933259D01*
X20373312Y-16904688D01*
X20382836Y-16885640D01*
X20392360Y-16857069D01*
X20401884Y-16809450D01*
X20401884Y-16771354D01*
X20392360Y-16723735D01*
X20382836Y-16695164D01*
X20373312Y-16676116D01*
X20354265Y-16647545D01*
X20344741Y-16638021D01*
X15282360Y-17140116D02*
X15382360Y-17040116D01*
X15282360Y-16940116D01*
X15182360Y-17040116D01*
X15282360Y-17140116D01*
X15620931Y-16930592D02*
X15744741Y-16930592D01*
X15678074Y-17006783D01*
X15706646Y-17006783D01*
X15725693Y-17016307D01*
X15735217Y-17025830D01*
X15744741Y-17044878D01*
X15744741Y-17092497D01*
X15735217Y-17111545D01*
X15725693Y-17121069D01*
X15706646Y-17130592D01*
X15649503Y-17130592D01*
X15630455Y-17121069D01*
X15620931Y-17111545D01*
X15830455Y-17111545D02*
X15839979Y-17121069D01*
X15830455Y-17130592D01*
X15820931Y-17121069D01*
X15830455Y-17111545D01*
X15830455Y-17130592D01*
X15916169Y-16949640D02*
X15925693Y-16940116D01*
X15944741Y-16930592D01*
X15992360Y-16930592D01*
X16011408Y-16940116D01*
X16020931Y-16949640D01*
X16030455Y-16968688D01*
X16030455Y-16987735D01*
X16020931Y-17016307D01*
X15906646Y-17130592D01*
X16030455Y-17130592D01*
X16154265Y-16930592D02*
X16173312Y-16930592D01*
X16192360Y-16940116D01*
X16201884Y-16949640D01*
X16211408Y-16968688D01*
X16220931Y-17006783D01*
X16220931Y-17054402D01*
X16211408Y-17092497D01*
X16201884Y-17111545D01*
X16192360Y-17121069D01*
X16173312Y-17130592D01*
X16154265Y-17130592D01*
X16135217Y-17121069D01*
X16125693Y-17111545D01*
X16116169Y-17092497D01*
X16106646Y-17054402D01*
X16106646Y-17006783D01*
X16116169Y-16968688D01*
X16125693Y-16949640D01*
X16135217Y-16940116D01*
X16154265Y-16930592D01*
X16344741Y-16930592D02*
X16363788Y-16930592D01*
X16382836Y-16940116D01*
X16392360Y-16949640D01*
X16401884Y-16968688D01*
X16411408Y-17006783D01*
X16411408Y-17054402D01*
X16401884Y-17092497D01*
X16392360Y-17111545D01*
X16382836Y-17121069D01*
X16363788Y-17130592D01*
X16344741Y-17130592D01*
X16325693Y-17121069D01*
X16316169Y-17111545D01*
X16306646Y-17092497D01*
X16297122Y-17054402D01*
X16297122Y-17006783D01*
X16306646Y-16968688D01*
X16316169Y-16949640D01*
X16325693Y-16940116D01*
X16344741Y-16930592D01*
X16497122Y-17130592D02*
X16497122Y-16997259D01*
X16497122Y-17016307D02*
X16506646Y-17006783D01*
X16525693Y-16997259D01*
X16554265Y-16997259D01*
X16573312Y-17006783D01*
X16582836Y-17025830D01*
X16582836Y-17130592D01*
X16582836Y-17025830D02*
X16592360Y-17006783D01*
X16611408Y-16997259D01*
X16639979Y-16997259D01*
X16659027Y-17006783D01*
X16668550Y-17025830D01*
X16668550Y-17130592D01*
X16763788Y-17130592D02*
X16763788Y-16997259D01*
X16763788Y-17016307D02*
X16773312Y-17006783D01*
X16792360Y-16997259D01*
X16820931Y-16997259D01*
X16839979Y-17006783D01*
X16849503Y-17025830D01*
X16849503Y-17130592D01*
X16849503Y-17025830D02*
X16859027Y-17006783D01*
X16878074Y-16997259D01*
X16906646Y-16997259D01*
X16925693Y-17006783D01*
X16935217Y-17025830D01*
X16935217Y-17130592D01*
X17325693Y-16921069D02*
X17154265Y-17178211D01*
X17582836Y-16930592D02*
X17601884Y-16930592D01*
X17620931Y-16940116D01*
X17630455Y-16949640D01*
X17639979Y-16968688D01*
X17649503Y-17006783D01*
X17649503Y-17054402D01*
X17639979Y-17092497D01*
X17630455Y-17111545D01*
X17620931Y-17121069D01*
X17601884Y-17130592D01*
X17582836Y-17130592D01*
X17563789Y-17121069D01*
X17554265Y-17111545D01*
X17544741Y-17092497D01*
X17535217Y-17054402D01*
X17535217Y-17006783D01*
X17544741Y-16968688D01*
X17554265Y-16949640D01*
X17563789Y-16940116D01*
X17582836Y-16930592D01*
X17735217Y-17111545D02*
X17744741Y-17121069D01*
X17735217Y-17130592D01*
X17725693Y-17121069D01*
X17735217Y-17111545D01*
X17735217Y-17130592D01*
X17935217Y-17130592D02*
X17820931Y-17130592D01*
X17878074Y-17130592D02*
X17878074Y-16930592D01*
X17859027Y-16959164D01*
X17839979Y-16978211D01*
X17820931Y-16987735D01*
X18011408Y-16949640D02*
X18020931Y-16940116D01*
X18039979Y-16930592D01*
X18087598Y-16930592D01*
X18106646Y-16940116D01*
X18116170Y-16949640D01*
X18125693Y-16968688D01*
X18125693Y-16987735D01*
X18116170Y-17016307D01*
X18001884Y-17130592D01*
X18125693Y-17130592D01*
X18297122Y-16930592D02*
X18259027Y-16930592D01*
X18239979Y-16940116D01*
X18230455Y-16949640D01*
X18211408Y-16978211D01*
X18201884Y-17016307D01*
X18201884Y-17092497D01*
X18211408Y-17111545D01*
X18220931Y-17121069D01*
X18239979Y-17130592D01*
X18278074Y-17130592D01*
X18297122Y-17121069D01*
X18306646Y-17111545D01*
X18316170Y-17092497D01*
X18316170Y-17044878D01*
X18306646Y-17025830D01*
X18297122Y-17016307D01*
X18278074Y-17006783D01*
X18239979Y-17006783D01*
X18220931Y-17016307D01*
X18211408Y-17025830D01*
X18201884Y-17044878D01*
X18439979Y-16930592D02*
X18459027Y-16930592D01*
X18478074Y-16940116D01*
X18487598Y-16949640D01*
X18497122Y-16968688D01*
X18506646Y-17006783D01*
X18506646Y-17054402D01*
X18497122Y-17092497D01*
X18487598Y-17111545D01*
X18478074Y-17121069D01*
X18459027Y-17130592D01*
X18439979Y-17130592D01*
X18420931Y-17121069D01*
X18411408Y-17111545D01*
X18401884Y-17092497D01*
X18392360Y-17054402D01*
X18392360Y-17006783D01*
X18401884Y-16968688D01*
X18411408Y-16949640D01*
X18420931Y-16940116D01*
X18439979Y-16930592D01*
X18582836Y-16930592D02*
X18582836Y-16968688D01*
X18659027Y-16930592D02*
X18659027Y-16968688D01*
X18954265Y-17206783D02*
X18944741Y-17197259D01*
X18925693Y-17168688D01*
X18916170Y-17149640D01*
X18906646Y-17121069D01*
X18897122Y-17073450D01*
X18897122Y-17035354D01*
X18906646Y-16987735D01*
X18916170Y-16959164D01*
X18925693Y-16940116D01*
X18944741Y-16911545D01*
X18954265Y-16902021D01*
X19020931Y-16949640D02*
X19030455Y-16940116D01*
X19049503Y-16930592D01*
X19097122Y-16930592D01*
X19116170Y-16940116D01*
X19125693Y-16949640D01*
X19135217Y-16968688D01*
X19135217Y-16987735D01*
X19125693Y-17016307D01*
X19011408Y-17130592D01*
X19135217Y-17130592D01*
X19373312Y-17130592D02*
X19373312Y-16930592D01*
X19459027Y-17130592D02*
X19459027Y-17025830D01*
X19449503Y-17006783D01*
X19430455Y-16997259D01*
X19401884Y-16997259D01*
X19382836Y-17006783D01*
X19373312Y-17016307D01*
X19582836Y-17130592D02*
X19563789Y-17121069D01*
X19554265Y-17111545D01*
X19544741Y-17092497D01*
X19544741Y-17035354D01*
X19554265Y-17016307D01*
X19563789Y-17006783D01*
X19582836Y-16997259D01*
X19611408Y-16997259D01*
X19630455Y-17006783D01*
X19639979Y-17016307D01*
X19649503Y-17035354D01*
X19649503Y-17092497D01*
X19639979Y-17111545D01*
X19630455Y-17121069D01*
X19611408Y-17130592D01*
X19582836Y-17130592D01*
X19763789Y-17130592D02*
X19744741Y-17121069D01*
X19735217Y-17102021D01*
X19735217Y-16930592D01*
X19916170Y-17121069D02*
X19897122Y-17130592D01*
X19859027Y-17130592D01*
X19839979Y-17121069D01*
X19830455Y-17102021D01*
X19830455Y-17025830D01*
X19839979Y-17006783D01*
X19859027Y-16997259D01*
X19897122Y-16997259D01*
X19916170Y-17006783D01*
X19925693Y-17025830D01*
X19925693Y-17044878D01*
X19830455Y-17063926D01*
X20001884Y-17121069D02*
X20020931Y-17130592D01*
X20059027Y-17130592D01*
X20078074Y-17121069D01*
X20087598Y-17102021D01*
X20087598Y-17092497D01*
X20078074Y-17073450D01*
X20059027Y-17063926D01*
X20030455Y-17063926D01*
X20011408Y-17054402D01*
X20001884Y-17035354D01*
X20001884Y-17025830D01*
X20011408Y-17006783D01*
X20030455Y-16997259D01*
X20059027Y-16997259D01*
X20078074Y-17006783D01*
X20154265Y-17206783D02*
X20163789Y-17197259D01*
X20182836Y-17168688D01*
X20192360Y-17149640D01*
X20201884Y-17121069D01*
X20211408Y-17073450D01*
X20211408Y-17035354D01*
X20201884Y-16987735D01*
X20192360Y-16959164D01*
X20182836Y-16940116D01*
X20163789Y-16911545D01*
X20154265Y-16902021D01*
M02*
