%TF.GenerationSoftware,KiCad,Pcbnew,6.0.11-3.fc36*%
%TF.CreationDate,2023-07-24T20:28:09+01:00*%
%TF.ProjectId,max232_conv,6d617832-3332-45f6-936f-6e762e6b6963,0.1a*%
%TF.SameCoordinates,Original*%
%TF.FileFunction,Legend,Top*%
%TF.FilePolarity,Positive*%
%FSLAX46Y46*%
G04 Gerber Fmt 4.6, Leading zero omitted, Abs format (unit mm)*
G04 Created by KiCad (PCBNEW 6.0.11-3.fc36) date 2023-07-24 20:28:09*
%MOMM*%
%LPD*%
G01*
G04 APERTURE LIST*
%ADD10C,0.200000*%
%ADD11C,0.250000*%
%ADD12C,0.150000*%
%ADD13C,0.120000*%
%ADD14C,3.200000*%
%ADD15R,1.727200X2.032000*%
%ADD16O,1.727200X2.032000*%
%ADD17R,1.700000X1.700000*%
%ADD18O,1.700000X1.700000*%
%ADD19R,1.600000X1.600000*%
%ADD20C,1.600000*%
%ADD21C,4.000000*%
%ADD22O,1.600000X1.600000*%
G04 APERTURE END LIST*
D10*
X156895800Y-153131520D02*
X156931360Y-153131520D01*
D11*
X232433809Y-111577380D02*
X232100476Y-111101190D01*
X231862380Y-111577380D02*
X231862380Y-110577380D01*
X232243333Y-110577380D01*
X232338571Y-110625000D01*
X232386190Y-110672619D01*
X232433809Y-110767857D01*
X232433809Y-110910714D01*
X232386190Y-111005952D01*
X232338571Y-111053571D01*
X232243333Y-111101190D01*
X231862380Y-111101190D01*
X232719523Y-110910714D02*
X233100476Y-110910714D01*
X232862380Y-110577380D02*
X232862380Y-111434523D01*
X232910000Y-111529761D01*
X233005238Y-111577380D01*
X233100476Y-111577380D01*
X243609523Y-141452380D02*
X244180952Y-141452380D01*
X243895238Y-142452380D02*
X243895238Y-141452380D01*
X244419047Y-142452380D02*
X244942857Y-141785714D01*
X244419047Y-141785714D02*
X244942857Y-142452380D01*
X244223809Y-133352380D02*
X243890476Y-132876190D01*
X243652380Y-133352380D02*
X243652380Y-132352380D01*
X244033333Y-132352380D01*
X244128571Y-132400000D01*
X244176190Y-132447619D01*
X244223809Y-132542857D01*
X244223809Y-132685714D01*
X244176190Y-132780952D01*
X244128571Y-132828571D01*
X244033333Y-132876190D01*
X243652380Y-132876190D01*
X244509523Y-132685714D02*
X244890476Y-132685714D01*
X244652380Y-132352380D02*
X244652380Y-133209523D01*
X244700000Y-133304761D01*
X244795238Y-133352380D01*
X244890476Y-133352380D01*
X244609523Y-116952380D02*
X244133333Y-116952380D01*
X244085714Y-117428571D01*
X244133333Y-117380952D01*
X244228571Y-117333333D01*
X244466666Y-117333333D01*
X244561904Y-117380952D01*
X244609523Y-117428571D01*
X244657142Y-117523809D01*
X244657142Y-117761904D01*
X244609523Y-117857142D01*
X244561904Y-117904761D01*
X244466666Y-117952380D01*
X244228571Y-117952380D01*
X244133333Y-117904761D01*
X244085714Y-117857142D01*
X244942857Y-116952380D02*
X245276190Y-117952380D01*
X245609523Y-116952380D01*
X173299523Y-110577380D02*
X173870952Y-110577380D01*
X173585238Y-111577380D02*
X173585238Y-110577380D01*
X174109047Y-111577380D02*
X174632857Y-110910714D01*
X174109047Y-110910714D02*
X174632857Y-111577380D01*
X243623809Y-130152380D02*
X243719047Y-130152380D01*
X243814285Y-130200000D01*
X243861904Y-130247619D01*
X243909523Y-130342857D01*
X243957142Y-130533333D01*
X243957142Y-130771428D01*
X243909523Y-130961904D01*
X243861904Y-131057142D01*
X243814285Y-131104761D01*
X243719047Y-131152380D01*
X243623809Y-131152380D01*
X243528571Y-131104761D01*
X243480952Y-131057142D01*
X243433333Y-130961904D01*
X243385714Y-130771428D01*
X243385714Y-130533333D01*
X243433333Y-130342857D01*
X243480952Y-130247619D01*
X243528571Y-130200000D01*
X243623809Y-130152380D01*
X244242857Y-130152380D02*
X244576190Y-131152380D01*
X244909523Y-130152380D01*
X224694761Y-111577380D02*
X224361428Y-111101190D01*
X224123333Y-111577380D02*
X224123333Y-110577380D01*
X224504285Y-110577380D01*
X224599523Y-110625000D01*
X224647142Y-110672619D01*
X224694761Y-110767857D01*
X224694761Y-110910714D01*
X224647142Y-111005952D01*
X224599523Y-111053571D01*
X224504285Y-111101190D01*
X224123333Y-111101190D01*
X225028095Y-111577380D02*
X225551904Y-110910714D01*
X225028095Y-110910714D02*
X225551904Y-111577380D01*
X179093809Y-111577380D02*
X178760476Y-111101190D01*
X178522380Y-111577380D02*
X178522380Y-110577380D01*
X178903333Y-110577380D01*
X178998571Y-110625000D01*
X179046190Y-110672619D01*
X179093809Y-110767857D01*
X179093809Y-110910714D01*
X179046190Y-111005952D01*
X178998571Y-111053571D01*
X178903333Y-111101190D01*
X178522380Y-111101190D01*
X179379523Y-110910714D02*
X179760476Y-110910714D01*
X179522380Y-110577380D02*
X179522380Y-111434523D01*
X179570000Y-111529761D01*
X179665238Y-111577380D01*
X179760476Y-111577380D01*
X245023809Y-114352380D02*
X244690476Y-113876190D01*
X244452380Y-114352380D02*
X244452380Y-113352380D01*
X244833333Y-113352380D01*
X244928571Y-113400000D01*
X244976190Y-113447619D01*
X245023809Y-113542857D01*
X245023809Y-113685714D01*
X244976190Y-113780952D01*
X244928571Y-113828571D01*
X244833333Y-113876190D01*
X244452380Y-113876190D01*
X245309523Y-113685714D02*
X245690476Y-113685714D01*
X245452380Y-113352380D02*
X245452380Y-114209523D01*
X245500000Y-114304761D01*
X245595238Y-114352380D01*
X245690476Y-114352380D01*
X245023809Y-124557142D02*
X244976190Y-124604761D01*
X244833333Y-124652380D01*
X244738095Y-124652380D01*
X244595238Y-124604761D01*
X244500000Y-124509523D01*
X244452380Y-124414285D01*
X244404761Y-124223809D01*
X244404761Y-124080952D01*
X244452380Y-123890476D01*
X244500000Y-123795238D01*
X244595238Y-123700000D01*
X244738095Y-123652380D01*
X244833333Y-123652380D01*
X244976190Y-123700000D01*
X245023809Y-123747619D01*
X245309523Y-123985714D02*
X245690476Y-123985714D01*
X245452380Y-123652380D02*
X245452380Y-124509523D01*
X245500000Y-124604761D01*
X245595238Y-124652380D01*
X245690476Y-124652380D01*
X244209523Y-121152380D02*
X244780952Y-121152380D01*
X244495238Y-122152380D02*
X244495238Y-121152380D01*
X245019047Y-122152380D02*
X245542857Y-121485714D01*
X245019047Y-121485714D02*
X245542857Y-122152380D01*
D12*
X199942857Y-140852380D02*
X199942857Y-139852380D01*
X200180952Y-139852380D01*
X200323809Y-139900000D01*
X200419047Y-139995238D01*
X200466666Y-140090476D01*
X200514285Y-140280952D01*
X200514285Y-140423809D01*
X200466666Y-140614285D01*
X200419047Y-140709523D01*
X200323809Y-140804761D01*
X200180952Y-140852380D01*
X199942857Y-140852380D01*
X201371428Y-140185714D02*
X201371428Y-140852380D01*
X200942857Y-140185714D02*
X200942857Y-140709523D01*
X200990476Y-140804761D01*
X201085714Y-140852380D01*
X201228571Y-140852380D01*
X201323809Y-140804761D01*
X201371428Y-140757142D01*
X202276190Y-140852380D02*
X202276190Y-140328571D01*
X202228571Y-140233333D01*
X202133333Y-140185714D01*
X201942857Y-140185714D01*
X201847619Y-140233333D01*
X202276190Y-140804761D02*
X202180952Y-140852380D01*
X201942857Y-140852380D01*
X201847619Y-140804761D01*
X201800000Y-140709523D01*
X201800000Y-140614285D01*
X201847619Y-140519047D01*
X201942857Y-140471428D01*
X202180952Y-140471428D01*
X202276190Y-140423809D01*
X202895238Y-140852380D02*
X202800000Y-140804761D01*
X202752380Y-140709523D01*
X202752380Y-139852380D01*
X204514285Y-139852380D02*
X204038095Y-139852380D01*
X203990476Y-140328571D01*
X204038095Y-140280952D01*
X204133333Y-140233333D01*
X204371428Y-140233333D01*
X204466666Y-140280952D01*
X204514285Y-140328571D01*
X204561904Y-140423809D01*
X204561904Y-140661904D01*
X204514285Y-140757142D01*
X204466666Y-140804761D01*
X204371428Y-140852380D01*
X204133333Y-140852380D01*
X204038095Y-140804761D01*
X203990476Y-140757142D01*
X204847619Y-139852380D02*
X205180952Y-140852380D01*
X205514285Y-139852380D01*
X206561904Y-140804761D02*
X206657142Y-140852380D01*
X206847619Y-140852380D01*
X206942857Y-140804761D01*
X206990476Y-140709523D01*
X206990476Y-140661904D01*
X206942857Y-140566666D01*
X206847619Y-140519047D01*
X206704761Y-140519047D01*
X206609523Y-140471428D01*
X206561904Y-140376190D01*
X206561904Y-140328571D01*
X206609523Y-140233333D01*
X206704761Y-140185714D01*
X206847619Y-140185714D01*
X206942857Y-140233333D01*
X207800000Y-140804761D02*
X207704761Y-140852380D01*
X207514285Y-140852380D01*
X207419047Y-140804761D01*
X207371428Y-140709523D01*
X207371428Y-140328571D01*
X207419047Y-140233333D01*
X207514285Y-140185714D01*
X207704761Y-140185714D01*
X207800000Y-140233333D01*
X207847619Y-140328571D01*
X207847619Y-140423809D01*
X207371428Y-140519047D01*
X208276190Y-140852380D02*
X208276190Y-140185714D01*
X208276190Y-140376190D02*
X208323809Y-140280952D01*
X208371428Y-140233333D01*
X208466666Y-140185714D01*
X208561904Y-140185714D01*
X208895238Y-140852380D02*
X208895238Y-140185714D01*
X208895238Y-139852380D02*
X208847619Y-139900000D01*
X208895238Y-139947619D01*
X208942857Y-139900000D01*
X208895238Y-139852380D01*
X208895238Y-139947619D01*
X209800000Y-140852380D02*
X209800000Y-140328571D01*
X209752380Y-140233333D01*
X209657142Y-140185714D01*
X209466666Y-140185714D01*
X209371428Y-140233333D01*
X209800000Y-140804761D02*
X209704761Y-140852380D01*
X209466666Y-140852380D01*
X209371428Y-140804761D01*
X209323809Y-140709523D01*
X209323809Y-140614285D01*
X209371428Y-140519047D01*
X209466666Y-140471428D01*
X209704761Y-140471428D01*
X209800000Y-140423809D01*
X210419047Y-140852380D02*
X210323809Y-140804761D01*
X210276190Y-140709523D01*
X210276190Y-139852380D01*
X211419047Y-140185714D02*
X211800000Y-140185714D01*
X211561904Y-139852380D02*
X211561904Y-140709523D01*
X211609523Y-140804761D01*
X211704761Y-140852380D01*
X211800000Y-140852380D01*
X212276190Y-140852380D02*
X212180952Y-140804761D01*
X212133333Y-140757142D01*
X212085714Y-140661904D01*
X212085714Y-140376190D01*
X212133333Y-140280952D01*
X212180952Y-140233333D01*
X212276190Y-140185714D01*
X212419047Y-140185714D01*
X212514285Y-140233333D01*
X212561904Y-140280952D01*
X212609523Y-140376190D01*
X212609523Y-140661904D01*
X212561904Y-140757142D01*
X212514285Y-140804761D01*
X212419047Y-140852380D01*
X212276190Y-140852380D01*
X214371428Y-140852380D02*
X214038095Y-140376190D01*
X213800000Y-140852380D02*
X213800000Y-139852380D01*
X214180952Y-139852380D01*
X214276190Y-139900000D01*
X214323809Y-139947619D01*
X214371428Y-140042857D01*
X214371428Y-140185714D01*
X214323809Y-140280952D01*
X214276190Y-140328571D01*
X214180952Y-140376190D01*
X213800000Y-140376190D01*
X214752380Y-140804761D02*
X214895238Y-140852380D01*
X215133333Y-140852380D01*
X215228571Y-140804761D01*
X215276190Y-140757142D01*
X215323809Y-140661904D01*
X215323809Y-140566666D01*
X215276190Y-140471428D01*
X215228571Y-140423809D01*
X215133333Y-140376190D01*
X214942857Y-140328571D01*
X214847619Y-140280952D01*
X214800000Y-140233333D01*
X214752380Y-140138095D01*
X214752380Y-140042857D01*
X214800000Y-139947619D01*
X214847619Y-139900000D01*
X214942857Y-139852380D01*
X215180952Y-139852380D01*
X215323809Y-139900000D01*
X215704761Y-139947619D02*
X215752380Y-139900000D01*
X215847619Y-139852380D01*
X216085714Y-139852380D01*
X216180952Y-139900000D01*
X216228571Y-139947619D01*
X216276190Y-140042857D01*
X216276190Y-140138095D01*
X216228571Y-140280952D01*
X215657142Y-140852380D01*
X216276190Y-140852380D01*
X216609523Y-139852380D02*
X217228571Y-139852380D01*
X216895238Y-140233333D01*
X217038095Y-140233333D01*
X217133333Y-140280952D01*
X217180952Y-140328571D01*
X217228571Y-140423809D01*
X217228571Y-140661904D01*
X217180952Y-140757142D01*
X217133333Y-140804761D01*
X217038095Y-140852380D01*
X216752380Y-140852380D01*
X216657142Y-140804761D01*
X216609523Y-140757142D01*
X217609523Y-139947619D02*
X217657142Y-139900000D01*
X217752380Y-139852380D01*
X217990476Y-139852380D01*
X218085714Y-139900000D01*
X218133333Y-139947619D01*
X218180952Y-140042857D01*
X218180952Y-140138095D01*
X218133333Y-140280952D01*
X217561904Y-140852380D01*
X218180952Y-140852380D01*
X219800000Y-140804761D02*
X219704761Y-140852380D01*
X219514285Y-140852380D01*
X219419047Y-140804761D01*
X219371428Y-140757142D01*
X219323809Y-140661904D01*
X219323809Y-140376190D01*
X219371428Y-140280952D01*
X219419047Y-140233333D01*
X219514285Y-140185714D01*
X219704761Y-140185714D01*
X219800000Y-140233333D01*
X220371428Y-140852380D02*
X220276190Y-140804761D01*
X220228571Y-140757142D01*
X220180952Y-140661904D01*
X220180952Y-140376190D01*
X220228571Y-140280952D01*
X220276190Y-140233333D01*
X220371428Y-140185714D01*
X220514285Y-140185714D01*
X220609523Y-140233333D01*
X220657142Y-140280952D01*
X220704761Y-140376190D01*
X220704761Y-140661904D01*
X220657142Y-140757142D01*
X220609523Y-140804761D01*
X220514285Y-140852380D01*
X220371428Y-140852380D01*
X221133333Y-140185714D02*
X221133333Y-140852380D01*
X221133333Y-140280952D02*
X221180952Y-140233333D01*
X221276190Y-140185714D01*
X221419047Y-140185714D01*
X221514285Y-140233333D01*
X221561904Y-140328571D01*
X221561904Y-140852380D01*
X221942857Y-140185714D02*
X222180952Y-140852380D01*
X222419047Y-140185714D01*
X223180952Y-140804761D02*
X223085714Y-140852380D01*
X222895238Y-140852380D01*
X222800000Y-140804761D01*
X222752380Y-140709523D01*
X222752380Y-140328571D01*
X222800000Y-140233333D01*
X222895238Y-140185714D01*
X223085714Y-140185714D01*
X223180952Y-140233333D01*
X223228571Y-140328571D01*
X223228571Y-140423809D01*
X222752380Y-140519047D01*
X223657142Y-140852380D02*
X223657142Y-140185714D01*
X223657142Y-140376190D02*
X223704761Y-140280952D01*
X223752380Y-140233333D01*
X223847619Y-140185714D01*
X223942857Y-140185714D01*
X224133333Y-140185714D02*
X224514285Y-140185714D01*
X224276190Y-139852380D02*
X224276190Y-140709523D01*
X224323809Y-140804761D01*
X224419047Y-140852380D01*
X224514285Y-140852380D01*
X225228571Y-140804761D02*
X225133333Y-140852380D01*
X224942857Y-140852380D01*
X224847619Y-140804761D01*
X224800000Y-140709523D01*
X224800000Y-140328571D01*
X224847619Y-140233333D01*
X224942857Y-140185714D01*
X225133333Y-140185714D01*
X225228571Y-140233333D01*
X225276190Y-140328571D01*
X225276190Y-140423809D01*
X224800000Y-140519047D01*
X225704761Y-140852380D02*
X225704761Y-140185714D01*
X225704761Y-140376190D02*
X225752380Y-140280952D01*
X225800000Y-140233333D01*
X225895238Y-140185714D01*
X225990476Y-140185714D01*
X226990476Y-140185714D02*
X227228571Y-140852380D01*
X227466666Y-140185714D01*
X228038095Y-139852380D02*
X228133333Y-139852380D01*
X228228571Y-139900000D01*
X228276190Y-139947619D01*
X228323809Y-140042857D01*
X228371428Y-140233333D01*
X228371428Y-140471428D01*
X228323809Y-140661904D01*
X228276190Y-140757142D01*
X228228571Y-140804761D01*
X228133333Y-140852380D01*
X228038095Y-140852380D01*
X227942857Y-140804761D01*
X227895238Y-140757142D01*
X227847619Y-140661904D01*
X227800000Y-140471428D01*
X227800000Y-140233333D01*
X227847619Y-140042857D01*
X227895238Y-139947619D01*
X227942857Y-139900000D01*
X228038095Y-139852380D01*
X228800000Y-140757142D02*
X228847619Y-140804761D01*
X228800000Y-140852380D01*
X228752380Y-140804761D01*
X228800000Y-140757142D01*
X228800000Y-140852380D01*
X229800000Y-140852380D02*
X229228571Y-140852380D01*
X229514285Y-140852380D02*
X229514285Y-139852380D01*
X229419047Y-139995238D01*
X229323809Y-140090476D01*
X229228571Y-140138095D01*
X230657142Y-140852380D02*
X230657142Y-140328571D01*
X230609523Y-140233333D01*
X230514285Y-140185714D01*
X230323809Y-140185714D01*
X230228571Y-140233333D01*
X230657142Y-140804761D02*
X230561904Y-140852380D01*
X230323809Y-140852380D01*
X230228571Y-140804761D01*
X230180952Y-140709523D01*
X230180952Y-140614285D01*
X230228571Y-140519047D01*
X230323809Y-140471428D01*
X230561904Y-140471428D01*
X230657142Y-140423809D01*
D11*
X229393809Y-110577380D02*
X229489047Y-110577380D01*
X229584285Y-110625000D01*
X229631904Y-110672619D01*
X229679523Y-110767857D01*
X229727142Y-110958333D01*
X229727142Y-111196428D01*
X229679523Y-111386904D01*
X229631904Y-111482142D01*
X229584285Y-111529761D01*
X229489047Y-111577380D01*
X229393809Y-111577380D01*
X229298571Y-111529761D01*
X229250952Y-111482142D01*
X229203333Y-111386904D01*
X229155714Y-111196428D01*
X229155714Y-110958333D01*
X229203333Y-110767857D01*
X229250952Y-110672619D01*
X229298571Y-110625000D01*
X229393809Y-110577380D01*
X230012857Y-110577380D02*
X230346190Y-111577380D01*
X230679523Y-110577380D01*
X176053809Y-110577380D02*
X176149047Y-110577380D01*
X176244285Y-110625000D01*
X176291904Y-110672619D01*
X176339523Y-110767857D01*
X176387142Y-110958333D01*
X176387142Y-111196428D01*
X176339523Y-111386904D01*
X176291904Y-111482142D01*
X176244285Y-111529761D01*
X176149047Y-111577380D01*
X176053809Y-111577380D01*
X175958571Y-111529761D01*
X175910952Y-111482142D01*
X175863333Y-111386904D01*
X175815714Y-111196428D01*
X175815714Y-110958333D01*
X175863333Y-110767857D01*
X175910952Y-110672619D01*
X175958571Y-110625000D01*
X176053809Y-110577380D01*
X176672857Y-110577380D02*
X177006190Y-111577380D01*
X177339523Y-110577380D01*
X234973809Y-111482142D02*
X234926190Y-111529761D01*
X234783333Y-111577380D01*
X234688095Y-111577380D01*
X234545238Y-111529761D01*
X234450000Y-111434523D01*
X234402380Y-111339285D01*
X234354761Y-111148809D01*
X234354761Y-111005952D01*
X234402380Y-110815476D01*
X234450000Y-110720238D01*
X234545238Y-110625000D01*
X234688095Y-110577380D01*
X234783333Y-110577380D01*
X234926190Y-110625000D01*
X234973809Y-110672619D01*
X235259523Y-110910714D02*
X235640476Y-110910714D01*
X235402380Y-110577380D02*
X235402380Y-111434523D01*
X235450000Y-111529761D01*
X235545238Y-111577380D01*
X235640476Y-111577380D01*
X245323809Y-108452380D02*
X245419047Y-108452380D01*
X245514285Y-108500000D01*
X245561904Y-108547619D01*
X245609523Y-108642857D01*
X245657142Y-108833333D01*
X245657142Y-109071428D01*
X245609523Y-109261904D01*
X245561904Y-109357142D01*
X245514285Y-109404761D01*
X245419047Y-109452380D01*
X245323809Y-109452380D01*
X245228571Y-109404761D01*
X245180952Y-109357142D01*
X245133333Y-109261904D01*
X245085714Y-109071428D01*
X245085714Y-108833333D01*
X245133333Y-108642857D01*
X245180952Y-108547619D01*
X245228571Y-108500000D01*
X245323809Y-108452380D01*
X245942857Y-108452380D02*
X246276190Y-109452380D01*
X246609523Y-108452380D01*
X244104761Y-138652380D02*
X243771428Y-138176190D01*
X243533333Y-138652380D02*
X243533333Y-137652380D01*
X243914285Y-137652380D01*
X244009523Y-137700000D01*
X244057142Y-137747619D01*
X244104761Y-137842857D01*
X244104761Y-137985714D01*
X244057142Y-138080952D01*
X244009523Y-138128571D01*
X243914285Y-138176190D01*
X243533333Y-138176190D01*
X244438095Y-138652380D02*
X244961904Y-137985714D01*
X244438095Y-137985714D02*
X244961904Y-138652380D01*
X171354761Y-111577380D02*
X171021428Y-111101190D01*
X170783333Y-111577380D02*
X170783333Y-110577380D01*
X171164285Y-110577380D01*
X171259523Y-110625000D01*
X171307142Y-110672619D01*
X171354761Y-110767857D01*
X171354761Y-110910714D01*
X171307142Y-111005952D01*
X171259523Y-111053571D01*
X171164285Y-111101190D01*
X170783333Y-111101190D01*
X171688095Y-111577380D02*
X172211904Y-110910714D01*
X171688095Y-110910714D02*
X172211904Y-111577380D01*
X244423809Y-146057142D02*
X244376190Y-146104761D01*
X244233333Y-146152380D01*
X244138095Y-146152380D01*
X243995238Y-146104761D01*
X243900000Y-146009523D01*
X243852380Y-145914285D01*
X243804761Y-145723809D01*
X243804761Y-145580952D01*
X243852380Y-145390476D01*
X243900000Y-145295238D01*
X243995238Y-145200000D01*
X244138095Y-145152380D01*
X244233333Y-145152380D01*
X244376190Y-145200000D01*
X244423809Y-145247619D01*
X244709523Y-145485714D02*
X245090476Y-145485714D01*
X244852380Y-145152380D02*
X244852380Y-146009523D01*
X244900000Y-146104761D01*
X244995238Y-146152380D01*
X245090476Y-146152380D01*
X181633809Y-111482142D02*
X181586190Y-111529761D01*
X181443333Y-111577380D01*
X181348095Y-111577380D01*
X181205238Y-111529761D01*
X181110000Y-111434523D01*
X181062380Y-111339285D01*
X181014761Y-111148809D01*
X181014761Y-111005952D01*
X181062380Y-110815476D01*
X181110000Y-110720238D01*
X181205238Y-110625000D01*
X181348095Y-110577380D01*
X181443333Y-110577380D01*
X181586190Y-110625000D01*
X181633809Y-110672619D01*
X181919523Y-110910714D02*
X182300476Y-110910714D01*
X182062380Y-110577380D02*
X182062380Y-111434523D01*
X182110000Y-111529761D01*
X182205238Y-111577380D01*
X182300476Y-111577380D01*
X241309523Y-135452380D02*
X240833333Y-135452380D01*
X240785714Y-135928571D01*
X240833333Y-135880952D01*
X240928571Y-135833333D01*
X241166666Y-135833333D01*
X241261904Y-135880952D01*
X241309523Y-135928571D01*
X241357142Y-136023809D01*
X241357142Y-136261904D01*
X241309523Y-136357142D01*
X241261904Y-136404761D01*
X241166666Y-136452380D01*
X240928571Y-136452380D01*
X240833333Y-136404761D01*
X240785714Y-136357142D01*
X241642857Y-135452380D02*
X241976190Y-136452380D01*
X242309523Y-135452380D01*
X244704761Y-119552380D02*
X244371428Y-119076190D01*
X244133333Y-119552380D02*
X244133333Y-118552380D01*
X244514285Y-118552380D01*
X244609523Y-118600000D01*
X244657142Y-118647619D01*
X244704761Y-118742857D01*
X244704761Y-118885714D01*
X244657142Y-118980952D01*
X244609523Y-119028571D01*
X244514285Y-119076190D01*
X244133333Y-119076190D01*
X245038095Y-119552380D02*
X245561904Y-118885714D01*
X245038095Y-118885714D02*
X245561904Y-119552380D01*
X226639523Y-110577380D02*
X227210952Y-110577380D01*
X226925238Y-111577380D02*
X226925238Y-110577380D01*
X227449047Y-111577380D02*
X227972857Y-110910714D01*
X227449047Y-110910714D02*
X227972857Y-111577380D01*
D12*
X200454761Y-143757142D02*
X200407142Y-143804761D01*
X200264285Y-143852380D01*
X200169047Y-143852380D01*
X200026190Y-143804761D01*
X199930952Y-143709523D01*
X199883333Y-143614285D01*
X199835714Y-143423809D01*
X199835714Y-143280952D01*
X199883333Y-143090476D01*
X199930952Y-142995238D01*
X200026190Y-142900000D01*
X200169047Y-142852380D01*
X200264285Y-142852380D01*
X200407142Y-142900000D01*
X200454761Y-142947619D01*
X201026190Y-143852380D02*
X200930952Y-143804761D01*
X200883333Y-143757142D01*
X200835714Y-143661904D01*
X200835714Y-143376190D01*
X200883333Y-143280952D01*
X200930952Y-143233333D01*
X201026190Y-143185714D01*
X201169047Y-143185714D01*
X201264285Y-143233333D01*
X201311904Y-143280952D01*
X201359523Y-143376190D01*
X201359523Y-143661904D01*
X201311904Y-143757142D01*
X201264285Y-143804761D01*
X201169047Y-143852380D01*
X201026190Y-143852380D01*
X201788095Y-143185714D02*
X201788095Y-144185714D01*
X201788095Y-143233333D02*
X201883333Y-143185714D01*
X202073809Y-143185714D01*
X202169047Y-143233333D01*
X202216666Y-143280952D01*
X202264285Y-143376190D01*
X202264285Y-143661904D01*
X202216666Y-143757142D01*
X202169047Y-143804761D01*
X202073809Y-143852380D01*
X201883333Y-143852380D01*
X201788095Y-143804761D01*
X202597619Y-143185714D02*
X202835714Y-143852380D01*
X203073809Y-143185714D02*
X202835714Y-143852380D01*
X202740476Y-144090476D01*
X202692857Y-144138095D01*
X202597619Y-144185714D01*
X203454761Y-143852380D02*
X203454761Y-143185714D01*
X203454761Y-143376190D02*
X203502380Y-143280952D01*
X203550000Y-143233333D01*
X203645238Y-143185714D01*
X203740476Y-143185714D01*
X204073809Y-143852380D02*
X204073809Y-143185714D01*
X204073809Y-142852380D02*
X204026190Y-142900000D01*
X204073809Y-142947619D01*
X204121428Y-142900000D01*
X204073809Y-142852380D01*
X204073809Y-142947619D01*
X204978571Y-143185714D02*
X204978571Y-143995238D01*
X204930952Y-144090476D01*
X204883333Y-144138095D01*
X204788095Y-144185714D01*
X204645238Y-144185714D01*
X204550000Y-144138095D01*
X204978571Y-143804761D02*
X204883333Y-143852380D01*
X204692857Y-143852380D01*
X204597619Y-143804761D01*
X204550000Y-143757142D01*
X204502380Y-143661904D01*
X204502380Y-143376190D01*
X204550000Y-143280952D01*
X204597619Y-143233333D01*
X204692857Y-143185714D01*
X204883333Y-143185714D01*
X204978571Y-143233333D01*
X205454761Y-143852380D02*
X205454761Y-142852380D01*
X205883333Y-143852380D02*
X205883333Y-143328571D01*
X205835714Y-143233333D01*
X205740476Y-143185714D01*
X205597619Y-143185714D01*
X205502380Y-143233333D01*
X205454761Y-143280952D01*
X206216666Y-143185714D02*
X206597619Y-143185714D01*
X206359523Y-142852380D02*
X206359523Y-143709523D01*
X206407142Y-143804761D01*
X206502380Y-143852380D01*
X206597619Y-143852380D01*
X207978571Y-144233333D02*
X207930952Y-144185714D01*
X207835714Y-144042857D01*
X207788095Y-143947619D01*
X207740476Y-143804761D01*
X207692857Y-143566666D01*
X207692857Y-143376190D01*
X207740476Y-143138095D01*
X207788095Y-142995238D01*
X207835714Y-142900000D01*
X207930952Y-142757142D01*
X207978571Y-142709523D01*
X208788095Y-143804761D02*
X208692857Y-143852380D01*
X208502380Y-143852380D01*
X208407142Y-143804761D01*
X208359523Y-143757142D01*
X208311904Y-143661904D01*
X208311904Y-143376190D01*
X208359523Y-143280952D01*
X208407142Y-143233333D01*
X208502380Y-143185714D01*
X208692857Y-143185714D01*
X208788095Y-143233333D01*
X209121428Y-144233333D02*
X209169047Y-144185714D01*
X209264285Y-144042857D01*
X209311904Y-143947619D01*
X209359523Y-143804761D01*
X209407142Y-143566666D01*
X209407142Y-143376190D01*
X209359523Y-143138095D01*
X209311904Y-142995238D01*
X209264285Y-142900000D01*
X209169047Y-142757142D01*
X209121428Y-142709523D01*
X209835714Y-142947619D02*
X209883333Y-142900000D01*
X209978571Y-142852380D01*
X210216666Y-142852380D01*
X210311904Y-142900000D01*
X210359523Y-142947619D01*
X210407142Y-143042857D01*
X210407142Y-143138095D01*
X210359523Y-143280952D01*
X209788095Y-143852380D01*
X210407142Y-143852380D01*
X211026190Y-142852380D02*
X211121428Y-142852380D01*
X211216666Y-142900000D01*
X211264285Y-142947619D01*
X211311904Y-143042857D01*
X211359523Y-143233333D01*
X211359523Y-143471428D01*
X211311904Y-143661904D01*
X211264285Y-143757142D01*
X211216666Y-143804761D01*
X211121428Y-143852380D01*
X211026190Y-143852380D01*
X210930952Y-143804761D01*
X210883333Y-143757142D01*
X210835714Y-143661904D01*
X210788095Y-143471428D01*
X210788095Y-143233333D01*
X210835714Y-143042857D01*
X210883333Y-142947619D01*
X210930952Y-142900000D01*
X211026190Y-142852380D01*
X211740476Y-142947619D02*
X211788095Y-142900000D01*
X211883333Y-142852380D01*
X212121428Y-142852380D01*
X212216666Y-142900000D01*
X212264285Y-142947619D01*
X212311904Y-143042857D01*
X212311904Y-143138095D01*
X212264285Y-143280952D01*
X211692857Y-143852380D01*
X212311904Y-143852380D01*
X212645238Y-142852380D02*
X213264285Y-142852380D01*
X212930952Y-143233333D01*
X213073809Y-143233333D01*
X213169047Y-143280952D01*
X213216666Y-143328571D01*
X213264285Y-143423809D01*
X213264285Y-143661904D01*
X213216666Y-143757142D01*
X213169047Y-143804761D01*
X213073809Y-143852380D01*
X212788095Y-143852380D01*
X212692857Y-143804761D01*
X212645238Y-143757142D01*
X214454761Y-143852380D02*
X214454761Y-142852380D01*
X215026190Y-143852380D02*
X214597619Y-143280952D01*
X215026190Y-142852380D02*
X214454761Y-143423809D01*
X215835714Y-143804761D02*
X215740476Y-143852380D01*
X215550000Y-143852380D01*
X215454761Y-143804761D01*
X215407142Y-143709523D01*
X215407142Y-143328571D01*
X215454761Y-143233333D01*
X215550000Y-143185714D01*
X215740476Y-143185714D01*
X215835714Y-143233333D01*
X215883333Y-143328571D01*
X215883333Y-143423809D01*
X215407142Y-143519047D01*
X216216666Y-143185714D02*
X216454761Y-143852380D01*
X216692857Y-143185714D01*
X217073809Y-143852380D02*
X217073809Y-143185714D01*
X217073809Y-142852380D02*
X217026190Y-142900000D01*
X217073809Y-142947619D01*
X217121428Y-142900000D01*
X217073809Y-142852380D01*
X217073809Y-142947619D01*
X217550000Y-143185714D02*
X217550000Y-143852380D01*
X217550000Y-143280952D02*
X217597619Y-143233333D01*
X217692857Y-143185714D01*
X217835714Y-143185714D01*
X217930952Y-143233333D01*
X217978571Y-143328571D01*
X217978571Y-143852380D01*
X219550000Y-143328571D02*
X219692857Y-143376190D01*
X219740476Y-143423809D01*
X219788095Y-143519047D01*
X219788095Y-143661904D01*
X219740476Y-143757142D01*
X219692857Y-143804761D01*
X219597619Y-143852380D01*
X219216666Y-143852380D01*
X219216666Y-142852380D01*
X219550000Y-142852380D01*
X219645238Y-142900000D01*
X219692857Y-142947619D01*
X219740476Y-143042857D01*
X219740476Y-143138095D01*
X219692857Y-143233333D01*
X219645238Y-143280952D01*
X219550000Y-143328571D01*
X219216666Y-143328571D01*
X220359523Y-143852380D02*
X220264285Y-143804761D01*
X220216666Y-143757142D01*
X220169047Y-143661904D01*
X220169047Y-143376190D01*
X220216666Y-143280952D01*
X220264285Y-143233333D01*
X220359523Y-143185714D01*
X220502380Y-143185714D01*
X220597619Y-143233333D01*
X220645238Y-143280952D01*
X220692857Y-143376190D01*
X220692857Y-143661904D01*
X220645238Y-143757142D01*
X220597619Y-143804761D01*
X220502380Y-143852380D01*
X220359523Y-143852380D01*
X221264285Y-143852380D02*
X221169047Y-143804761D01*
X221121428Y-143757142D01*
X221073809Y-143661904D01*
X221073809Y-143376190D01*
X221121428Y-143280952D01*
X221169047Y-143233333D01*
X221264285Y-143185714D01*
X221407142Y-143185714D01*
X221502380Y-143233333D01*
X221550000Y-143280952D01*
X221597619Y-143376190D01*
X221597619Y-143661904D01*
X221550000Y-143757142D01*
X221502380Y-143804761D01*
X221407142Y-143852380D01*
X221264285Y-143852380D01*
X222026190Y-143185714D02*
X222026190Y-143852380D01*
X222026190Y-143280952D02*
X222073809Y-143233333D01*
X222169047Y-143185714D01*
X222311904Y-143185714D01*
X222407142Y-143233333D01*
X222454761Y-143328571D01*
X222454761Y-143852380D01*
X223311904Y-143804761D02*
X223216666Y-143852380D01*
X223026190Y-143852380D01*
X222930952Y-143804761D01*
X222883333Y-143709523D01*
X222883333Y-143328571D01*
X222930952Y-143233333D01*
X223026190Y-143185714D01*
X223216666Y-143185714D01*
X223311904Y-143233333D01*
X223359523Y-143328571D01*
X223359523Y-143423809D01*
X222883333Y-143519047D01*
X225883333Y-143757142D02*
X225835714Y-143804761D01*
X225692857Y-143852380D01*
X225597619Y-143852380D01*
X225454761Y-143804761D01*
X225359523Y-143709523D01*
X225311904Y-143614285D01*
X225264285Y-143423809D01*
X225264285Y-143280952D01*
X225311904Y-143090476D01*
X225359523Y-142995238D01*
X225454761Y-142900000D01*
X225597619Y-142852380D01*
X225692857Y-142852380D01*
X225835714Y-142900000D01*
X225883333Y-142947619D01*
X226883333Y-143757142D02*
X226835714Y-143804761D01*
X226692857Y-143852380D01*
X226597619Y-143852380D01*
X226454761Y-143804761D01*
X226359523Y-143709523D01*
X226311904Y-143614285D01*
X226264285Y-143423809D01*
X226264285Y-143280952D01*
X226311904Y-143090476D01*
X226359523Y-142995238D01*
X226454761Y-142900000D01*
X226597619Y-142852380D01*
X226692857Y-142852380D01*
X226835714Y-142900000D01*
X226883333Y-142947619D01*
X228407142Y-143328571D02*
X228549999Y-143376190D01*
X228597619Y-143423809D01*
X228645238Y-143519047D01*
X228645238Y-143661904D01*
X228597619Y-143757142D01*
X228549999Y-143804761D01*
X228454761Y-143852380D01*
X228073809Y-143852380D01*
X228073809Y-142852380D01*
X228407142Y-142852380D01*
X228502380Y-142900000D01*
X228549999Y-142947619D01*
X228597619Y-143042857D01*
X228597619Y-143138095D01*
X228549999Y-143233333D01*
X228502380Y-143280952D01*
X228407142Y-143328571D01*
X228073809Y-143328571D01*
X229264285Y-143376190D02*
X229264285Y-143852380D01*
X228930952Y-142852380D02*
X229264285Y-143376190D01*
X229597619Y-142852380D01*
X229930952Y-143471428D02*
X230692857Y-143471428D01*
X231121428Y-143804761D02*
X231264285Y-143852380D01*
X231502380Y-143852380D01*
X231597619Y-143804761D01*
X231645238Y-143757142D01*
X231692857Y-143661904D01*
X231692857Y-143566666D01*
X231645238Y-143471428D01*
X231597619Y-143423809D01*
X231502380Y-143376190D01*
X231311904Y-143328571D01*
X231216666Y-143280952D01*
X231169047Y-143233333D01*
X231121428Y-143138095D01*
X231121428Y-143042857D01*
X231169047Y-142947619D01*
X231216666Y-142900000D01*
X231311904Y-142852380D01*
X231549999Y-142852380D01*
X231692857Y-142900000D01*
X232073809Y-143566666D02*
X232549999Y-143566666D01*
X231978571Y-143852380D02*
X232311904Y-142852380D01*
X232645238Y-143852380D01*
X234169047Y-143185714D02*
X234169047Y-143852380D01*
X233930952Y-142804761D02*
X233692857Y-143519047D01*
X234311904Y-143519047D01*
%TO.C,J2*%
X238566666Y-104352380D02*
X238566666Y-105066666D01*
X238519047Y-105209523D01*
X238423809Y-105304761D01*
X238280952Y-105352380D01*
X238185714Y-105352380D01*
X238995238Y-104447619D02*
X239042857Y-104400000D01*
X239138095Y-104352380D01*
X239376190Y-104352380D01*
X239471428Y-104400000D01*
X239519047Y-104447619D01*
X239566666Y-104542857D01*
X239566666Y-104638095D01*
X239519047Y-104780952D01*
X238947619Y-105352380D01*
X239566666Y-105352380D01*
%TO.C,C4*%
X218908333Y-116562142D02*
X218860714Y-116609761D01*
X218717857Y-116657380D01*
X218622619Y-116657380D01*
X218479761Y-116609761D01*
X218384523Y-116514523D01*
X218336904Y-116419285D01*
X218289285Y-116228809D01*
X218289285Y-116085952D01*
X218336904Y-115895476D01*
X218384523Y-115800238D01*
X218479761Y-115705000D01*
X218622619Y-115657380D01*
X218717857Y-115657380D01*
X218860714Y-115705000D01*
X218908333Y-115752619D01*
X219765476Y-115990714D02*
X219765476Y-116657380D01*
X219527380Y-115609761D02*
X219289285Y-116324047D01*
X219908333Y-116324047D01*
%TO.C,C10*%
X240637142Y-108347142D02*
X240589523Y-108394761D01*
X240446666Y-108442380D01*
X240351428Y-108442380D01*
X240208571Y-108394761D01*
X240113333Y-108299523D01*
X240065714Y-108204285D01*
X240018095Y-108013809D01*
X240018095Y-107870952D01*
X240065714Y-107680476D01*
X240113333Y-107585238D01*
X240208571Y-107490000D01*
X240351428Y-107442380D01*
X240446666Y-107442380D01*
X240589523Y-107490000D01*
X240637142Y-107537619D01*
X241589523Y-108442380D02*
X241018095Y-108442380D01*
X241303809Y-108442380D02*
X241303809Y-107442380D01*
X241208571Y-107585238D01*
X241113333Y-107680476D01*
X241018095Y-107728095D01*
X242208571Y-107442380D02*
X242303809Y-107442380D01*
X242399047Y-107490000D01*
X242446666Y-107537619D01*
X242494285Y-107632857D01*
X242541904Y-107823333D01*
X242541904Y-108061428D01*
X242494285Y-108251904D01*
X242446666Y-108347142D01*
X242399047Y-108394761D01*
X242303809Y-108442380D01*
X242208571Y-108442380D01*
X242113333Y-108394761D01*
X242065714Y-108347142D01*
X242018095Y-108251904D01*
X241970476Y-108061428D01*
X241970476Y-107823333D01*
X242018095Y-107632857D01*
X242065714Y-107537619D01*
X242113333Y-107490000D01*
X242208571Y-107442380D01*
%TO.C,C7*%
X169398333Y-142552142D02*
X169350714Y-142599761D01*
X169207857Y-142647380D01*
X169112619Y-142647380D01*
X168969761Y-142599761D01*
X168874523Y-142504523D01*
X168826904Y-142409285D01*
X168779285Y-142218809D01*
X168779285Y-142075952D01*
X168826904Y-141885476D01*
X168874523Y-141790238D01*
X168969761Y-141695000D01*
X169112619Y-141647380D01*
X169207857Y-141647380D01*
X169350714Y-141695000D01*
X169398333Y-141742619D01*
X169731666Y-141647380D02*
X170398333Y-141647380D01*
X169969761Y-142647380D01*
%TO.C,C6*%
X182668333Y-137497142D02*
X182620714Y-137544761D01*
X182477857Y-137592380D01*
X182382619Y-137592380D01*
X182239761Y-137544761D01*
X182144523Y-137449523D01*
X182096904Y-137354285D01*
X182049285Y-137163809D01*
X182049285Y-137020952D01*
X182096904Y-136830476D01*
X182144523Y-136735238D01*
X182239761Y-136640000D01*
X182382619Y-136592380D01*
X182477857Y-136592380D01*
X182620714Y-136640000D01*
X182668333Y-136687619D01*
X183525476Y-136592380D02*
X183335000Y-136592380D01*
X183239761Y-136640000D01*
X183192142Y-136687619D01*
X183096904Y-136830476D01*
X183049285Y-137020952D01*
X183049285Y-137401904D01*
X183096904Y-137497142D01*
X183144523Y-137544761D01*
X183239761Y-137592380D01*
X183430238Y-137592380D01*
X183525476Y-137544761D01*
X183573095Y-137497142D01*
X183620714Y-137401904D01*
X183620714Y-137163809D01*
X183573095Y-137068571D01*
X183525476Y-137020952D01*
X183430238Y-136973333D01*
X183239761Y-136973333D01*
X183144523Y-137020952D01*
X183096904Y-137068571D01*
X183049285Y-137163809D01*
%TO.C,J5*%
X202406666Y-113642380D02*
X202406666Y-114356666D01*
X202359047Y-114499523D01*
X202263809Y-114594761D01*
X202120952Y-114642380D01*
X202025714Y-114642380D01*
X203359047Y-113642380D02*
X202882857Y-113642380D01*
X202835238Y-114118571D01*
X202882857Y-114070952D01*
X202978095Y-114023333D01*
X203216190Y-114023333D01*
X203311428Y-114070952D01*
X203359047Y-114118571D01*
X203406666Y-114213809D01*
X203406666Y-114451904D01*
X203359047Y-114547142D01*
X203311428Y-114594761D01*
X203216190Y-114642380D01*
X202978095Y-114642380D01*
X202882857Y-114594761D01*
X202835238Y-114547142D01*
%TO.C,U1*%
X237363095Y-112482380D02*
X237363095Y-113291904D01*
X237410714Y-113387142D01*
X237458333Y-113434761D01*
X237553571Y-113482380D01*
X237744047Y-113482380D01*
X237839285Y-113434761D01*
X237886904Y-113387142D01*
X237934523Y-113291904D01*
X237934523Y-112482380D01*
X238934523Y-113482380D02*
X238363095Y-113482380D01*
X238648809Y-113482380D02*
X238648809Y-112482380D01*
X238553571Y-112625238D01*
X238458333Y-112720476D01*
X238363095Y-112768095D01*
%TO.C,J4*%
X177466666Y-112482380D02*
X177466666Y-113196666D01*
X177419047Y-113339523D01*
X177323809Y-113434761D01*
X177180952Y-113482380D01*
X177085714Y-113482380D01*
X178371428Y-112815714D02*
X178371428Y-113482380D01*
X178133333Y-112434761D02*
X177895238Y-113149047D01*
X178514285Y-113149047D01*
%TO.C,U2*%
X189738095Y-125392380D02*
X189738095Y-126201904D01*
X189785714Y-126297142D01*
X189833333Y-126344761D01*
X189928571Y-126392380D01*
X190119047Y-126392380D01*
X190214285Y-126344761D01*
X190261904Y-126297142D01*
X190309523Y-126201904D01*
X190309523Y-125392380D01*
X190738095Y-125487619D02*
X190785714Y-125440000D01*
X190880952Y-125392380D01*
X191119047Y-125392380D01*
X191214285Y-125440000D01*
X191261904Y-125487619D01*
X191309523Y-125582857D01*
X191309523Y-125678095D01*
X191261904Y-125820952D01*
X190690476Y-126392380D01*
X191309523Y-126392380D01*
%TO.C,C2*%
X220133333Y-124884763D02*
X220085714Y-124932382D01*
X219942857Y-124980001D01*
X219847619Y-124980001D01*
X219704761Y-124932382D01*
X219609523Y-124837144D01*
X219561904Y-124741906D01*
X219514285Y-124551430D01*
X219514285Y-124408573D01*
X219561904Y-124218097D01*
X219609523Y-124122859D01*
X219704761Y-124027621D01*
X219847619Y-123980001D01*
X219942857Y-123980001D01*
X220085714Y-124027621D01*
X220133333Y-124075240D01*
X220514285Y-124075240D02*
X220561904Y-124027621D01*
X220657142Y-123980001D01*
X220895238Y-123980001D01*
X220990476Y-124027621D01*
X221038095Y-124075240D01*
X221085714Y-124170478D01*
X221085714Y-124265716D01*
X221038095Y-124408573D01*
X220466666Y-124980001D01*
X221085714Y-124980001D01*
%TO.C,J3*%
X249856666Y-127722380D02*
X249856666Y-128436666D01*
X249809047Y-128579523D01*
X249713809Y-128674761D01*
X249570952Y-128722380D01*
X249475714Y-128722380D01*
X250237619Y-127722380D02*
X250856666Y-127722380D01*
X250523333Y-128103333D01*
X250666190Y-128103333D01*
X250761428Y-128150952D01*
X250809047Y-128198571D01*
X250856666Y-128293809D01*
X250856666Y-128531904D01*
X250809047Y-128627142D01*
X250761428Y-128674761D01*
X250666190Y-128722380D01*
X250380476Y-128722380D01*
X250285238Y-128674761D01*
X250237619Y-128627142D01*
%TO.C,C8*%
X185233333Y-115337142D02*
X185185714Y-115384761D01*
X185042857Y-115432380D01*
X184947619Y-115432380D01*
X184804761Y-115384761D01*
X184709523Y-115289523D01*
X184661904Y-115194285D01*
X184614285Y-115003809D01*
X184614285Y-114860952D01*
X184661904Y-114670476D01*
X184709523Y-114575238D01*
X184804761Y-114480000D01*
X184947619Y-114432380D01*
X185042857Y-114432380D01*
X185185714Y-114480000D01*
X185233333Y-114527619D01*
X185804761Y-114860952D02*
X185709523Y-114813333D01*
X185661904Y-114765714D01*
X185614285Y-114670476D01*
X185614285Y-114622857D01*
X185661904Y-114527619D01*
X185709523Y-114480000D01*
X185804761Y-114432380D01*
X185995238Y-114432380D01*
X186090476Y-114480000D01*
X186138095Y-114527619D01*
X186185714Y-114622857D01*
X186185714Y-114670476D01*
X186138095Y-114765714D01*
X186090476Y-114813333D01*
X185995238Y-114860952D01*
X185804761Y-114860952D01*
X185709523Y-114908571D01*
X185661904Y-114956190D01*
X185614285Y-115051428D01*
X185614285Y-115241904D01*
X185661904Y-115337142D01*
X185709523Y-115384761D01*
X185804761Y-115432380D01*
X185995238Y-115432380D01*
X186090476Y-115384761D01*
X186138095Y-115337142D01*
X186185714Y-115241904D01*
X186185714Y-115051428D01*
X186138095Y-114956190D01*
X186090476Y-114908571D01*
X185995238Y-114860952D01*
%TO.C,C1*%
X208133333Y-121857142D02*
X208085714Y-121904761D01*
X207942857Y-121952380D01*
X207847619Y-121952380D01*
X207704761Y-121904761D01*
X207609523Y-121809523D01*
X207561904Y-121714285D01*
X207514285Y-121523809D01*
X207514285Y-121380952D01*
X207561904Y-121190476D01*
X207609523Y-121095238D01*
X207704761Y-121000000D01*
X207847619Y-120952380D01*
X207942857Y-120952380D01*
X208085714Y-121000000D01*
X208133333Y-121047619D01*
X209085714Y-121952380D02*
X208514285Y-121952380D01*
X208800000Y-121952380D02*
X208800000Y-120952380D01*
X208704761Y-121095238D01*
X208609523Y-121190476D01*
X208514285Y-121238095D01*
%TO.C,J1*%
X249856666Y-108672380D02*
X249856666Y-109386666D01*
X249809047Y-109529523D01*
X249713809Y-109624761D01*
X249570952Y-109672380D01*
X249475714Y-109672380D01*
X250856666Y-109672380D02*
X250285238Y-109672380D01*
X250570952Y-109672380D02*
X250570952Y-108672380D01*
X250475714Y-108815238D01*
X250380476Y-108910476D01*
X250285238Y-108958095D01*
%TO.C,C5*%
X179493333Y-129877142D02*
X179445714Y-129924761D01*
X179302857Y-129972380D01*
X179207619Y-129972380D01*
X179064761Y-129924761D01*
X178969523Y-129829523D01*
X178921904Y-129734285D01*
X178874285Y-129543809D01*
X178874285Y-129400952D01*
X178921904Y-129210476D01*
X178969523Y-129115238D01*
X179064761Y-129020000D01*
X179207619Y-128972380D01*
X179302857Y-128972380D01*
X179445714Y-129020000D01*
X179493333Y-129067619D01*
X180398095Y-128972380D02*
X179921904Y-128972380D01*
X179874285Y-129448571D01*
X179921904Y-129400952D01*
X180017142Y-129353333D01*
X180255238Y-129353333D01*
X180350476Y-129400952D01*
X180398095Y-129448571D01*
X180445714Y-129543809D01*
X180445714Y-129781904D01*
X180398095Y-129877142D01*
X180350476Y-129924761D01*
X180255238Y-129972380D01*
X180017142Y-129972380D01*
X179921904Y-129924761D01*
X179874285Y-129877142D01*
%TO.C,C9*%
X195393333Y-121682142D02*
X195345714Y-121729761D01*
X195202857Y-121777380D01*
X195107619Y-121777380D01*
X194964761Y-121729761D01*
X194869523Y-121634523D01*
X194821904Y-121539285D01*
X194774285Y-121348809D01*
X194774285Y-121205952D01*
X194821904Y-121015476D01*
X194869523Y-120920238D01*
X194964761Y-120825000D01*
X195107619Y-120777380D01*
X195202857Y-120777380D01*
X195345714Y-120825000D01*
X195393333Y-120872619D01*
X195869523Y-121777380D02*
X196060000Y-121777380D01*
X196155238Y-121729761D01*
X196202857Y-121682142D01*
X196298095Y-121539285D01*
X196345714Y-121348809D01*
X196345714Y-120967857D01*
X196298095Y-120872619D01*
X196250476Y-120825000D01*
X196155238Y-120777380D01*
X195964761Y-120777380D01*
X195869523Y-120825000D01*
X195821904Y-120872619D01*
X195774285Y-120967857D01*
X195774285Y-121205952D01*
X195821904Y-121301190D01*
X195869523Y-121348809D01*
X195964761Y-121396428D01*
X196155238Y-121396428D01*
X196250476Y-121348809D01*
X196298095Y-121301190D01*
X196345714Y-121205952D01*
%TO.C,C3*%
X224600954Y-126157142D02*
X224553335Y-126204761D01*
X224410478Y-126252380D01*
X224315240Y-126252380D01*
X224172382Y-126204761D01*
X224077144Y-126109523D01*
X224029525Y-126014285D01*
X223981906Y-125823809D01*
X223981906Y-125680952D01*
X224029525Y-125490476D01*
X224077144Y-125395238D01*
X224172382Y-125300000D01*
X224315240Y-125252380D01*
X224410478Y-125252380D01*
X224553335Y-125300000D01*
X224600954Y-125347619D01*
X224934287Y-125252380D02*
X225553335Y-125252380D01*
X225220001Y-125633333D01*
X225362859Y-125633333D01*
X225458097Y-125680952D01*
X225505716Y-125728571D01*
X225553335Y-125823809D01*
X225553335Y-126061904D01*
X225505716Y-126157142D01*
X225458097Y-126204761D01*
X225362859Y-126252380D01*
X225077144Y-126252380D01*
X224981906Y-126204761D01*
X224934287Y-126157142D01*
%TO.C,*%
X156972000Y-150342600D02*
X156972000Y-152882600D01*
X155702000Y-153162600D02*
X154152000Y-153162600D01*
X156972000Y-152882600D02*
X253161800Y-152882600D01*
X154152000Y-153162600D02*
X154152000Y-150062600D01*
X253161800Y-150342600D02*
X156972000Y-150342600D01*
X154152000Y-150062600D02*
X155702000Y-150062600D01*
X253161800Y-152882600D02*
X253161800Y-150342600D01*
D13*
%TO.C,J2*%
X224795000Y-109785000D02*
X223525000Y-109785000D01*
X236285000Y-107075000D02*
X236285000Y-104415000D01*
X230255000Y-107472071D02*
X230255000Y-107075000D01*
X235335000Y-107472071D02*
X235335000Y-107075000D01*
X227715000Y-107472071D02*
X227715000Y-107075000D01*
X223525000Y-109785000D02*
X223525000Y-108515000D01*
X224415000Y-107405000D02*
X224415000Y-107075000D01*
X225175000Y-107405000D02*
X225175000Y-107075000D01*
X226955000Y-107472071D02*
X226955000Y-107075000D01*
X223465000Y-104415000D02*
X223465000Y-107075000D01*
X233685000Y-107075000D02*
X233685000Y-104415000D01*
X232795000Y-107472071D02*
X232795000Y-107075000D01*
X231145000Y-107075000D02*
X231145000Y-104415000D01*
X236285000Y-104415000D02*
X223465000Y-104415000D01*
X226065000Y-107075000D02*
X226065000Y-104415000D01*
X232035000Y-107472071D02*
X232035000Y-107075000D01*
X229495000Y-107472071D02*
X229495000Y-107075000D01*
X223465000Y-107075000D02*
X236285000Y-107075000D01*
X234575000Y-107472071D02*
X234575000Y-107075000D01*
X228605000Y-107075000D02*
X228605000Y-104415000D01*
%TO.C,C4*%
X222814000Y-121044000D02*
X222814000Y-119150000D01*
X221974000Y-117070000D02*
X221974000Y-115730000D01*
X224135000Y-121340000D02*
X224135000Y-114880000D01*
X221334000Y-119691000D02*
X221334000Y-116529000D01*
X223014000Y-121128000D02*
X223014000Y-119150000D01*
X223575000Y-121285000D02*
X223575000Y-119150000D01*
X222214000Y-117070000D02*
X222214000Y-115532000D01*
X222134000Y-117070000D02*
X222134000Y-115594000D01*
X223775000Y-121316000D02*
X223775000Y-119150000D01*
X223094000Y-117070000D02*
X223094000Y-115063000D01*
X222454000Y-117070000D02*
X222454000Y-115368000D01*
X221214000Y-119460000D02*
X221214000Y-116760000D01*
X223895000Y-117070000D02*
X223895000Y-114892000D01*
X221614000Y-120105000D02*
X221614000Y-116115000D01*
X223134000Y-117070000D02*
X223134000Y-115049000D01*
X223374000Y-121241000D02*
X223374000Y-119150000D01*
X222534000Y-120900000D02*
X222534000Y-119150000D01*
X222734000Y-117070000D02*
X222734000Y-115214000D01*
X223895000Y-121328000D02*
X223895000Y-119150000D01*
X221734000Y-120247000D02*
X221734000Y-115973000D01*
X223575000Y-117070000D02*
X223575000Y-114935000D01*
X223334000Y-121231000D02*
X223334000Y-119150000D01*
X221134000Y-119275000D02*
X221134000Y-116945000D01*
X223615000Y-121292000D02*
X223615000Y-119150000D01*
X223214000Y-117070000D02*
X223214000Y-115024000D01*
X224175000Y-121340000D02*
X224175000Y-114880000D01*
X222854000Y-117070000D02*
X222854000Y-115158000D01*
X221414000Y-119824000D02*
X221414000Y-116396000D01*
X223935000Y-117070000D02*
X223935000Y-114888000D01*
X223735000Y-117070000D02*
X223735000Y-114909000D01*
X221294000Y-119619000D02*
X221294000Y-116601000D01*
X222494000Y-120876000D02*
X222494000Y-119150000D01*
X223054000Y-117070000D02*
X223054000Y-115077000D01*
X223775000Y-117070000D02*
X223775000Y-114904000D01*
X221454000Y-119886000D02*
X221454000Y-116334000D01*
X223815000Y-121321000D02*
X223815000Y-119150000D01*
X222374000Y-117070000D02*
X222374000Y-115420000D01*
X222054000Y-120560000D02*
X222054000Y-119150000D01*
X222294000Y-117070000D02*
X222294000Y-115474000D01*
X222694000Y-120986000D02*
X222694000Y-119150000D01*
X222734000Y-121006000D02*
X222734000Y-119150000D01*
X223174000Y-121184000D02*
X223174000Y-119150000D01*
X223254000Y-117070000D02*
X223254000Y-115012000D01*
X221014000Y-118912000D02*
X221014000Y-117308000D01*
X222934000Y-117070000D02*
X222934000Y-115124000D01*
X223374000Y-117070000D02*
X223374000Y-114979000D01*
X222414000Y-117070000D02*
X222414000Y-115394000D01*
X224055000Y-121338000D02*
X224055000Y-114882000D01*
X222894000Y-117070000D02*
X222894000Y-115140000D01*
X222494000Y-117070000D02*
X222494000Y-115344000D01*
X222974000Y-121112000D02*
X222974000Y-119150000D01*
X221374000Y-119760000D02*
X221374000Y-116460000D01*
X221894000Y-117070000D02*
X221894000Y-115805000D01*
X227360241Y-120264000D02*
X227360241Y-119634000D01*
X223655000Y-117070000D02*
X223655000Y-114921000D01*
X221814000Y-120334000D02*
X221814000Y-115886000D01*
X221974000Y-120490000D02*
X221974000Y-119150000D01*
X221174000Y-119372000D02*
X221174000Y-116848000D01*
X223935000Y-121332000D02*
X223935000Y-119150000D01*
X222374000Y-120800000D02*
X222374000Y-119150000D01*
X224095000Y-121340000D02*
X224095000Y-114880000D01*
X223054000Y-121143000D02*
X223054000Y-119150000D01*
X223615000Y-117070000D02*
X223615000Y-114928000D01*
X222774000Y-117070000D02*
X222774000Y-115194000D01*
X223014000Y-117070000D02*
X223014000Y-115092000D01*
X223134000Y-121171000D02*
X223134000Y-119150000D01*
X222214000Y-120688000D02*
X222214000Y-119150000D01*
X222654000Y-117070000D02*
X222654000Y-115254000D01*
X221934000Y-120453000D02*
X221934000Y-119150000D01*
X223174000Y-117070000D02*
X223174000Y-115036000D01*
X223495000Y-121269000D02*
X223495000Y-119150000D01*
X222974000Y-117070000D02*
X222974000Y-115108000D01*
X223294000Y-121220000D02*
X223294000Y-119150000D01*
X222014000Y-117070000D02*
X222014000Y-115694000D01*
X223454000Y-121260000D02*
X223454000Y-119150000D01*
X221934000Y-117070000D02*
X221934000Y-115767000D01*
X223975000Y-121334000D02*
X223975000Y-114886000D01*
X223535000Y-121277000D02*
X223535000Y-119150000D01*
X223454000Y-117070000D02*
X223454000Y-114960000D01*
X222174000Y-120658000D02*
X222174000Y-119150000D01*
X223855000Y-121325000D02*
X223855000Y-119150000D01*
X223294000Y-117070000D02*
X223294000Y-115000000D01*
X221254000Y-119542000D02*
X221254000Y-116678000D01*
X220934000Y-118512000D02*
X220934000Y-117708000D01*
X222334000Y-120774000D02*
X222334000Y-119150000D01*
X222254000Y-120717000D02*
X222254000Y-119150000D01*
X223815000Y-117070000D02*
X223815000Y-114899000D01*
X222614000Y-117070000D02*
X222614000Y-115276000D01*
X222774000Y-121026000D02*
X222774000Y-119150000D01*
X222294000Y-120746000D02*
X222294000Y-119150000D01*
X222454000Y-120852000D02*
X222454000Y-119150000D01*
X222814000Y-117070000D02*
X222814000Y-115176000D01*
X223094000Y-121157000D02*
X223094000Y-119150000D01*
X222894000Y-121080000D02*
X222894000Y-119150000D01*
X221694000Y-120202000D02*
X221694000Y-116018000D01*
X222054000Y-117070000D02*
X222054000Y-115660000D01*
X222574000Y-120922000D02*
X222574000Y-119150000D01*
X223414000Y-121251000D02*
X223414000Y-119150000D01*
X227675241Y-119949000D02*
X227045241Y-119949000D01*
X221894000Y-120415000D02*
X221894000Y-119150000D01*
X222574000Y-117070000D02*
X222574000Y-115298000D01*
X221534000Y-120000000D02*
X221534000Y-116220000D01*
X223214000Y-121196000D02*
X223214000Y-119150000D01*
X224015000Y-121337000D02*
X224015000Y-114883000D01*
X223334000Y-117070000D02*
X223334000Y-114989000D01*
X220974000Y-118743000D02*
X220974000Y-117477000D01*
X223414000Y-117070000D02*
X223414000Y-114969000D01*
X223735000Y-121311000D02*
X223735000Y-119150000D01*
X222094000Y-120594000D02*
X222094000Y-119150000D01*
X223535000Y-117070000D02*
X223535000Y-114943000D01*
X222694000Y-117070000D02*
X222694000Y-115234000D01*
X222094000Y-117070000D02*
X222094000Y-115626000D01*
X222334000Y-117070000D02*
X222334000Y-115446000D01*
X222614000Y-120944000D02*
X222614000Y-119150000D01*
X223254000Y-121208000D02*
X223254000Y-119150000D01*
X222934000Y-121096000D02*
X222934000Y-119150000D01*
X221654000Y-120154000D02*
X221654000Y-116066000D01*
X221054000Y-119050000D02*
X221054000Y-117170000D01*
X222654000Y-120966000D02*
X222654000Y-119150000D01*
X221574000Y-120054000D02*
X221574000Y-116166000D01*
X223695000Y-117070000D02*
X223695000Y-114915000D01*
X222854000Y-121062000D02*
X222854000Y-119150000D01*
X222414000Y-120826000D02*
X222414000Y-119150000D01*
X223855000Y-117070000D02*
X223855000Y-114895000D01*
X221494000Y-119944000D02*
X221494000Y-116276000D01*
X221774000Y-120292000D02*
X221774000Y-115928000D01*
X222174000Y-117070000D02*
X222174000Y-115562000D01*
X223695000Y-121305000D02*
X223695000Y-119150000D01*
X222254000Y-117070000D02*
X222254000Y-115503000D01*
X223495000Y-117070000D02*
X223495000Y-114951000D01*
X222014000Y-120526000D02*
X222014000Y-119150000D01*
X223655000Y-121299000D02*
X223655000Y-119150000D01*
X221094000Y-119169000D02*
X221094000Y-117051000D01*
X222134000Y-120626000D02*
X222134000Y-119150000D01*
X221854000Y-120375000D02*
X221854000Y-115845000D01*
X222534000Y-117070000D02*
X222534000Y-115320000D01*
X227445000Y-118110000D02*
G75*
G03*
X227445000Y-118110000I-3270000J0D01*
G01*
%TO.C,C10*%
X238660000Y-109120000D02*
X243900000Y-109120000D01*
X243900000Y-109120000D02*
X243900000Y-111860000D01*
X238660000Y-109120000D02*
X238660000Y-111860000D01*
X238660000Y-111860000D02*
X243900000Y-111860000D01*
%TO.C,C7*%
X167764000Y-140485000D02*
X167764000Y-138835000D01*
X167604000Y-136755000D02*
X167604000Y-135217000D01*
X172750241Y-139949000D02*
X172750241Y-139319000D01*
X169325000Y-136755000D02*
X169325000Y-134573000D01*
X169285000Y-141013000D02*
X169285000Y-138835000D01*
X169445000Y-141023000D02*
X169445000Y-134567000D01*
X167044000Y-139839000D02*
X167044000Y-135751000D01*
X168925000Y-140962000D02*
X168925000Y-138835000D01*
X169325000Y-141017000D02*
X169325000Y-138835000D01*
X168644000Y-140893000D02*
X168644000Y-138835000D01*
X168724000Y-136755000D02*
X168724000Y-134674000D01*
X167204000Y-140019000D02*
X167204000Y-135571000D01*
X167524000Y-136755000D02*
X167524000Y-135279000D01*
X166564000Y-139057000D02*
X166564000Y-136533000D01*
X168324000Y-136755000D02*
X168324000Y-134809000D01*
X168444000Y-136755000D02*
X168444000Y-134762000D01*
X167564000Y-140343000D02*
X167564000Y-138835000D01*
X168764000Y-140926000D02*
X168764000Y-138835000D01*
X167364000Y-140175000D02*
X167364000Y-138835000D01*
X168124000Y-136755000D02*
X168124000Y-134899000D01*
X166724000Y-139376000D02*
X166724000Y-136214000D01*
X167484000Y-136755000D02*
X167484000Y-135311000D01*
X168564000Y-136755000D02*
X168564000Y-134721000D01*
X168885000Y-140954000D02*
X168885000Y-138835000D01*
X167844000Y-140537000D02*
X167844000Y-138835000D01*
X166764000Y-139445000D02*
X166764000Y-136145000D01*
X168004000Y-136755000D02*
X168004000Y-134961000D01*
X166884000Y-139629000D02*
X166884000Y-135961000D01*
X169565000Y-141025000D02*
X169565000Y-134565000D01*
X169085000Y-136755000D02*
X169085000Y-134600000D01*
X167404000Y-136755000D02*
X167404000Y-135379000D01*
X169125000Y-140996000D02*
X169125000Y-138835000D01*
X169205000Y-136755000D02*
X169205000Y-134584000D01*
X167644000Y-136755000D02*
X167644000Y-135188000D01*
X166844000Y-139571000D02*
X166844000Y-136019000D01*
X168484000Y-140842000D02*
X168484000Y-138835000D01*
X167164000Y-139977000D02*
X167164000Y-135613000D01*
X168764000Y-136755000D02*
X168764000Y-134664000D01*
X168684000Y-140905000D02*
X168684000Y-138835000D01*
X167404000Y-140211000D02*
X167404000Y-138835000D01*
X169005000Y-140977000D02*
X169005000Y-138835000D01*
X168804000Y-136755000D02*
X168804000Y-134654000D01*
X167324000Y-136755000D02*
X167324000Y-135452000D01*
X166964000Y-139739000D02*
X166964000Y-135851000D01*
X168524000Y-140856000D02*
X168524000Y-138835000D01*
X169085000Y-140990000D02*
X169085000Y-138835000D01*
X167284000Y-140100000D02*
X167284000Y-138835000D01*
X168604000Y-136755000D02*
X168604000Y-134709000D01*
X167564000Y-136755000D02*
X167564000Y-135247000D01*
X167004000Y-139790000D02*
X167004000Y-135800000D01*
X168844000Y-140945000D02*
X168844000Y-138835000D01*
X166524000Y-138960000D02*
X166524000Y-136630000D01*
X168004000Y-140629000D02*
X168004000Y-138835000D01*
X168644000Y-136755000D02*
X168644000Y-134697000D01*
X169485000Y-141025000D02*
X169485000Y-134565000D01*
X168484000Y-136755000D02*
X168484000Y-134748000D01*
X168084000Y-136755000D02*
X168084000Y-134919000D01*
X168965000Y-140970000D02*
X168965000Y-138835000D01*
X173065241Y-139634000D02*
X172435241Y-139634000D01*
X166324000Y-138197000D02*
X166324000Y-137393000D01*
X168044000Y-140651000D02*
X168044000Y-138835000D01*
X167804000Y-136755000D02*
X167804000Y-135079000D01*
X166364000Y-138428000D02*
X166364000Y-137162000D01*
X169245000Y-136755000D02*
X169245000Y-134580000D01*
X168804000Y-140936000D02*
X168804000Y-138835000D01*
X167964000Y-136755000D02*
X167964000Y-134983000D01*
X168284000Y-140765000D02*
X168284000Y-138835000D01*
X169405000Y-141022000D02*
X169405000Y-134568000D01*
X168844000Y-136755000D02*
X168844000Y-134645000D01*
X167964000Y-140607000D02*
X167964000Y-138835000D01*
X168564000Y-140869000D02*
X168564000Y-138835000D01*
X167284000Y-136755000D02*
X167284000Y-135490000D01*
X167444000Y-140245000D02*
X167444000Y-138835000D01*
X169525000Y-141025000D02*
X169525000Y-134565000D01*
X167924000Y-140585000D02*
X167924000Y-138835000D01*
X169045000Y-140984000D02*
X169045000Y-138835000D01*
X168444000Y-140828000D02*
X168444000Y-138835000D01*
X169205000Y-141006000D02*
X169205000Y-138835000D01*
X167924000Y-136755000D02*
X167924000Y-135005000D01*
X168965000Y-136755000D02*
X168965000Y-134620000D01*
X166444000Y-138735000D02*
X166444000Y-136855000D01*
X167884000Y-136755000D02*
X167884000Y-135029000D01*
X168124000Y-140691000D02*
X168124000Y-138835000D01*
X168244000Y-136755000D02*
X168244000Y-134843000D01*
X167724000Y-140459000D02*
X167724000Y-138835000D01*
X168204000Y-140729000D02*
X168204000Y-138835000D01*
X168404000Y-140813000D02*
X168404000Y-138835000D01*
X169245000Y-141010000D02*
X169245000Y-138835000D01*
X167444000Y-136755000D02*
X167444000Y-135345000D01*
X166604000Y-139145000D02*
X166604000Y-136445000D01*
X167484000Y-140279000D02*
X167484000Y-138835000D01*
X167124000Y-139932000D02*
X167124000Y-135658000D01*
X167804000Y-140511000D02*
X167804000Y-138835000D01*
X168684000Y-136755000D02*
X168684000Y-134685000D01*
X167644000Y-140402000D02*
X167644000Y-138835000D01*
X168284000Y-136755000D02*
X168284000Y-134825000D01*
X167684000Y-140431000D02*
X167684000Y-138835000D01*
X167524000Y-140311000D02*
X167524000Y-138835000D01*
X167684000Y-136755000D02*
X167684000Y-135159000D01*
X167844000Y-136755000D02*
X167844000Y-135053000D01*
X168164000Y-140711000D02*
X168164000Y-138835000D01*
X167244000Y-140060000D02*
X167244000Y-135530000D01*
X168925000Y-136755000D02*
X168925000Y-134628000D01*
X169005000Y-136755000D02*
X169005000Y-134613000D01*
X166484000Y-138854000D02*
X166484000Y-136736000D01*
X168204000Y-136755000D02*
X168204000Y-134861000D01*
X169365000Y-141019000D02*
X169365000Y-134571000D01*
X167724000Y-136755000D02*
X167724000Y-135131000D01*
X168404000Y-136755000D02*
X168404000Y-134777000D01*
X167604000Y-140373000D02*
X167604000Y-138835000D01*
X167884000Y-140561000D02*
X167884000Y-138835000D01*
X169285000Y-136755000D02*
X169285000Y-134577000D01*
X167764000Y-136755000D02*
X167764000Y-135105000D01*
X169165000Y-136755000D02*
X169165000Y-134589000D01*
X166404000Y-138597000D02*
X166404000Y-136993000D01*
X166684000Y-139304000D02*
X166684000Y-136286000D01*
X168364000Y-140797000D02*
X168364000Y-138835000D01*
X168084000Y-140671000D02*
X168084000Y-138835000D01*
X168724000Y-140916000D02*
X168724000Y-138835000D01*
X169125000Y-136755000D02*
X169125000Y-134594000D01*
X168164000Y-136755000D02*
X168164000Y-134879000D01*
X166924000Y-139685000D02*
X166924000Y-135905000D01*
X168244000Y-140747000D02*
X168244000Y-138835000D01*
X167364000Y-136755000D02*
X167364000Y-135415000D01*
X168364000Y-136755000D02*
X168364000Y-134793000D01*
X168044000Y-136755000D02*
X168044000Y-134939000D01*
X168604000Y-140881000D02*
X168604000Y-138835000D01*
X169045000Y-136755000D02*
X169045000Y-134606000D01*
X166644000Y-139227000D02*
X166644000Y-136363000D01*
X168324000Y-140781000D02*
X168324000Y-138835000D01*
X168885000Y-136755000D02*
X168885000Y-134636000D01*
X168524000Y-136755000D02*
X168524000Y-134734000D01*
X169165000Y-141001000D02*
X169165000Y-138835000D01*
X166804000Y-139509000D02*
X166804000Y-136081000D01*
X167084000Y-139887000D02*
X167084000Y-135703000D01*
X167324000Y-140138000D02*
X167324000Y-138835000D01*
X172835000Y-137795000D02*
G75*
G03*
X172835000Y-137795000I-3270000J0D01*
G01*
%TO.C,C6*%
X181291000Y-138661000D02*
X179475000Y-138661000D01*
X181269000Y-138701000D02*
X179475000Y-138701000D01*
X177395000Y-139341000D02*
X176055000Y-139341000D01*
X180885000Y-139261000D02*
X179475000Y-139261000D01*
X181630000Y-137620000D02*
X179475000Y-137620000D01*
X180740000Y-139421000D02*
X179475000Y-139421000D01*
X179944000Y-140021000D02*
X176926000Y-140021000D01*
X177395000Y-139261000D02*
X175985000Y-139261000D01*
X177395000Y-137780000D02*
X175268000Y-137780000D01*
X177395000Y-137820000D02*
X175276000Y-137820000D01*
X180589000Y-133954759D02*
X179959000Y-133954759D01*
X177395000Y-138861000D02*
X175693000Y-138861000D01*
X181636000Y-137580000D02*
X179475000Y-137580000D01*
X180527000Y-139621000D02*
X176343000Y-139621000D01*
X177395000Y-137580000D02*
X175234000Y-137580000D01*
X181496000Y-138181000D02*
X179475000Y-138181000D01*
X181351000Y-138541000D02*
X179475000Y-138541000D01*
X180572000Y-139581000D02*
X176298000Y-139581000D01*
X181602000Y-137780000D02*
X179475000Y-137780000D01*
X179068000Y-140341000D02*
X177802000Y-140341000D01*
X180325000Y-139781000D02*
X176545000Y-139781000D01*
X177395000Y-138581000D02*
X175539000Y-138581000D01*
X181421000Y-138381000D02*
X179475000Y-138381000D01*
X181650000Y-137460000D02*
X179475000Y-137460000D01*
X181662000Y-137300000D02*
X175208000Y-137300000D01*
X179600000Y-140181000D02*
X177270000Y-140181000D01*
X180919000Y-139221000D02*
X179475000Y-139221000D01*
X181509000Y-138141000D02*
X179475000Y-138141000D01*
X177395000Y-139421000D02*
X176130000Y-139421000D01*
X177395000Y-138461000D02*
X175483000Y-138461000D01*
X181641000Y-137540000D02*
X179475000Y-137540000D01*
X181405000Y-138421000D02*
X179475000Y-138421000D01*
X181437000Y-138341000D02*
X179475000Y-138341000D01*
X180274000Y-133639759D02*
X180274000Y-134269759D01*
X177395000Y-138141000D02*
X175361000Y-138141000D01*
X181665000Y-137140000D02*
X175205000Y-137140000D01*
X177395000Y-138061000D02*
X175337000Y-138061000D01*
X181533000Y-138061000D02*
X179475000Y-138061000D01*
X179375000Y-140261000D02*
X177495000Y-140261000D01*
X179785000Y-140101000D02*
X177085000Y-140101000D01*
X177395000Y-138181000D02*
X175374000Y-138181000D01*
X181576000Y-137901000D02*
X179475000Y-137901000D01*
X180430000Y-139701000D02*
X176440000Y-139701000D01*
X181545000Y-138021000D02*
X179475000Y-138021000D01*
X181585000Y-137861000D02*
X179475000Y-137861000D01*
X181369000Y-138501000D02*
X179475000Y-138501000D01*
X181556000Y-137981000D02*
X179475000Y-137981000D01*
X177395000Y-139021000D02*
X175799000Y-139021000D01*
X177395000Y-137700000D02*
X175253000Y-137700000D01*
X177395000Y-139141000D02*
X175887000Y-139141000D01*
X179237000Y-140301000D02*
X177633000Y-140301000D01*
X177395000Y-137861000D02*
X175285000Y-137861000D01*
X180016000Y-139981000D02*
X176854000Y-139981000D01*
X177395000Y-137941000D02*
X175304000Y-137941000D01*
X177395000Y-137981000D02*
X175314000Y-137981000D01*
X177395000Y-137620000D02*
X175240000Y-137620000D01*
X181177000Y-138861000D02*
X179475000Y-138861000D01*
X181617000Y-137700000D02*
X179475000Y-137700000D01*
X180479000Y-139661000D02*
X176391000Y-139661000D01*
X177395000Y-138541000D02*
X175519000Y-138541000D01*
X181468000Y-138261000D02*
X179475000Y-138261000D01*
X177395000Y-138621000D02*
X175559000Y-138621000D01*
X181624000Y-137660000D02*
X179475000Y-137660000D01*
X177395000Y-138901000D02*
X175719000Y-138901000D01*
X177395000Y-139301000D02*
X176019000Y-139301000D01*
X177395000Y-138741000D02*
X175623000Y-138741000D01*
X181311000Y-138621000D02*
X179475000Y-138621000D01*
X181610000Y-137740000D02*
X179475000Y-137740000D01*
X177395000Y-138301000D02*
X175417000Y-138301000D01*
X180815000Y-139341000D02*
X179475000Y-139341000D01*
X181071000Y-139021000D02*
X179475000Y-139021000D01*
X180269000Y-139821000D02*
X176601000Y-139821000D01*
X177395000Y-139181000D02*
X175919000Y-139181000D01*
X181247000Y-138741000D02*
X179475000Y-138741000D01*
X177395000Y-137420000D02*
X175217000Y-137420000D01*
X180659000Y-139501000D02*
X176211000Y-139501000D01*
X181653000Y-137420000D02*
X179475000Y-137420000D01*
X177395000Y-138421000D02*
X175465000Y-138421000D01*
X181013000Y-139101000D02*
X179475000Y-139101000D01*
X181453000Y-138301000D02*
X179475000Y-138301000D01*
X177395000Y-138701000D02*
X175601000Y-138701000D01*
X178837000Y-140381000D02*
X178033000Y-140381000D01*
X181387000Y-138461000D02*
X179475000Y-138461000D01*
X177395000Y-138981000D02*
X175771000Y-138981000D01*
X177395000Y-137540000D02*
X175229000Y-137540000D01*
X181331000Y-138581000D02*
X179475000Y-138581000D01*
X180851000Y-139301000D02*
X179475000Y-139301000D01*
X180211000Y-139861000D02*
X176659000Y-139861000D01*
X180149000Y-139901000D02*
X176721000Y-139901000D01*
X181663000Y-137260000D02*
X175207000Y-137260000D01*
X180951000Y-139181000D02*
X179475000Y-139181000D01*
X177395000Y-138941000D02*
X175745000Y-138941000D01*
X177395000Y-137380000D02*
X175213000Y-137380000D01*
X179697000Y-140141000D02*
X177173000Y-140141000D01*
X177395000Y-139101000D02*
X175857000Y-139101000D01*
X181521000Y-138101000D02*
X179475000Y-138101000D01*
X177395000Y-137500000D02*
X175224000Y-137500000D01*
X177395000Y-138661000D02*
X175579000Y-138661000D01*
X177395000Y-137740000D02*
X175260000Y-137740000D01*
X180778000Y-139381000D02*
X179475000Y-139381000D01*
X181657000Y-137380000D02*
X179475000Y-137380000D01*
X181566000Y-137941000D02*
X179475000Y-137941000D01*
X181125000Y-138941000D02*
X179475000Y-138941000D01*
X177395000Y-138101000D02*
X175349000Y-138101000D01*
X177395000Y-139381000D02*
X176092000Y-139381000D01*
X181665000Y-137180000D02*
X175205000Y-137180000D01*
X181482000Y-138221000D02*
X179475000Y-138221000D01*
X181099000Y-138981000D02*
X179475000Y-138981000D01*
X180700000Y-139461000D02*
X176170000Y-139461000D01*
X180085000Y-139941000D02*
X176785000Y-139941000D01*
X177395000Y-139221000D02*
X175951000Y-139221000D01*
X177395000Y-138501000D02*
X175501000Y-138501000D01*
X180379000Y-139741000D02*
X176491000Y-139741000D01*
X179494000Y-140221000D02*
X177376000Y-140221000D01*
X177395000Y-137660000D02*
X175246000Y-137660000D01*
X177395000Y-139061000D02*
X175828000Y-139061000D01*
X177395000Y-138221000D02*
X175388000Y-138221000D01*
X181225000Y-138781000D02*
X179475000Y-138781000D01*
X177395000Y-138381000D02*
X175449000Y-138381000D01*
X179867000Y-140061000D02*
X177003000Y-140061000D01*
X181201000Y-138821000D02*
X179475000Y-138821000D01*
X181646000Y-137500000D02*
X179475000Y-137500000D01*
X177395000Y-138261000D02*
X175402000Y-138261000D01*
X180983000Y-139141000D02*
X179475000Y-139141000D01*
X181042000Y-139061000D02*
X179475000Y-139061000D01*
X181659000Y-137340000D02*
X175211000Y-137340000D01*
X181151000Y-138901000D02*
X179475000Y-138901000D01*
X177395000Y-138341000D02*
X175433000Y-138341000D01*
X177395000Y-138821000D02*
X175669000Y-138821000D01*
X177395000Y-138021000D02*
X175325000Y-138021000D01*
X181665000Y-137220000D02*
X175205000Y-137220000D01*
X180617000Y-139541000D02*
X176253000Y-139541000D01*
X181594000Y-137820000D02*
X179475000Y-137820000D01*
X177395000Y-137901000D02*
X175294000Y-137901000D01*
X177395000Y-138781000D02*
X175645000Y-138781000D01*
X177395000Y-137460000D02*
X175220000Y-137460000D01*
X181705000Y-137140000D02*
G75*
G03*
X181705000Y-137140000I-3270000J0D01*
G01*
%TO.C,J5*%
X208030000Y-114144338D02*
X208280000Y-113711325D01*
X187255000Y-113250000D02*
X187255000Y-105410000D01*
X218225000Y-113250000D02*
X187255000Y-113250000D01*
X218225000Y-105410000D02*
X218225000Y-113250000D01*
X208280000Y-113711325D02*
X208530000Y-114144338D01*
X208530000Y-114144338D02*
X208030000Y-114144338D01*
%TO.C,U1*%
X229820000Y-134730000D02*
X240100000Y-134730000D01*
X232310000Y-114230000D02*
X232310000Y-134670000D01*
X240100000Y-134730000D02*
X240100000Y-114170000D01*
X233960000Y-114230000D02*
X232310000Y-114230000D01*
X240100000Y-114170000D02*
X229820000Y-114170000D01*
X232310000Y-134670000D02*
X237610000Y-134670000D01*
X237610000Y-134670000D02*
X237610000Y-114230000D01*
X229820000Y-114170000D02*
X229820000Y-134730000D01*
X237610000Y-114230000D02*
X235960000Y-114230000D01*
X233960000Y-114230000D02*
G75*
G03*
X235960000Y-114230000I1000000J0D01*
G01*
%TO.C,J4*%
X178695000Y-107472071D02*
X178695000Y-107075000D01*
X176915000Y-107472071D02*
X176915000Y-107075000D01*
X170185000Y-109785000D02*
X170185000Y-108515000D01*
X173615000Y-107472071D02*
X173615000Y-107075000D01*
X174375000Y-107472071D02*
X174375000Y-107075000D01*
X181235000Y-107472071D02*
X181235000Y-107075000D01*
X182945000Y-107075000D02*
X182945000Y-104415000D01*
X176155000Y-107472071D02*
X176155000Y-107075000D01*
X171835000Y-107405000D02*
X171835000Y-107075000D01*
X172725000Y-107075000D02*
X172725000Y-104415000D01*
X177805000Y-107075000D02*
X177805000Y-104415000D01*
X181995000Y-107472071D02*
X181995000Y-107075000D01*
X170125000Y-107075000D02*
X182945000Y-107075000D01*
X171455000Y-109785000D02*
X170185000Y-109785000D01*
X179455000Y-107472071D02*
X179455000Y-107075000D01*
X182945000Y-104415000D02*
X170125000Y-104415000D01*
X175265000Y-107075000D02*
X175265000Y-104415000D01*
X170125000Y-104415000D02*
X170125000Y-107075000D01*
X180345000Y-107075000D02*
X180345000Y-104415000D01*
X171075000Y-107405000D02*
X171075000Y-107075000D01*
%TO.C,U2*%
X195640000Y-126880000D02*
X185360000Y-126880000D01*
X185360000Y-126880000D02*
X185360000Y-147440000D01*
X193150000Y-147380000D02*
X193150000Y-126940000D01*
X187850000Y-147380000D02*
X193150000Y-147380000D01*
X189500000Y-126940000D02*
X187850000Y-126940000D01*
X185360000Y-147440000D02*
X195640000Y-147440000D01*
X187850000Y-126940000D02*
X187850000Y-147380000D01*
X195640000Y-147440000D02*
X195640000Y-126880000D01*
X193150000Y-126940000D02*
X191500000Y-126940000D01*
X189500000Y-126940000D02*
G75*
G03*
X191500000Y-126940000I1000000J0D01*
G01*
%TO.C,C2*%
X218054000Y-121342380D02*
X217424000Y-121342380D01*
X218834000Y-125888621D02*
X216940000Y-125888621D01*
X218712000Y-126128621D02*
X216940000Y-126128621D01*
X214860000Y-125648621D02*
X212867000Y-125648621D01*
X214860000Y-126168621D02*
X213110000Y-126168621D01*
X214860000Y-125688621D02*
X212882000Y-125688621D01*
X214860000Y-126448621D02*
X213293000Y-126448621D01*
X218961000Y-125568621D02*
X216940000Y-125568621D01*
X214860000Y-124847621D02*
X212685000Y-124847621D01*
X216533000Y-127728621D02*
X215267000Y-127728621D01*
X217739000Y-121027380D02*
X217739000Y-121657380D01*
X218870000Y-125808621D02*
X216940000Y-125808621D01*
X214860000Y-126368621D02*
X213236000Y-126368621D01*
X214860000Y-126048621D02*
X213044000Y-126048621D01*
X219095000Y-125007621D02*
X216940000Y-125007621D01*
X218902000Y-125728621D02*
X216940000Y-125728621D01*
X218316000Y-126688621D02*
X216940000Y-126688621D01*
X214860000Y-125288621D02*
X212759000Y-125288621D01*
X217481000Y-127368621D02*
X214319000Y-127368621D01*
X214860000Y-125968621D02*
X213004000Y-125968621D01*
X217992000Y-127008621D02*
X213808000Y-127008621D01*
X218564000Y-126368621D02*
X216940000Y-126368621D01*
X219130000Y-124527621D02*
X212670000Y-124527621D01*
X218590000Y-126328621D02*
X216940000Y-126328621D01*
X214860000Y-126568621D02*
X213384000Y-126568621D01*
X218918000Y-125688621D02*
X216940000Y-125688621D01*
X219021000Y-125368621D02*
X216940000Y-125368621D01*
X214860000Y-126088621D02*
X213066000Y-126088621D01*
X219067000Y-125167621D02*
X216940000Y-125167621D01*
X214860000Y-126608621D02*
X213416000Y-126608621D01*
X218384000Y-126608621D02*
X216940000Y-126608621D01*
X217944000Y-127048621D02*
X213856000Y-127048621D01*
X218243000Y-126768621D02*
X216940000Y-126768621D01*
X219082000Y-125087621D02*
X216940000Y-125087621D01*
X214860000Y-125568621D02*
X212839000Y-125568621D01*
X219010000Y-125408621D02*
X216940000Y-125408621D01*
X214860000Y-126128621D02*
X213088000Y-126128621D01*
X218416000Y-126568621D02*
X216940000Y-126568621D01*
X214860000Y-125328621D02*
X212769000Y-125328621D01*
X214860000Y-125167621D02*
X212733000Y-125167621D01*
X219059000Y-125207621D02*
X216940000Y-125207621D01*
X214860000Y-125848621D02*
X212948000Y-125848621D01*
X219122000Y-124767621D02*
X216940000Y-124767621D01*
X214860000Y-125608621D02*
X212853000Y-125608621D01*
X218933000Y-125648621D02*
X216940000Y-125648621D01*
X219041000Y-125288621D02*
X216940000Y-125288621D01*
X219101000Y-124967621D02*
X216940000Y-124967621D01*
X214860000Y-124887621D02*
X212689000Y-124887621D01*
X218124000Y-126888621D02*
X213676000Y-126888621D01*
X219115000Y-124847621D02*
X216940000Y-124847621D01*
X214860000Y-124807621D02*
X212682000Y-124807621D01*
X219050000Y-125248621D02*
X216940000Y-125248621D01*
X217409000Y-127408621D02*
X214391000Y-127408621D01*
X214860000Y-125928621D02*
X212984000Y-125928621D01*
X219124000Y-124727621D02*
X212676000Y-124727621D01*
X214860000Y-124967621D02*
X212699000Y-124967621D01*
X214860000Y-126488621D02*
X213322000Y-126488621D01*
X214860000Y-125408621D02*
X212790000Y-125408621D01*
X218816000Y-125928621D02*
X216940000Y-125928621D01*
X214860000Y-125248621D02*
X212750000Y-125248621D01*
X217614000Y-127288621D02*
X214186000Y-127288621D01*
X218642000Y-126248621D02*
X216940000Y-126248621D01*
X217250000Y-127488621D02*
X214550000Y-127488621D01*
X218205000Y-126808621D02*
X216940000Y-126808621D01*
X218947000Y-125608621D02*
X216940000Y-125608621D01*
X214860000Y-126528621D02*
X213352000Y-126528621D01*
X219075000Y-125127621D02*
X216940000Y-125127621D01*
X218690000Y-126168621D02*
X216940000Y-126168621D01*
X214860000Y-125768621D02*
X212914000Y-125768621D01*
X218280000Y-126728621D02*
X216940000Y-126728621D01*
X214860000Y-126008621D02*
X213024000Y-126008621D01*
X214860000Y-126768621D02*
X213557000Y-126768621D01*
X214860000Y-125007621D02*
X212705000Y-125007621D01*
X218666000Y-126208621D02*
X216940000Y-126208621D01*
X219127000Y-124687621D02*
X212673000Y-124687621D01*
X214860000Y-125047621D02*
X212711000Y-125047621D01*
X218448000Y-126528621D02*
X216940000Y-126528621D01*
X218998000Y-125448621D02*
X216940000Y-125448621D01*
X216302000Y-127768621D02*
X215498000Y-127768621D01*
X218536000Y-126408621D02*
X216940000Y-126408621D01*
X217844000Y-127128621D02*
X213956000Y-127128621D01*
X219031000Y-125328621D02*
X216940000Y-125328621D01*
X217162000Y-127528621D02*
X214638000Y-127528621D01*
X218986000Y-125488621D02*
X216940000Y-125488621D01*
X219128000Y-124647621D02*
X212672000Y-124647621D01*
X217734000Y-127208621D02*
X214066000Y-127208621D01*
X217790000Y-127168621D02*
X214010000Y-127168621D01*
X214860000Y-126328621D02*
X213210000Y-126328621D01*
X214860000Y-125808621D02*
X212930000Y-125808621D01*
X214860000Y-125207621D02*
X212741000Y-125207621D01*
X218974000Y-125528621D02*
X216940000Y-125528621D01*
X214860000Y-125368621D02*
X212779000Y-125368621D01*
X214860000Y-126248621D02*
X213158000Y-126248621D01*
X219089000Y-125047621D02*
X216940000Y-125047621D01*
X218350000Y-126648621D02*
X216940000Y-126648621D01*
X219130000Y-124607621D02*
X212670000Y-124607621D01*
X218165000Y-126848621D02*
X213635000Y-126848621D01*
X219118000Y-124807621D02*
X216940000Y-124807621D01*
X214860000Y-124767621D02*
X212678000Y-124767621D01*
X218478000Y-126488621D02*
X216940000Y-126488621D01*
X214860000Y-125127621D02*
X212725000Y-125127621D01*
X216702000Y-127688621D02*
X215098000Y-127688621D01*
X218037000Y-126968621D02*
X213763000Y-126968621D01*
X216959000Y-127608621D02*
X214841000Y-127608621D01*
X214860000Y-125528621D02*
X212826000Y-125528621D01*
X218852000Y-125848621D02*
X216940000Y-125848621D01*
X214860000Y-125087621D02*
X212718000Y-125087621D01*
X218507000Y-126448621D02*
X216940000Y-126448621D01*
X214860000Y-126208621D02*
X213134000Y-126208621D01*
X218616000Y-126288621D02*
X216940000Y-126288621D01*
X217332000Y-127448621D02*
X214468000Y-127448621D01*
X214860000Y-125728621D02*
X212898000Y-125728621D01*
X214860000Y-125888621D02*
X212966000Y-125888621D01*
X218796000Y-125968621D02*
X216940000Y-125968621D01*
X214860000Y-126408621D02*
X213264000Y-126408621D01*
X216840000Y-127648621D02*
X214960000Y-127648621D01*
X218776000Y-126008621D02*
X216940000Y-126008621D01*
X219111000Y-124887621D02*
X216940000Y-124887621D01*
X214860000Y-126728621D02*
X213520000Y-126728621D01*
X217676000Y-127248621D02*
X214124000Y-127248621D01*
X214860000Y-126688621D02*
X213484000Y-126688621D01*
X218756000Y-126048621D02*
X216940000Y-126048621D01*
X218082000Y-126928621D02*
X213718000Y-126928621D01*
X217065000Y-127568621D02*
X214735000Y-127568621D01*
X217550000Y-127328621D02*
X214250000Y-127328621D01*
X217895000Y-127088621D02*
X213905000Y-127088621D01*
X214860000Y-125488621D02*
X212814000Y-125488621D01*
X214860000Y-126288621D02*
X213184000Y-126288621D01*
X219106000Y-124927621D02*
X216940000Y-124927621D01*
X214860000Y-125448621D02*
X212802000Y-125448621D01*
X214860000Y-126808621D02*
X213595000Y-126808621D01*
X218734000Y-126088621D02*
X216940000Y-126088621D01*
X214860000Y-124927621D02*
X212694000Y-124927621D01*
X214860000Y-126648621D02*
X213450000Y-126648621D01*
X218886000Y-125768621D02*
X216940000Y-125768621D01*
X219130000Y-124567621D02*
X212670000Y-124567621D01*
X219170000Y-124527621D02*
G75*
G03*
X219170000Y-124527621I-3270000J0D01*
G01*
%TO.C,J3*%
X248127929Y-143130000D02*
X248525000Y-143130000D01*
X248525000Y-129480000D02*
X248525000Y-144840000D01*
X245815000Y-130810000D02*
X245815000Y-129540000D01*
X248127929Y-143890000D02*
X248525000Y-143890000D01*
X248127929Y-135510000D02*
X248525000Y-135510000D01*
X248195000Y-130430000D02*
X248525000Y-130430000D01*
X245815000Y-129540000D02*
X247085000Y-129540000D01*
X248525000Y-134620000D02*
X251185000Y-134620000D01*
X248525000Y-137160000D02*
X251185000Y-137160000D01*
X248525000Y-132080000D02*
X251185000Y-132080000D01*
X248127929Y-140590000D02*
X248525000Y-140590000D01*
X248127929Y-133730000D02*
X248525000Y-133730000D01*
X248525000Y-144840000D02*
X251185000Y-144840000D01*
X251185000Y-144840000D02*
X251185000Y-129480000D01*
X248127929Y-132970000D02*
X248525000Y-132970000D01*
X248195000Y-131190000D02*
X248525000Y-131190000D01*
X248127929Y-136270000D02*
X248525000Y-136270000D01*
X248127929Y-138810000D02*
X248525000Y-138810000D01*
X248525000Y-139700000D02*
X251185000Y-139700000D01*
X248127929Y-141350000D02*
X248525000Y-141350000D01*
X248127929Y-138050000D02*
X248525000Y-138050000D01*
X251185000Y-129480000D02*
X248525000Y-129480000D01*
X248525000Y-142240000D02*
X251185000Y-142240000D01*
%TO.C,C8*%
X187401000Y-116832000D02*
X187401000Y-118340000D01*
X188561000Y-118578000D02*
X188561000Y-120182000D01*
X187881000Y-117288000D02*
X187881000Y-121472000D01*
X187921000Y-117336000D02*
X187921000Y-121424000D01*
X186241000Y-120420000D02*
X186241000Y-122501000D01*
X188481000Y-118321000D02*
X188481000Y-120439000D01*
X186601000Y-120420000D02*
X186601000Y-122382000D01*
X188201000Y-117730000D02*
X188201000Y-121030000D01*
X185840000Y-120420000D02*
X185840000Y-122581000D01*
X185720000Y-120420000D02*
X185720000Y-122595000D01*
X187681000Y-117075000D02*
X187681000Y-118340000D01*
X188001000Y-117436000D02*
X188001000Y-121324000D01*
X187121000Y-116638000D02*
X187121000Y-118340000D01*
X187201000Y-116690000D02*
X187201000Y-118340000D01*
X188241000Y-117799000D02*
X188241000Y-120961000D01*
X182214759Y-117226000D02*
X182214759Y-117856000D01*
X188321000Y-117948000D02*
X188321000Y-120812000D01*
X186921000Y-120420000D02*
X186921000Y-122236000D01*
X187001000Y-116568000D02*
X187001000Y-118340000D01*
X186761000Y-116446000D02*
X186761000Y-118340000D01*
X187081000Y-116614000D02*
X187081000Y-118340000D01*
X187201000Y-120420000D02*
X187201000Y-122070000D01*
X187481000Y-116896000D02*
X187481000Y-118340000D01*
X187961000Y-117385000D02*
X187961000Y-121375000D01*
X185680000Y-120420000D02*
X185680000Y-122598000D01*
X187601000Y-120420000D02*
X187601000Y-121760000D01*
X187361000Y-120420000D02*
X187361000Y-121958000D01*
X187481000Y-120420000D02*
X187481000Y-121864000D01*
X186040000Y-120420000D02*
X186040000Y-122547000D01*
X188361000Y-118030000D02*
X188361000Y-120730000D01*
X187161000Y-116664000D02*
X187161000Y-118340000D01*
X185560000Y-116153000D02*
X185560000Y-122607000D01*
X185640000Y-120420000D02*
X185640000Y-122602000D01*
X188121000Y-117604000D02*
X188121000Y-121156000D01*
X186961000Y-120420000D02*
X186961000Y-122214000D01*
X186521000Y-120420000D02*
X186521000Y-122413000D01*
X187681000Y-120420000D02*
X187681000Y-121685000D01*
X187761000Y-117156000D02*
X187761000Y-121604000D01*
X186481000Y-120420000D02*
X186481000Y-122427000D01*
X188281000Y-117871000D02*
X188281000Y-120889000D01*
X188081000Y-117546000D02*
X188081000Y-121214000D01*
X187001000Y-120420000D02*
X187001000Y-122192000D01*
X186080000Y-120420000D02*
X186080000Y-122539000D01*
X185480000Y-116150000D02*
X185480000Y-122610000D01*
X186961000Y-116546000D02*
X186961000Y-118340000D01*
X186321000Y-120420000D02*
X186321000Y-122478000D01*
X186841000Y-120420000D02*
X186841000Y-122276000D01*
X186521000Y-116347000D02*
X186521000Y-118340000D01*
X185800000Y-120420000D02*
X185800000Y-122586000D01*
X186801000Y-120420000D02*
X186801000Y-122296000D01*
X188641000Y-118978000D02*
X188641000Y-119782000D01*
X187041000Y-120420000D02*
X187041000Y-122170000D01*
X186321000Y-116282000D02*
X186321000Y-118340000D01*
X186721000Y-120420000D02*
X186721000Y-122332000D01*
X187601000Y-117000000D02*
X187601000Y-118340000D01*
X185680000Y-116162000D02*
X185680000Y-118340000D01*
X188161000Y-117666000D02*
X188161000Y-121094000D01*
X187321000Y-116773000D02*
X187321000Y-118340000D01*
X186121000Y-120420000D02*
X186121000Y-122530000D01*
X186361000Y-120420000D02*
X186361000Y-122466000D01*
X187041000Y-116590000D02*
X187041000Y-118340000D01*
X186921000Y-116524000D02*
X186921000Y-118340000D01*
X187281000Y-116744000D02*
X187281000Y-118340000D01*
X185960000Y-116198000D02*
X185960000Y-118340000D01*
X187321000Y-120420000D02*
X187321000Y-121987000D01*
X186281000Y-120420000D02*
X186281000Y-122490000D01*
X187241000Y-116716000D02*
X187241000Y-118340000D01*
X185760000Y-116169000D02*
X185760000Y-118340000D01*
X186000000Y-120420000D02*
X186000000Y-122555000D01*
X187641000Y-117037000D02*
X187641000Y-118340000D01*
X187721000Y-117115000D02*
X187721000Y-121645000D01*
X186161000Y-120420000D02*
X186161000Y-122521000D01*
X186641000Y-120420000D02*
X186641000Y-122366000D01*
X186881000Y-120420000D02*
X186881000Y-122256000D01*
X186841000Y-116484000D02*
X186841000Y-118340000D01*
X185520000Y-116152000D02*
X185520000Y-122608000D01*
X186441000Y-120420000D02*
X186441000Y-122441000D01*
X187561000Y-120420000D02*
X187561000Y-121796000D01*
X187641000Y-120420000D02*
X187641000Y-121723000D01*
X181899759Y-117541000D02*
X182529759Y-117541000D01*
X186121000Y-116230000D02*
X186121000Y-118340000D01*
X185440000Y-116150000D02*
X185440000Y-122610000D01*
X187521000Y-120420000D02*
X187521000Y-121830000D01*
X187521000Y-116930000D02*
X187521000Y-118340000D01*
X187841000Y-117243000D02*
X187841000Y-121517000D01*
X186681000Y-120420000D02*
X186681000Y-122350000D01*
X188401000Y-118118000D02*
X188401000Y-120642000D01*
X186040000Y-116213000D02*
X186040000Y-118340000D01*
X185840000Y-116179000D02*
X185840000Y-118340000D01*
X187561000Y-116964000D02*
X187561000Y-118340000D01*
X187441000Y-116864000D02*
X187441000Y-118340000D01*
X186281000Y-116270000D02*
X186281000Y-118340000D01*
X186881000Y-116504000D02*
X186881000Y-118340000D01*
X185720000Y-116165000D02*
X185720000Y-118340000D01*
X186641000Y-116394000D02*
X186641000Y-118340000D01*
X186161000Y-116239000D02*
X186161000Y-118340000D01*
X187081000Y-120420000D02*
X187081000Y-122146000D01*
X185880000Y-120420000D02*
X185880000Y-122575000D01*
X186561000Y-116362000D02*
X186561000Y-118340000D01*
X188041000Y-117490000D02*
X188041000Y-121270000D01*
X187401000Y-120420000D02*
X187401000Y-121928000D01*
X185400000Y-116150000D02*
X185400000Y-122610000D01*
X185600000Y-116156000D02*
X185600000Y-122604000D01*
X185920000Y-120420000D02*
X185920000Y-122569000D01*
X187121000Y-120420000D02*
X187121000Y-122122000D01*
X186441000Y-116319000D02*
X186441000Y-118340000D01*
X185640000Y-116158000D02*
X185640000Y-118340000D01*
X186401000Y-120420000D02*
X186401000Y-122454000D01*
X186201000Y-120420000D02*
X186201000Y-122511000D01*
X186201000Y-116249000D02*
X186201000Y-118340000D01*
X188521000Y-118440000D02*
X188521000Y-120320000D01*
X186721000Y-116428000D02*
X186721000Y-118340000D01*
X186000000Y-116205000D02*
X186000000Y-118340000D01*
X187441000Y-120420000D02*
X187441000Y-121896000D01*
X185760000Y-120420000D02*
X185760000Y-122591000D01*
X185800000Y-116174000D02*
X185800000Y-118340000D01*
X187161000Y-120420000D02*
X187161000Y-122096000D01*
X186801000Y-116464000D02*
X186801000Y-118340000D01*
X185920000Y-116191000D02*
X185920000Y-118340000D01*
X186681000Y-116410000D02*
X186681000Y-118340000D01*
X188441000Y-118215000D02*
X188441000Y-120545000D01*
X187241000Y-120420000D02*
X187241000Y-122044000D01*
X186080000Y-116221000D02*
X186080000Y-118340000D01*
X186561000Y-120420000D02*
X186561000Y-122398000D01*
X186241000Y-116259000D02*
X186241000Y-118340000D01*
X185880000Y-116185000D02*
X185880000Y-118340000D01*
X187281000Y-120420000D02*
X187281000Y-122016000D01*
X186481000Y-116333000D02*
X186481000Y-118340000D01*
X188601000Y-118747000D02*
X188601000Y-120013000D01*
X187801000Y-117198000D02*
X187801000Y-121562000D01*
X185960000Y-120420000D02*
X185960000Y-122562000D01*
X186401000Y-116306000D02*
X186401000Y-118340000D01*
X186761000Y-120420000D02*
X186761000Y-122314000D01*
X187361000Y-116802000D02*
X187361000Y-118340000D01*
X186601000Y-116378000D02*
X186601000Y-118340000D01*
X186361000Y-116294000D02*
X186361000Y-118340000D01*
X188670000Y-119380000D02*
G75*
G03*
X188670000Y-119380000I-3270000J0D01*
G01*
%TO.C,C1*%
X211835000Y-114904000D02*
X211835000Y-117070000D01*
X211595000Y-114883000D02*
X211595000Y-121337000D01*
X212316000Y-115000000D02*
X212316000Y-117070000D01*
X212075000Y-119150000D02*
X212075000Y-121277000D01*
X213396000Y-115532000D02*
X213396000Y-117070000D01*
X213356000Y-119150000D02*
X213356000Y-120717000D01*
X213436000Y-115562000D02*
X213436000Y-117070000D01*
X212916000Y-119150000D02*
X212916000Y-120986000D01*
X212236000Y-114979000D02*
X212236000Y-117070000D01*
X211555000Y-114882000D02*
X211555000Y-121338000D01*
X212516000Y-119150000D02*
X212516000Y-121157000D01*
X212196000Y-114969000D02*
X212196000Y-117070000D01*
X214116000Y-116276000D02*
X214116000Y-119944000D01*
X213116000Y-119150000D02*
X213116000Y-120876000D01*
X213356000Y-115503000D02*
X213356000Y-117070000D01*
X214556000Y-117170000D02*
X214556000Y-119050000D01*
X213036000Y-119150000D02*
X213036000Y-120922000D01*
X212316000Y-119150000D02*
X212316000Y-121220000D01*
X214516000Y-117051000D02*
X214516000Y-119169000D01*
X214316000Y-116601000D02*
X214316000Y-119619000D01*
X214036000Y-116166000D02*
X214036000Y-120054000D01*
X213676000Y-115767000D02*
X213676000Y-117070000D01*
X212396000Y-119150000D02*
X212396000Y-121196000D01*
X211635000Y-114886000D02*
X211635000Y-121334000D01*
X214276000Y-116529000D02*
X214276000Y-119691000D01*
X212996000Y-115276000D02*
X212996000Y-117070000D01*
X214676000Y-117708000D02*
X214676000Y-118512000D01*
X213316000Y-119150000D02*
X213316000Y-120746000D01*
X211875000Y-119150000D02*
X211875000Y-121311000D01*
X212075000Y-114943000D02*
X212075000Y-117070000D01*
X211955000Y-119150000D02*
X211955000Y-121299000D01*
X213916000Y-116018000D02*
X213916000Y-120202000D01*
X207934759Y-116271000D02*
X208564759Y-116271000D01*
X212115000Y-119150000D02*
X212115000Y-121269000D01*
X213436000Y-119150000D02*
X213436000Y-120658000D01*
X213796000Y-115886000D02*
X213796000Y-120334000D01*
X212516000Y-115063000D02*
X212516000Y-117070000D01*
X213876000Y-115973000D02*
X213876000Y-120247000D01*
X212115000Y-114951000D02*
X212115000Y-117070000D01*
X212156000Y-119150000D02*
X212156000Y-121260000D01*
X213316000Y-115474000D02*
X213316000Y-117070000D01*
X212476000Y-115049000D02*
X212476000Y-117070000D01*
X214396000Y-116760000D02*
X214396000Y-119460000D01*
X212996000Y-119150000D02*
X212996000Y-120944000D01*
X212756000Y-115158000D02*
X212756000Y-117070000D01*
X213636000Y-119150000D02*
X213636000Y-120490000D01*
X213556000Y-119150000D02*
X213556000Y-120560000D01*
X212796000Y-119150000D02*
X212796000Y-121044000D01*
X212596000Y-115092000D02*
X212596000Y-117070000D01*
X211435000Y-114880000D02*
X211435000Y-121340000D01*
X213676000Y-119150000D02*
X213676000Y-120453000D01*
X212956000Y-115254000D02*
X212956000Y-117070000D01*
X212236000Y-119150000D02*
X212236000Y-121241000D01*
X211995000Y-119150000D02*
X211995000Y-121292000D01*
X213276000Y-119150000D02*
X213276000Y-120774000D01*
X211875000Y-114909000D02*
X211875000Y-117070000D01*
X212836000Y-119150000D02*
X212836000Y-121026000D01*
X213716000Y-119150000D02*
X213716000Y-120415000D01*
X213156000Y-115368000D02*
X213156000Y-117070000D01*
X213076000Y-119150000D02*
X213076000Y-120900000D01*
X212035000Y-119150000D02*
X212035000Y-121285000D01*
X211955000Y-114921000D02*
X211955000Y-117070000D01*
X212916000Y-115234000D02*
X212916000Y-117070000D01*
X211995000Y-114928000D02*
X211995000Y-117070000D01*
X213756000Y-115845000D02*
X213756000Y-120375000D01*
X214076000Y-116220000D02*
X214076000Y-120000000D01*
X211475000Y-114880000D02*
X211475000Y-121340000D01*
X213516000Y-119150000D02*
X213516000Y-120594000D01*
X212676000Y-115124000D02*
X212676000Y-117070000D01*
X212676000Y-119150000D02*
X212676000Y-121096000D01*
X212876000Y-115214000D02*
X212876000Y-117070000D01*
X213476000Y-115594000D02*
X213476000Y-117070000D01*
X214156000Y-116334000D02*
X214156000Y-119886000D01*
X212196000Y-119150000D02*
X212196000Y-121251000D01*
X214476000Y-116945000D02*
X214476000Y-119275000D01*
X214356000Y-116678000D02*
X214356000Y-119542000D01*
X212796000Y-115176000D02*
X212796000Y-117070000D01*
X213236000Y-115420000D02*
X213236000Y-117070000D01*
X213036000Y-115298000D02*
X213036000Y-117070000D01*
X212396000Y-115024000D02*
X212396000Y-117070000D01*
X212276000Y-114989000D02*
X212276000Y-117070000D01*
X212836000Y-115194000D02*
X212836000Y-117070000D01*
X212716000Y-119150000D02*
X212716000Y-121080000D01*
X214596000Y-117308000D02*
X214596000Y-118912000D01*
X212636000Y-115108000D02*
X212636000Y-117070000D01*
X213156000Y-119150000D02*
X213156000Y-120852000D01*
X213116000Y-115344000D02*
X213116000Y-117070000D01*
X212636000Y-119150000D02*
X212636000Y-121112000D01*
X213516000Y-115626000D02*
X213516000Y-117070000D01*
X211715000Y-114892000D02*
X211715000Y-117070000D01*
X211795000Y-114899000D02*
X211795000Y-117070000D01*
X212276000Y-119150000D02*
X212276000Y-121231000D01*
X211675000Y-114888000D02*
X211675000Y-117070000D01*
X212876000Y-119150000D02*
X212876000Y-121006000D01*
X212476000Y-119150000D02*
X212476000Y-121171000D01*
X212356000Y-115012000D02*
X212356000Y-117070000D01*
X213076000Y-115320000D02*
X213076000Y-117070000D01*
X214436000Y-116848000D02*
X214436000Y-119372000D01*
X213956000Y-116066000D02*
X213956000Y-120154000D01*
X213196000Y-119150000D02*
X213196000Y-120826000D01*
X211675000Y-119150000D02*
X211675000Y-121332000D01*
X212436000Y-119150000D02*
X212436000Y-121184000D01*
X212596000Y-119150000D02*
X212596000Y-121128000D01*
X211715000Y-119150000D02*
X211715000Y-121328000D01*
X213556000Y-115660000D02*
X213556000Y-117070000D01*
X212356000Y-119150000D02*
X212356000Y-121208000D01*
X213396000Y-119150000D02*
X213396000Y-120688000D01*
X213596000Y-115694000D02*
X213596000Y-117070000D01*
X212716000Y-115140000D02*
X212716000Y-117070000D01*
X212956000Y-119150000D02*
X212956000Y-120966000D01*
X212156000Y-114960000D02*
X212156000Y-117070000D01*
X213476000Y-119150000D02*
X213476000Y-120626000D01*
X213276000Y-115446000D02*
X213276000Y-117070000D01*
X212035000Y-114935000D02*
X212035000Y-117070000D01*
X212556000Y-115077000D02*
X212556000Y-117070000D01*
X211755000Y-119150000D02*
X211755000Y-121325000D01*
X213716000Y-115805000D02*
X213716000Y-117070000D01*
X214636000Y-117477000D02*
X214636000Y-118743000D01*
X212556000Y-119150000D02*
X212556000Y-121143000D01*
X211755000Y-114895000D02*
X211755000Y-117070000D01*
X213836000Y-115928000D02*
X213836000Y-120292000D01*
X211795000Y-119150000D02*
X211795000Y-121321000D01*
X213996000Y-116115000D02*
X213996000Y-120105000D01*
X213596000Y-119150000D02*
X213596000Y-120526000D01*
X213636000Y-115730000D02*
X213636000Y-117070000D01*
X213236000Y-119150000D02*
X213236000Y-120800000D01*
X214236000Y-116460000D02*
X214236000Y-119760000D01*
X213196000Y-115394000D02*
X213196000Y-117070000D01*
X212436000Y-115036000D02*
X212436000Y-117070000D01*
X214196000Y-116396000D02*
X214196000Y-119824000D01*
X211915000Y-114915000D02*
X211915000Y-117070000D01*
X211835000Y-119150000D02*
X211835000Y-121316000D01*
X212756000Y-119150000D02*
X212756000Y-121062000D01*
X211915000Y-119150000D02*
X211915000Y-121305000D01*
X208249759Y-115956000D02*
X208249759Y-116586000D01*
X211515000Y-114880000D02*
X211515000Y-121340000D01*
X214705000Y-118110000D02*
G75*
G03*
X214705000Y-118110000I-3270000J0D01*
G01*
%TO.C,J1*%
X248692929Y-122300000D02*
X249090000Y-122300000D01*
X248692929Y-116460000D02*
X249090000Y-116460000D01*
X249090000Y-115570000D02*
X251750000Y-115570000D01*
X246380000Y-110490000D02*
X247650000Y-110490000D01*
X248692929Y-119000000D02*
X249090000Y-119000000D01*
X248760000Y-111380000D02*
X249090000Y-111380000D01*
X249090000Y-120650000D02*
X251750000Y-120650000D01*
X246380000Y-111760000D02*
X246380000Y-110490000D01*
X249090000Y-125790000D02*
X251750000Y-125790000D01*
X251750000Y-125790000D02*
X251750000Y-110430000D01*
X248692929Y-113920000D02*
X249090000Y-113920000D01*
X248692929Y-119760000D02*
X249090000Y-119760000D01*
X251750000Y-110430000D02*
X249090000Y-110430000D01*
X249090000Y-123190000D02*
X251750000Y-123190000D01*
X248760000Y-112140000D02*
X249090000Y-112140000D01*
X249090000Y-113030000D02*
X251750000Y-113030000D01*
X249090000Y-118110000D02*
X251750000Y-118110000D01*
X248692929Y-121540000D02*
X249090000Y-121540000D01*
X248692929Y-117220000D02*
X249090000Y-117220000D01*
X248692929Y-124840000D02*
X249090000Y-124840000D01*
X248692929Y-124080000D02*
X249090000Y-124080000D01*
X249090000Y-110430000D02*
X249090000Y-125790000D01*
X248692929Y-114680000D02*
X249090000Y-114680000D01*
%TO.C,C5*%
X174220000Y-130200000D02*
X172101000Y-130200000D01*
X178278000Y-130681000D02*
X176300000Y-130681000D01*
X174220000Y-131081000D02*
X172426000Y-131081000D01*
X178094000Y-131081000D02*
X176300000Y-131081000D01*
X178455000Y-130000000D02*
X176300000Y-130000000D01*
X177640000Y-131721000D02*
X176300000Y-131721000D01*
X178246000Y-130761000D02*
X176300000Y-130761000D01*
X178194000Y-130881000D02*
X176300000Y-130881000D01*
X177255000Y-132081000D02*
X173265000Y-132081000D01*
X178072000Y-131121000D02*
X176300000Y-131121000D01*
X178487000Y-129680000D02*
X172033000Y-129680000D01*
X177744000Y-131601000D02*
X176300000Y-131601000D01*
X174220000Y-129960000D02*
X172059000Y-129960000D01*
X174220000Y-130561000D02*
X172199000Y-130561000D01*
X178026000Y-131201000D02*
X176300000Y-131201000D01*
X178410000Y-130241000D02*
X176300000Y-130241000D01*
X174220000Y-130641000D02*
X172227000Y-130641000D01*
X177838000Y-131481000D02*
X176300000Y-131481000D01*
X174220000Y-129920000D02*
X172054000Y-129920000D01*
X174220000Y-129880000D02*
X172049000Y-129880000D01*
X178381000Y-130361000D02*
X176300000Y-130361000D01*
X178391000Y-130321000D02*
X176300000Y-130321000D01*
X177304000Y-132041000D02*
X173216000Y-132041000D01*
X178307000Y-130601000D02*
X176300000Y-130601000D01*
X174220000Y-131561000D02*
X172744000Y-131561000D01*
X174220000Y-130441000D02*
X172162000Y-130441000D01*
X174220000Y-130521000D02*
X172186000Y-130521000D01*
X178321000Y-130561000D02*
X176300000Y-130561000D01*
X178471000Y-129880000D02*
X176300000Y-129880000D01*
X178116000Y-131041000D02*
X176300000Y-131041000D01*
X178262000Y-130721000D02*
X176300000Y-130721000D01*
X178490000Y-129560000D02*
X172030000Y-129560000D01*
X177867000Y-131441000D02*
X176300000Y-131441000D01*
X177924000Y-131361000D02*
X176300000Y-131361000D01*
X178334000Y-130521000D02*
X176300000Y-130521000D01*
X174220000Y-130601000D02*
X172213000Y-130601000D01*
X178419000Y-130200000D02*
X176300000Y-130200000D01*
X174220000Y-130961000D02*
X172364000Y-130961000D01*
X177776000Y-131561000D02*
X176300000Y-131561000D01*
X177099000Y-126019759D02*
X177099000Y-126649759D01*
X175893000Y-132721000D02*
X174627000Y-132721000D01*
X178461000Y-129960000D02*
X176300000Y-129960000D01*
X176610000Y-132481000D02*
X173910000Y-132481000D01*
X178482000Y-129760000D02*
X176300000Y-129760000D01*
X177150000Y-132161000D02*
X173370000Y-132161000D01*
X178346000Y-130481000D02*
X176300000Y-130481000D01*
X178136000Y-131001000D02*
X176300000Y-131001000D01*
X174220000Y-131001000D02*
X172384000Y-131001000D01*
X176769000Y-132401000D02*
X173751000Y-132401000D01*
X178475000Y-129840000D02*
X176300000Y-129840000D01*
X178401000Y-130281000D02*
X176300000Y-130281000D01*
X177442000Y-131921000D02*
X173078000Y-131921000D01*
X177204000Y-132121000D02*
X173316000Y-132121000D01*
X174220000Y-130481000D02*
X172174000Y-130481000D01*
X177950000Y-131321000D02*
X176300000Y-131321000D01*
X174220000Y-131681000D02*
X172844000Y-131681000D01*
X174220000Y-130881000D02*
X172326000Y-130881000D01*
X174220000Y-130801000D02*
X172290000Y-130801000D01*
X174220000Y-131361000D02*
X172596000Y-131361000D01*
X178490000Y-129600000D02*
X172030000Y-129600000D01*
X174220000Y-130361000D02*
X172139000Y-130361000D01*
X174220000Y-130401000D02*
X172150000Y-130401000D01*
X174220000Y-130000000D02*
X172065000Y-130000000D01*
X176692000Y-132441000D02*
X173828000Y-132441000D01*
X178370000Y-130401000D02*
X176300000Y-130401000D01*
X174220000Y-130761000D02*
X172274000Y-130761000D01*
X174220000Y-129800000D02*
X172042000Y-129800000D01*
X178435000Y-130120000D02*
X176300000Y-130120000D01*
X174220000Y-130281000D02*
X172119000Y-130281000D01*
X176425000Y-132561000D02*
X174095000Y-132561000D01*
X176319000Y-132601000D02*
X174201000Y-132601000D01*
X176841000Y-132361000D02*
X173679000Y-132361000D01*
X177976000Y-131281000D02*
X176300000Y-131281000D01*
X174220000Y-130681000D02*
X172242000Y-130681000D01*
X174220000Y-129840000D02*
X172045000Y-129840000D01*
X174220000Y-130160000D02*
X172093000Y-130160000D01*
X174220000Y-130321000D02*
X172129000Y-130321000D01*
X178050000Y-131161000D02*
X176300000Y-131161000D01*
X174220000Y-130841000D02*
X172308000Y-130841000D01*
X178490000Y-129520000D02*
X172030000Y-129520000D01*
X177414000Y-126334759D02*
X176784000Y-126334759D01*
X174220000Y-131441000D02*
X172653000Y-131441000D01*
X174220000Y-129760000D02*
X172038000Y-129760000D01*
X174220000Y-131041000D02*
X172404000Y-131041000D01*
X178358000Y-130441000D02*
X176300000Y-130441000D01*
X174220000Y-131601000D02*
X172776000Y-131601000D01*
X177710000Y-131641000D02*
X176300000Y-131641000D01*
X174220000Y-131401000D02*
X172624000Y-131401000D01*
X174220000Y-130921000D02*
X172344000Y-130921000D01*
X177565000Y-131801000D02*
X176300000Y-131801000D01*
X178293000Y-130641000D02*
X176300000Y-130641000D01*
X178466000Y-129920000D02*
X176300000Y-129920000D01*
X174220000Y-131201000D02*
X172494000Y-131201000D01*
X177094000Y-132201000D02*
X173426000Y-132201000D01*
X174220000Y-131721000D02*
X172880000Y-131721000D01*
X174220000Y-131321000D02*
X172570000Y-131321000D01*
X174220000Y-131241000D02*
X172518000Y-131241000D01*
X174220000Y-130120000D02*
X172085000Y-130120000D01*
X176200000Y-132641000D02*
X174320000Y-132641000D01*
X178449000Y-130040000D02*
X176300000Y-130040000D01*
X174220000Y-130721000D02*
X172258000Y-130721000D01*
X178484000Y-129720000D02*
X172036000Y-129720000D01*
X174220000Y-131801000D02*
X172955000Y-131801000D01*
X174220000Y-131481000D02*
X172682000Y-131481000D01*
X177484000Y-131881000D02*
X173036000Y-131881000D01*
X177808000Y-131521000D02*
X176300000Y-131521000D01*
X178176000Y-130921000D02*
X176300000Y-130921000D01*
X177896000Y-131401000D02*
X176300000Y-131401000D01*
X175662000Y-132761000D02*
X174858000Y-132761000D01*
X176910000Y-132321000D02*
X173610000Y-132321000D01*
X174220000Y-131121000D02*
X172448000Y-131121000D01*
X178212000Y-130841000D02*
X176300000Y-130841000D01*
X174220000Y-130241000D02*
X172110000Y-130241000D01*
X177397000Y-131961000D02*
X173123000Y-131961000D01*
X174220000Y-131281000D02*
X172544000Y-131281000D01*
X176522000Y-132521000D02*
X173998000Y-132521000D01*
X178478000Y-129800000D02*
X176300000Y-129800000D01*
X178442000Y-130080000D02*
X176300000Y-130080000D01*
X174220000Y-131521000D02*
X172712000Y-131521000D01*
X174220000Y-131761000D02*
X172917000Y-131761000D01*
X174220000Y-131161000D02*
X172470000Y-131161000D01*
X177603000Y-131761000D02*
X176300000Y-131761000D01*
X177525000Y-131841000D02*
X172995000Y-131841000D01*
X174220000Y-130080000D02*
X172078000Y-130080000D01*
X176062000Y-132681000D02*
X174458000Y-132681000D01*
X177036000Y-132241000D02*
X173484000Y-132241000D01*
X177352000Y-132001000D02*
X173168000Y-132001000D01*
X178427000Y-130160000D02*
X176300000Y-130160000D01*
X174220000Y-130040000D02*
X172071000Y-130040000D01*
X178156000Y-130961000D02*
X176300000Y-130961000D01*
X174220000Y-131641000D02*
X172810000Y-131641000D01*
X178002000Y-131241000D02*
X176300000Y-131241000D01*
X177676000Y-131681000D02*
X176300000Y-131681000D01*
X178230000Y-130801000D02*
X176300000Y-130801000D01*
X178488000Y-129640000D02*
X172032000Y-129640000D01*
X176974000Y-132281000D02*
X173546000Y-132281000D01*
X178530000Y-129520000D02*
G75*
G03*
X178530000Y-129520000I-3270000J0D01*
G01*
%TO.C,C9*%
X192940000Y-125195000D02*
X198180000Y-125195000D01*
X198180000Y-122455000D02*
X198180000Y-125195000D01*
X192940000Y-122455000D02*
X192940000Y-125195000D01*
X192940000Y-122455000D02*
X198180000Y-122455000D01*
%TO.C,C3*%
X224807621Y-126970000D02*
X224807621Y-133430000D01*
X226008621Y-127214000D02*
X226008621Y-129160000D01*
X227168621Y-128018000D02*
X227168621Y-132382000D01*
X226928621Y-131240000D02*
X226928621Y-132616000D01*
X225928621Y-131240000D02*
X225928621Y-133218000D01*
X227488621Y-128424000D02*
X227488621Y-131976000D01*
X225407621Y-127033000D02*
X225407621Y-129160000D01*
X225447621Y-127041000D02*
X225447621Y-129160000D01*
X225648621Y-131240000D02*
X225648621Y-133310000D01*
X225568621Y-127069000D02*
X225568621Y-129160000D01*
X225007621Y-126978000D02*
X225007621Y-129160000D01*
X225127621Y-126989000D02*
X225127621Y-129160000D01*
X225728621Y-131240000D02*
X225728621Y-133286000D01*
X226648621Y-127564000D02*
X226648621Y-129160000D01*
X226328621Y-127366000D02*
X226328621Y-129160000D01*
X226968621Y-131240000D02*
X226968621Y-132580000D01*
X225968621Y-127198000D02*
X225968621Y-129160000D01*
X225888621Y-127167000D02*
X225888621Y-129160000D01*
X225728621Y-127114000D02*
X225728621Y-129160000D01*
X227008621Y-131240000D02*
X227008621Y-132543000D01*
X225568621Y-131240000D02*
X225568621Y-133331000D01*
X225528621Y-127059000D02*
X225528621Y-129160000D01*
X226088621Y-131240000D02*
X226088621Y-133152000D01*
X227288621Y-128156000D02*
X227288621Y-132244000D01*
X226728621Y-131240000D02*
X226728621Y-132778000D01*
X226728621Y-127622000D02*
X226728621Y-129160000D01*
X225488621Y-127050000D02*
X225488621Y-129160000D01*
X226048621Y-131240000D02*
X226048621Y-133170000D01*
X226848621Y-127716000D02*
X226848621Y-129160000D01*
X221267380Y-128361000D02*
X221897380Y-128361000D01*
X225087621Y-126985000D02*
X225087621Y-129160000D01*
X226528621Y-127484000D02*
X226528621Y-129160000D01*
X226968621Y-127820000D02*
X226968621Y-129160000D01*
X226448621Y-127434000D02*
X226448621Y-129160000D01*
X226488621Y-127458000D02*
X226488621Y-129160000D01*
X226168621Y-127284000D02*
X226168621Y-129160000D01*
X225888621Y-131240000D02*
X225888621Y-133233000D01*
X224767621Y-126970000D02*
X224767621Y-133430000D01*
X227568621Y-128550000D02*
X227568621Y-131850000D01*
X226288621Y-131240000D02*
X226288621Y-133056000D01*
X226808621Y-131240000D02*
X226808621Y-132716000D01*
X226768621Y-127652000D02*
X226768621Y-129160000D01*
X227968621Y-129567000D02*
X227968621Y-130833000D01*
X225768621Y-127126000D02*
X225768621Y-129160000D01*
X225367621Y-127025000D02*
X225367621Y-129160000D01*
X226088621Y-127248000D02*
X226088621Y-129160000D01*
X227768621Y-128938000D02*
X227768621Y-131462000D01*
X224887621Y-126972000D02*
X224887621Y-133428000D01*
X226568621Y-131240000D02*
X226568621Y-132890000D01*
X225127621Y-131240000D02*
X225127621Y-133411000D01*
X227648621Y-128691000D02*
X227648621Y-131709000D01*
X226248621Y-127324000D02*
X226248621Y-129160000D01*
X227008621Y-127857000D02*
X227008621Y-129160000D01*
X225207621Y-131240000D02*
X225207621Y-133401000D01*
X226328621Y-131240000D02*
X226328621Y-133034000D01*
X225407621Y-131240000D02*
X225407621Y-133367000D01*
X225968621Y-131240000D02*
X225968621Y-133202000D01*
X226808621Y-127684000D02*
X226808621Y-129160000D01*
X225087621Y-131240000D02*
X225087621Y-133415000D01*
X225688621Y-131240000D02*
X225688621Y-133298000D01*
X227248621Y-128108000D02*
X227248621Y-132292000D01*
X225047621Y-131240000D02*
X225047621Y-133418000D01*
X226168621Y-131240000D02*
X226168621Y-133116000D01*
X225047621Y-126982000D02*
X225047621Y-129160000D01*
X225528621Y-131240000D02*
X225528621Y-133341000D01*
X226008621Y-131240000D02*
X226008621Y-133186000D01*
X225327621Y-127018000D02*
X225327621Y-129160000D01*
X227088621Y-127935000D02*
X227088621Y-132465000D01*
X226128621Y-127266000D02*
X226128621Y-129160000D01*
X227688621Y-128768000D02*
X227688621Y-131632000D01*
X227408621Y-128310000D02*
X227408621Y-132090000D01*
X226648621Y-131240000D02*
X226648621Y-132836000D01*
X226128621Y-131240000D02*
X226128621Y-133134000D01*
X227448621Y-128366000D02*
X227448621Y-132034000D01*
X227528621Y-128486000D02*
X227528621Y-131914000D01*
X227928621Y-129398000D02*
X227928621Y-131002000D01*
X226568621Y-127510000D02*
X226568621Y-129160000D01*
X226848621Y-131240000D02*
X226848621Y-132684000D01*
X225247621Y-131240000D02*
X225247621Y-133395000D01*
X225287621Y-127011000D02*
X225287621Y-129160000D01*
X226528621Y-131240000D02*
X226528621Y-132916000D01*
X226688621Y-131240000D02*
X226688621Y-132807000D01*
X225688621Y-127102000D02*
X225688621Y-129160000D01*
X228008621Y-129798000D02*
X228008621Y-130602000D01*
X225447621Y-131240000D02*
X225447621Y-133359000D01*
X225928621Y-127182000D02*
X225928621Y-129160000D01*
X224967621Y-126976000D02*
X224967621Y-133424000D01*
X227848621Y-129141000D02*
X227848621Y-131259000D01*
X226208621Y-127304000D02*
X226208621Y-129160000D01*
X226408621Y-131240000D02*
X226408621Y-132990000D01*
X221582380Y-128046000D02*
X221582380Y-128676000D01*
X224927621Y-126973000D02*
X224927621Y-133427000D01*
X226488621Y-131240000D02*
X226488621Y-132942000D01*
X227808621Y-129035000D02*
X227808621Y-131365000D01*
X226408621Y-127410000D02*
X226408621Y-129160000D01*
X226888621Y-131240000D02*
X226888621Y-132650000D01*
X226288621Y-127344000D02*
X226288621Y-129160000D01*
X225848621Y-127153000D02*
X225848621Y-129160000D01*
X225808621Y-127139000D02*
X225808621Y-129160000D01*
X225207621Y-126999000D02*
X225207621Y-129160000D01*
X227328621Y-128205000D02*
X227328621Y-132195000D01*
X226688621Y-127593000D02*
X226688621Y-129160000D01*
X225007621Y-131240000D02*
X225007621Y-133422000D01*
X225608621Y-131240000D02*
X225608621Y-133321000D01*
X225848621Y-131240000D02*
X225848621Y-133247000D01*
X225808621Y-131240000D02*
X225808621Y-133261000D01*
X227048621Y-131240000D02*
X227048621Y-132505000D01*
X227368621Y-128256000D02*
X227368621Y-132144000D01*
X227208621Y-128063000D02*
X227208621Y-132337000D01*
X227608621Y-128619000D02*
X227608621Y-131781000D01*
X226368621Y-127388000D02*
X226368621Y-129160000D01*
X225608621Y-127079000D02*
X225608621Y-129160000D01*
X227128621Y-127976000D02*
X227128621Y-132424000D01*
X225167621Y-131240000D02*
X225167621Y-133406000D01*
X226608621Y-131240000D02*
X226608621Y-132864000D01*
X225648621Y-127090000D02*
X225648621Y-129160000D01*
X226248621Y-131240000D02*
X226248621Y-133076000D01*
X226448621Y-131240000D02*
X226448621Y-132966000D01*
X225367621Y-131240000D02*
X225367621Y-133375000D01*
X227728621Y-128850000D02*
X227728621Y-131550000D01*
X226608621Y-127536000D02*
X226608621Y-129160000D01*
X226208621Y-131240000D02*
X226208621Y-133096000D01*
X226768621Y-131240000D02*
X226768621Y-132748000D01*
X225287621Y-131240000D02*
X225287621Y-133389000D01*
X225327621Y-131240000D02*
X225327621Y-133382000D01*
X226368621Y-131240000D02*
X226368621Y-133012000D01*
X226048621Y-127230000D02*
X226048621Y-129160000D01*
X226928621Y-127784000D02*
X226928621Y-129160000D01*
X225167621Y-126994000D02*
X225167621Y-129160000D01*
X225247621Y-127005000D02*
X225247621Y-129160000D01*
X224847621Y-126970000D02*
X224847621Y-133430000D01*
X227048621Y-127895000D02*
X227048621Y-129160000D01*
X225768621Y-131240000D02*
X225768621Y-133274000D01*
X227888621Y-129260000D02*
X227888621Y-131140000D01*
X225488621Y-131240000D02*
X225488621Y-133350000D01*
X226888621Y-127750000D02*
X226888621Y-129160000D01*
X228037621Y-130200000D02*
G75*
G03*
X228037621Y-130200000I-3270000J0D01*
G01*
%TD*%
D14*
%TO.C,*%
X158927800Y-120243600D03*
%TD*%
D15*
%TO.C,*%
X155702000Y-151612600D03*
D16*
X158242000Y-151612600D03*
X160782000Y-151612600D03*
X163322000Y-151612600D03*
X165862000Y-151612600D03*
X168402000Y-151612600D03*
X170942000Y-151612600D03*
X173482000Y-151612600D03*
X176022000Y-151612600D03*
X178562000Y-151612600D03*
X181102000Y-151612600D03*
X183642000Y-151612600D03*
X186182000Y-151612600D03*
X188722000Y-151612600D03*
X191262000Y-151612600D03*
X193802000Y-151612600D03*
X196342000Y-151612600D03*
X198882000Y-151612600D03*
X201422000Y-151612600D03*
X203962000Y-151612600D03*
X206502000Y-151612600D03*
X209042000Y-151612600D03*
X211582000Y-151612600D03*
X214122000Y-151612600D03*
X216662000Y-151612600D03*
X219202000Y-151612600D03*
X221742000Y-151612600D03*
X224282000Y-151612600D03*
X226822000Y-151612600D03*
X229362000Y-151612600D03*
X231902000Y-151612600D03*
X234442000Y-151612600D03*
X236982000Y-151612600D03*
X239522000Y-151612600D03*
X242062000Y-151612600D03*
X244602000Y-151612600D03*
X247142000Y-151612600D03*
X249682000Y-151612600D03*
X252222000Y-151612600D03*
%TD*%
D14*
%TO.C,*%
X158950000Y-145550000D03*
%TD*%
%TO.C,*%
X208950000Y-126550000D03*
%TD*%
%LPC*%
%TO.C,*%
X158927800Y-120243600D03*
%TD*%
D15*
%TO.C,*%
X155702000Y-151612600D03*
D16*
X158242000Y-151612600D03*
X160782000Y-151612600D03*
X163322000Y-151612600D03*
X165862000Y-151612600D03*
X168402000Y-151612600D03*
X170942000Y-151612600D03*
X173482000Y-151612600D03*
X176022000Y-151612600D03*
X178562000Y-151612600D03*
X181102000Y-151612600D03*
X183642000Y-151612600D03*
X186182000Y-151612600D03*
X188722000Y-151612600D03*
X191262000Y-151612600D03*
X193802000Y-151612600D03*
X196342000Y-151612600D03*
X198882000Y-151612600D03*
X201422000Y-151612600D03*
X203962000Y-151612600D03*
X206502000Y-151612600D03*
X209042000Y-151612600D03*
X211582000Y-151612600D03*
X214122000Y-151612600D03*
X216662000Y-151612600D03*
X219202000Y-151612600D03*
X221742000Y-151612600D03*
X224282000Y-151612600D03*
X226822000Y-151612600D03*
X229362000Y-151612600D03*
X231902000Y-151612600D03*
X234442000Y-151612600D03*
X236982000Y-151612600D03*
X239522000Y-151612600D03*
X242062000Y-151612600D03*
X244602000Y-151612600D03*
X247142000Y-151612600D03*
X249682000Y-151612600D03*
X252222000Y-151612600D03*
%TD*%
D17*
%TO.C,J2*%
X224795000Y-108515000D03*
D18*
X227335000Y-108515000D03*
X229875000Y-108515000D03*
X232415000Y-108515000D03*
X234955000Y-108515000D03*
%TD*%
D19*
%TO.C,C4*%
X225425000Y-118110000D03*
D20*
X222925000Y-118110000D03*
%TD*%
%TO.C,C10*%
X240030000Y-110490000D03*
X242530000Y-110490000D03*
%TD*%
D19*
%TO.C,C7*%
X170815000Y-137795000D03*
D20*
X168315000Y-137795000D03*
%TD*%
D19*
%TO.C,C6*%
X178435000Y-135890000D03*
D20*
X178435000Y-138390000D03*
%TD*%
D14*
%TO.C,*%
X158950000Y-145550000D03*
%TD*%
D21*
%TO.C,J5*%
X215240000Y-110190000D03*
X190240000Y-110190000D03*
D19*
X208280000Y-110490000D03*
D20*
X205510000Y-110490000D03*
X202740000Y-110490000D03*
X199970000Y-110490000D03*
X197200000Y-110490000D03*
X206895000Y-107650000D03*
X204125000Y-107650000D03*
X201355000Y-107650000D03*
X198585000Y-107650000D03*
%TD*%
D19*
%TO.C,U1*%
X231150000Y-115560000D03*
D22*
X231150000Y-118100000D03*
X231150000Y-120640000D03*
X231150000Y-123180000D03*
X231150000Y-125720000D03*
X231150000Y-128260000D03*
X231150000Y-130800000D03*
X231150000Y-133340000D03*
X238770000Y-133340000D03*
X238770000Y-130800000D03*
X238770000Y-128260000D03*
X238770000Y-125720000D03*
X238770000Y-123180000D03*
X238770000Y-120640000D03*
X238770000Y-118100000D03*
X238770000Y-115560000D03*
%TD*%
D17*
%TO.C,J4*%
X171455000Y-108515000D03*
D18*
X173995000Y-108515000D03*
X176535000Y-108515000D03*
X179075000Y-108515000D03*
X181615000Y-108515000D03*
%TD*%
D19*
%TO.C,U2*%
X186690000Y-128270000D03*
D22*
X186690000Y-130810000D03*
X186690000Y-133350000D03*
X186690000Y-135890000D03*
X186690000Y-138430000D03*
X186690000Y-140970000D03*
X186690000Y-143510000D03*
X186690000Y-146050000D03*
X194310000Y-146050000D03*
X194310000Y-143510000D03*
X194310000Y-140970000D03*
X194310000Y-138430000D03*
X194310000Y-135890000D03*
X194310000Y-133350000D03*
X194310000Y-130810000D03*
X194310000Y-128270000D03*
%TD*%
D19*
%TO.C,C2*%
X215900000Y-123277621D03*
D20*
X215900000Y-125777621D03*
%TD*%
D17*
%TO.C,J3*%
X247085000Y-130810000D03*
D18*
X247085000Y-133350000D03*
X247085000Y-135890000D03*
X247085000Y-138430000D03*
X247085000Y-140970000D03*
X247085000Y-143510000D03*
%TD*%
D19*
%TO.C,C8*%
X184150000Y-119380000D03*
D20*
X186650000Y-119380000D03*
%TD*%
D19*
%TO.C,C1*%
X210185000Y-118110000D03*
D20*
X212685000Y-118110000D03*
%TD*%
D17*
%TO.C,J1*%
X247650000Y-111760000D03*
D18*
X247650000Y-114300000D03*
X247650000Y-116840000D03*
X247650000Y-119380000D03*
X247650000Y-121920000D03*
X247650000Y-124460000D03*
%TD*%
D14*
%TO.C,*%
X208950000Y-126550000D03*
%TD*%
D19*
%TO.C,C5*%
X175260000Y-128270000D03*
D20*
X175260000Y-130770000D03*
%TD*%
%TO.C,C9*%
X194310000Y-123825000D03*
X196810000Y-123825000D03*
%TD*%
D19*
%TO.C,C3*%
X223517621Y-130200000D03*
D20*
X226017621Y-130200000D03*
%TD*%
M02*
