%TF.GenerationSoftware,KiCad,Pcbnew,6.0.9-1.fc35*%
%TF.CreationDate,2023-07-09T18:22:09+01:00*%
%TF.ProjectId,max232_conv,6d617832-3332-45f6-936f-6e762e6b6963,0.1a*%
%TF.SameCoordinates,Original*%
%TF.FileFunction,Drillmap*%
%TF.FilePolarity,Positive*%
%FSLAX45Y45*%
G04 Gerber Fmt 4.5, Leading zero omitted, Abs format (unit mm)*
G04 Created by KiCad (PCBNEW 6.0.9-1.fc35) date 2023-07-09 18:22:09*
%MOMM*%
%LPD*%
G01*
G04 APERTURE LIST*
%ADD10C,0.150000*%
%ADD11C,0.200000*%
%ADD12C,0.320000*%
G04 APERTURE END LIST*
D10*
X24781840Y-10350500D02*
X24821840Y-10352000D01*
X15389860Y-11851640D02*
X15389860Y-15336520D01*
X25300000Y-15336520D02*
X25340000Y-15336616D01*
X25339840Y-10861980D02*
X25340000Y-15330000D01*
X15389860Y-15336520D02*
X25300000Y-15336520D01*
X25339840Y-10870000D02*
G75*
G03*
X24821840Y-10352000I-518000J0D01*
G01*
X16891000Y-10350500D02*
X15389860Y-11851640D01*
X24781840Y-10350500D02*
X16891000Y-10350500D01*
D11*
D12*
X15732780Y-11864360D02*
X16052780Y-12184360D01*
X16052780Y-11864360D02*
X15732780Y-12184360D01*
D11*
X15639979Y-15654592D02*
X15639979Y-15454592D01*
X15687598Y-15454592D01*
X15716169Y-15464116D01*
X15735217Y-15483164D01*
X15744741Y-15502211D01*
X15754265Y-15540307D01*
X15754265Y-15568878D01*
X15744741Y-15606973D01*
X15735217Y-15626021D01*
X15716169Y-15645068D01*
X15687598Y-15654592D01*
X15639979Y-15654592D01*
X15839979Y-15654592D02*
X15839979Y-15521259D01*
X15839979Y-15559354D02*
X15849503Y-15540307D01*
X15859027Y-15530783D01*
X15878074Y-15521259D01*
X15897122Y-15521259D01*
X15963788Y-15654592D02*
X15963788Y-15521259D01*
X15963788Y-15454592D02*
X15954265Y-15464116D01*
X15963788Y-15473640D01*
X15973312Y-15464116D01*
X15963788Y-15454592D01*
X15963788Y-15473640D01*
X16087598Y-15654592D02*
X16068550Y-15645068D01*
X16059027Y-15626021D01*
X16059027Y-15454592D01*
X16192360Y-15654592D02*
X16173312Y-15645068D01*
X16163788Y-15626021D01*
X16163788Y-15454592D01*
X16420931Y-15654592D02*
X16420931Y-15454592D01*
X16487598Y-15597449D01*
X16554265Y-15454592D01*
X16554265Y-15654592D01*
X16735217Y-15654592D02*
X16735217Y-15549830D01*
X16725693Y-15530783D01*
X16706646Y-15521259D01*
X16668550Y-15521259D01*
X16649503Y-15530783D01*
X16735217Y-15645068D02*
X16716169Y-15654592D01*
X16668550Y-15654592D01*
X16649503Y-15645068D01*
X16639979Y-15626021D01*
X16639979Y-15606973D01*
X16649503Y-15587926D01*
X16668550Y-15578402D01*
X16716169Y-15578402D01*
X16735217Y-15568878D01*
X16830455Y-15521259D02*
X16830455Y-15721259D01*
X16830455Y-15530783D02*
X16849503Y-15521259D01*
X16887598Y-15521259D01*
X16906646Y-15530783D01*
X16916170Y-15540307D01*
X16925693Y-15559354D01*
X16925693Y-15616497D01*
X16916170Y-15635545D01*
X16906646Y-15645068D01*
X16887598Y-15654592D01*
X16849503Y-15654592D01*
X16830455Y-15645068D01*
X17011408Y-15635545D02*
X17020931Y-15645068D01*
X17011408Y-15654592D01*
X17001884Y-15645068D01*
X17011408Y-15635545D01*
X17011408Y-15654592D01*
X17011408Y-15530783D02*
X17020931Y-15540307D01*
X17011408Y-15549830D01*
X17001884Y-15540307D01*
X17011408Y-15530783D01*
X17011408Y-15549830D01*
X15182360Y-15884116D02*
X15382360Y-16084116D01*
X15382360Y-15884116D02*
X15182360Y-16084116D01*
X15620931Y-15874592D02*
X15744741Y-15874592D01*
X15678074Y-15950783D01*
X15706646Y-15950783D01*
X15725693Y-15960307D01*
X15735217Y-15969830D01*
X15744741Y-15988878D01*
X15744741Y-16036497D01*
X15735217Y-16055545D01*
X15725693Y-16065068D01*
X15706646Y-16074592D01*
X15649503Y-16074592D01*
X15630455Y-16065068D01*
X15620931Y-16055545D01*
X15830455Y-16055545D02*
X15839979Y-16065068D01*
X15830455Y-16074592D01*
X15820931Y-16065068D01*
X15830455Y-16055545D01*
X15830455Y-16074592D01*
X15916169Y-15893640D02*
X15925693Y-15884116D01*
X15944741Y-15874592D01*
X15992360Y-15874592D01*
X16011408Y-15884116D01*
X16020931Y-15893640D01*
X16030455Y-15912688D01*
X16030455Y-15931735D01*
X16020931Y-15960307D01*
X15906646Y-16074592D01*
X16030455Y-16074592D01*
X16154265Y-15874592D02*
X16173312Y-15874592D01*
X16192360Y-15884116D01*
X16201884Y-15893640D01*
X16211408Y-15912688D01*
X16220931Y-15950783D01*
X16220931Y-15998402D01*
X16211408Y-16036497D01*
X16201884Y-16055545D01*
X16192360Y-16065068D01*
X16173312Y-16074592D01*
X16154265Y-16074592D01*
X16135217Y-16065068D01*
X16125693Y-16055545D01*
X16116169Y-16036497D01*
X16106646Y-15998402D01*
X16106646Y-15950783D01*
X16116169Y-15912688D01*
X16125693Y-15893640D01*
X16135217Y-15884116D01*
X16154265Y-15874592D01*
X16344741Y-15874592D02*
X16363788Y-15874592D01*
X16382836Y-15884116D01*
X16392360Y-15893640D01*
X16401884Y-15912688D01*
X16411408Y-15950783D01*
X16411408Y-15998402D01*
X16401884Y-16036497D01*
X16392360Y-16055545D01*
X16382836Y-16065068D01*
X16363788Y-16074592D01*
X16344741Y-16074592D01*
X16325693Y-16065068D01*
X16316169Y-16055545D01*
X16306646Y-16036497D01*
X16297122Y-15998402D01*
X16297122Y-15950783D01*
X16306646Y-15912688D01*
X16316169Y-15893640D01*
X16325693Y-15884116D01*
X16344741Y-15874592D01*
X16497122Y-16074592D02*
X16497122Y-15941259D01*
X16497122Y-15960307D02*
X16506646Y-15950783D01*
X16525693Y-15941259D01*
X16554265Y-15941259D01*
X16573312Y-15950783D01*
X16582836Y-15969830D01*
X16582836Y-16074592D01*
X16582836Y-15969830D02*
X16592360Y-15950783D01*
X16611408Y-15941259D01*
X16639979Y-15941259D01*
X16659027Y-15950783D01*
X16668550Y-15969830D01*
X16668550Y-16074592D01*
X16763788Y-16074592D02*
X16763788Y-15941259D01*
X16763788Y-15960307D02*
X16773312Y-15950783D01*
X16792360Y-15941259D01*
X16820931Y-15941259D01*
X16839979Y-15950783D01*
X16849503Y-15969830D01*
X16849503Y-16074592D01*
X16849503Y-15969830D02*
X16859027Y-15950783D01*
X16878074Y-15941259D01*
X16906646Y-15941259D01*
X16925693Y-15950783D01*
X16935217Y-15969830D01*
X16935217Y-16074592D01*
X17325693Y-15865068D02*
X17154265Y-16122211D01*
X17582836Y-15874592D02*
X17601884Y-15874592D01*
X17620931Y-15884116D01*
X17630455Y-15893640D01*
X17639979Y-15912688D01*
X17649503Y-15950783D01*
X17649503Y-15998402D01*
X17639979Y-16036497D01*
X17630455Y-16055545D01*
X17620931Y-16065068D01*
X17601884Y-16074592D01*
X17582836Y-16074592D01*
X17563789Y-16065068D01*
X17554265Y-16055545D01*
X17544741Y-16036497D01*
X17535217Y-15998402D01*
X17535217Y-15950783D01*
X17544741Y-15912688D01*
X17554265Y-15893640D01*
X17563789Y-15884116D01*
X17582836Y-15874592D01*
X17735217Y-16055545D02*
X17744741Y-16065068D01*
X17735217Y-16074592D01*
X17725693Y-16065068D01*
X17735217Y-16055545D01*
X17735217Y-16074592D01*
X17935217Y-16074592D02*
X17820931Y-16074592D01*
X17878074Y-16074592D02*
X17878074Y-15874592D01*
X17859027Y-15903164D01*
X17839979Y-15922211D01*
X17820931Y-15931735D01*
X18011408Y-15893640D02*
X18020931Y-15884116D01*
X18039979Y-15874592D01*
X18087598Y-15874592D01*
X18106646Y-15884116D01*
X18116170Y-15893640D01*
X18125693Y-15912688D01*
X18125693Y-15931735D01*
X18116170Y-15960307D01*
X18001884Y-16074592D01*
X18125693Y-16074592D01*
X18297122Y-15874592D02*
X18259027Y-15874592D01*
X18239979Y-15884116D01*
X18230455Y-15893640D01*
X18211408Y-15922211D01*
X18201884Y-15960307D01*
X18201884Y-16036497D01*
X18211408Y-16055545D01*
X18220931Y-16065068D01*
X18239979Y-16074592D01*
X18278074Y-16074592D01*
X18297122Y-16065068D01*
X18306646Y-16055545D01*
X18316170Y-16036497D01*
X18316170Y-15988878D01*
X18306646Y-15969830D01*
X18297122Y-15960307D01*
X18278074Y-15950783D01*
X18239979Y-15950783D01*
X18220931Y-15960307D01*
X18211408Y-15969830D01*
X18201884Y-15988878D01*
X18439979Y-15874592D02*
X18459027Y-15874592D01*
X18478074Y-15884116D01*
X18487598Y-15893640D01*
X18497122Y-15912688D01*
X18506646Y-15950783D01*
X18506646Y-15998402D01*
X18497122Y-16036497D01*
X18487598Y-16055545D01*
X18478074Y-16065068D01*
X18459027Y-16074592D01*
X18439979Y-16074592D01*
X18420931Y-16065068D01*
X18411408Y-16055545D01*
X18401884Y-16036497D01*
X18392360Y-15998402D01*
X18392360Y-15950783D01*
X18401884Y-15912688D01*
X18411408Y-15893640D01*
X18420931Y-15884116D01*
X18439979Y-15874592D01*
X18582836Y-15874592D02*
X18582836Y-15912688D01*
X18659027Y-15874592D02*
X18659027Y-15912688D01*
X18954265Y-16150783D02*
X18944741Y-16141259D01*
X18925693Y-16112688D01*
X18916170Y-16093640D01*
X18906646Y-16065068D01*
X18897122Y-16017449D01*
X18897122Y-15979354D01*
X18906646Y-15931735D01*
X18916170Y-15903164D01*
X18925693Y-15884116D01*
X18944741Y-15855545D01*
X18954265Y-15846021D01*
X19135217Y-16074592D02*
X19020931Y-16074592D01*
X19078074Y-16074592D02*
X19078074Y-15874592D01*
X19059027Y-15903164D01*
X19039979Y-15922211D01*
X19020931Y-15931735D01*
X19373312Y-16074592D02*
X19373312Y-15874592D01*
X19459027Y-16074592D02*
X19459027Y-15969830D01*
X19449503Y-15950783D01*
X19430455Y-15941259D01*
X19401884Y-15941259D01*
X19382836Y-15950783D01*
X19373312Y-15960307D01*
X19582836Y-16074592D02*
X19563789Y-16065068D01*
X19554265Y-16055545D01*
X19544741Y-16036497D01*
X19544741Y-15979354D01*
X19554265Y-15960307D01*
X19563789Y-15950783D01*
X19582836Y-15941259D01*
X19611408Y-15941259D01*
X19630455Y-15950783D01*
X19639979Y-15960307D01*
X19649503Y-15979354D01*
X19649503Y-16036497D01*
X19639979Y-16055545D01*
X19630455Y-16065068D01*
X19611408Y-16074592D01*
X19582836Y-16074592D01*
X19763789Y-16074592D02*
X19744741Y-16065068D01*
X19735217Y-16046021D01*
X19735217Y-15874592D01*
X19916170Y-16065068D02*
X19897122Y-16074592D01*
X19859027Y-16074592D01*
X19839979Y-16065068D01*
X19830455Y-16046021D01*
X19830455Y-15969830D01*
X19839979Y-15950783D01*
X19859027Y-15941259D01*
X19897122Y-15941259D01*
X19916170Y-15950783D01*
X19925693Y-15969830D01*
X19925693Y-15988878D01*
X19830455Y-16007926D01*
X19992360Y-16150783D02*
X20001884Y-16141259D01*
X20020931Y-16112688D01*
X20030455Y-16093640D01*
X20039979Y-16065068D01*
X20049503Y-16017449D01*
X20049503Y-15979354D01*
X20039979Y-15931735D01*
X20030455Y-15903164D01*
X20020931Y-15884116D01*
X20001884Y-15855545D01*
X19992360Y-15846021D01*
X20354265Y-16150783D02*
X20344741Y-16141259D01*
X20325693Y-16112688D01*
X20316170Y-16093640D01*
X20306646Y-16065068D01*
X20297122Y-16017449D01*
X20297122Y-15979354D01*
X20306646Y-15931735D01*
X20316170Y-15903164D01*
X20325693Y-15884116D01*
X20344741Y-15855545D01*
X20354265Y-15846021D01*
X20430455Y-15941259D02*
X20430455Y-16074592D01*
X20430455Y-15960307D02*
X20439979Y-15950783D01*
X20459027Y-15941259D01*
X20487598Y-15941259D01*
X20506646Y-15950783D01*
X20516170Y-15969830D01*
X20516170Y-16074592D01*
X20639979Y-16074592D02*
X20620931Y-16065068D01*
X20611408Y-16055545D01*
X20601884Y-16036497D01*
X20601884Y-15979354D01*
X20611408Y-15960307D01*
X20620931Y-15950783D01*
X20639979Y-15941259D01*
X20668550Y-15941259D01*
X20687598Y-15950783D01*
X20697122Y-15960307D01*
X20706646Y-15979354D01*
X20706646Y-16036497D01*
X20697122Y-16055545D01*
X20687598Y-16065068D01*
X20668550Y-16074592D01*
X20639979Y-16074592D01*
X20763789Y-15941259D02*
X20839979Y-15941259D01*
X20792360Y-15874592D02*
X20792360Y-16046021D01*
X20801884Y-16065068D01*
X20820931Y-16074592D01*
X20839979Y-16074592D01*
X21059027Y-15941259D02*
X21059027Y-16141259D01*
X21059027Y-15950783D02*
X21078074Y-15941259D01*
X21116170Y-15941259D01*
X21135217Y-15950783D01*
X21144741Y-15960307D01*
X21154265Y-15979354D01*
X21154265Y-16036497D01*
X21144741Y-16055545D01*
X21135217Y-16065068D01*
X21116170Y-16074592D01*
X21078074Y-16074592D01*
X21059027Y-16065068D01*
X21268550Y-16074592D02*
X21249503Y-16065068D01*
X21239979Y-16046021D01*
X21239979Y-15874592D01*
X21430455Y-16074592D02*
X21430455Y-15969830D01*
X21420931Y-15950783D01*
X21401884Y-15941259D01*
X21363789Y-15941259D01*
X21344741Y-15950783D01*
X21430455Y-16065068D02*
X21411408Y-16074592D01*
X21363789Y-16074592D01*
X21344741Y-16065068D01*
X21335217Y-16046021D01*
X21335217Y-16026973D01*
X21344741Y-16007926D01*
X21363789Y-15998402D01*
X21411408Y-15998402D01*
X21430455Y-15988878D01*
X21497122Y-15941259D02*
X21573312Y-15941259D01*
X21525693Y-15874592D02*
X21525693Y-16046021D01*
X21535217Y-16065068D01*
X21554265Y-16074592D01*
X21573312Y-16074592D01*
X21716170Y-16065068D02*
X21697122Y-16074592D01*
X21659027Y-16074592D01*
X21639979Y-16065068D01*
X21630455Y-16046021D01*
X21630455Y-15969830D01*
X21639979Y-15950783D01*
X21659027Y-15941259D01*
X21697122Y-15941259D01*
X21716170Y-15950783D01*
X21725693Y-15969830D01*
X21725693Y-15988878D01*
X21630455Y-16007926D01*
X21897122Y-16074592D02*
X21897122Y-15874592D01*
X21897122Y-16065068D02*
X21878074Y-16074592D01*
X21839979Y-16074592D01*
X21820931Y-16065068D01*
X21811408Y-16055545D01*
X21801884Y-16036497D01*
X21801884Y-15979354D01*
X21811408Y-15960307D01*
X21820931Y-15950783D01*
X21839979Y-15941259D01*
X21878074Y-15941259D01*
X21897122Y-15950783D01*
X21973312Y-16150783D02*
X21982836Y-16141259D01*
X22001884Y-16112688D01*
X22011408Y-16093640D01*
X22020931Y-16065068D01*
X22030455Y-16017449D01*
X22030455Y-15979354D01*
X22020931Y-15931735D01*
X22011408Y-15903164D01*
X22001884Y-15884116D01*
X21982836Y-15855545D01*
X21973312Y-15846021D01*
M02*
