%TF.GenerationSoftware,KiCad,Pcbnew,6.0.11-3.fc36*%
%TF.CreationDate,2023-07-24T20:28:09+01:00*%
%TF.ProjectId,max232_conv,6d617832-3332-45f6-936f-6e762e6b6963,0.1a*%
%TF.SameCoordinates,Original*%
%TF.FileFunction,Soldermask,Top*%
%TF.FilePolarity,Negative*%
%FSLAX46Y46*%
G04 Gerber Fmt 4.6, Leading zero omitted, Abs format (unit mm)*
G04 Created by KiCad (PCBNEW 6.0.11-3.fc36) date 2023-07-24 20:28:09*
%MOMM*%
%LPD*%
G01*
G04 APERTURE LIST*
%ADD10C,3.200000*%
%ADD11R,1.727200X2.032000*%
%ADD12O,1.727200X2.032000*%
%ADD13R,1.700000X1.700000*%
%ADD14O,1.700000X1.700000*%
%ADD15R,1.600000X1.600000*%
%ADD16C,1.600000*%
%ADD17C,4.000000*%
%ADD18O,1.600000X1.600000*%
G04 APERTURE END LIST*
D10*
%TO.C,*%
X158927800Y-120243600D03*
%TD*%
D11*
%TO.C,*%
X155702000Y-151612600D03*
D12*
X158242000Y-151612600D03*
X160782000Y-151612600D03*
X163322000Y-151612600D03*
X165862000Y-151612600D03*
X168402000Y-151612600D03*
X170942000Y-151612600D03*
X173482000Y-151612600D03*
X176022000Y-151612600D03*
X178562000Y-151612600D03*
X181102000Y-151612600D03*
X183642000Y-151612600D03*
X186182000Y-151612600D03*
X188722000Y-151612600D03*
X191262000Y-151612600D03*
X193802000Y-151612600D03*
X196342000Y-151612600D03*
X198882000Y-151612600D03*
X201422000Y-151612600D03*
X203962000Y-151612600D03*
X206502000Y-151612600D03*
X209042000Y-151612600D03*
X211582000Y-151612600D03*
X214122000Y-151612600D03*
X216662000Y-151612600D03*
X219202000Y-151612600D03*
X221742000Y-151612600D03*
X224282000Y-151612600D03*
X226822000Y-151612600D03*
X229362000Y-151612600D03*
X231902000Y-151612600D03*
X234442000Y-151612600D03*
X236982000Y-151612600D03*
X239522000Y-151612600D03*
X242062000Y-151612600D03*
X244602000Y-151612600D03*
X247142000Y-151612600D03*
X249682000Y-151612600D03*
X252222000Y-151612600D03*
%TD*%
D13*
%TO.C,J2*%
X224795000Y-108515000D03*
D14*
X227335000Y-108515000D03*
X229875000Y-108515000D03*
X232415000Y-108515000D03*
X234955000Y-108515000D03*
%TD*%
D15*
%TO.C,C4*%
X225425000Y-118110000D03*
D16*
X222925000Y-118110000D03*
%TD*%
%TO.C,C10*%
X240030000Y-110490000D03*
X242530000Y-110490000D03*
%TD*%
D15*
%TO.C,C7*%
X170815000Y-137795000D03*
D16*
X168315000Y-137795000D03*
%TD*%
D15*
%TO.C,C6*%
X178435000Y-135890000D03*
D16*
X178435000Y-138390000D03*
%TD*%
D10*
%TO.C,*%
X158950000Y-145550000D03*
%TD*%
D17*
%TO.C,J5*%
X215240000Y-110190000D03*
X190240000Y-110190000D03*
D15*
X208280000Y-110490000D03*
D16*
X205510000Y-110490000D03*
X202740000Y-110490000D03*
X199970000Y-110490000D03*
X197200000Y-110490000D03*
X206895000Y-107650000D03*
X204125000Y-107650000D03*
X201355000Y-107650000D03*
X198585000Y-107650000D03*
%TD*%
D15*
%TO.C,U1*%
X231150000Y-115560000D03*
D18*
X231150000Y-118100000D03*
X231150000Y-120640000D03*
X231150000Y-123180000D03*
X231150000Y-125720000D03*
X231150000Y-128260000D03*
X231150000Y-130800000D03*
X231150000Y-133340000D03*
X238770000Y-133340000D03*
X238770000Y-130800000D03*
X238770000Y-128260000D03*
X238770000Y-125720000D03*
X238770000Y-123180000D03*
X238770000Y-120640000D03*
X238770000Y-118100000D03*
X238770000Y-115560000D03*
%TD*%
D13*
%TO.C,J4*%
X171455000Y-108515000D03*
D14*
X173995000Y-108515000D03*
X176535000Y-108515000D03*
X179075000Y-108515000D03*
X181615000Y-108515000D03*
%TD*%
D15*
%TO.C,U2*%
X186690000Y-128270000D03*
D18*
X186690000Y-130810000D03*
X186690000Y-133350000D03*
X186690000Y-135890000D03*
X186690000Y-138430000D03*
X186690000Y-140970000D03*
X186690000Y-143510000D03*
X186690000Y-146050000D03*
X194310000Y-146050000D03*
X194310000Y-143510000D03*
X194310000Y-140970000D03*
X194310000Y-138430000D03*
X194310000Y-135890000D03*
X194310000Y-133350000D03*
X194310000Y-130810000D03*
X194310000Y-128270000D03*
%TD*%
D15*
%TO.C,C2*%
X215900000Y-123277621D03*
D16*
X215900000Y-125777621D03*
%TD*%
D13*
%TO.C,J3*%
X247085000Y-130810000D03*
D14*
X247085000Y-133350000D03*
X247085000Y-135890000D03*
X247085000Y-138430000D03*
X247085000Y-140970000D03*
X247085000Y-143510000D03*
%TD*%
D15*
%TO.C,C8*%
X184150000Y-119380000D03*
D16*
X186650000Y-119380000D03*
%TD*%
D15*
%TO.C,C1*%
X210185000Y-118110000D03*
D16*
X212685000Y-118110000D03*
%TD*%
D13*
%TO.C,J1*%
X247650000Y-111760000D03*
D14*
X247650000Y-114300000D03*
X247650000Y-116840000D03*
X247650000Y-119380000D03*
X247650000Y-121920000D03*
X247650000Y-124460000D03*
%TD*%
D10*
%TO.C,*%
X208950000Y-126550000D03*
%TD*%
D15*
%TO.C,C5*%
X175260000Y-128270000D03*
D16*
X175260000Y-130770000D03*
%TD*%
%TO.C,C9*%
X194310000Y-123825000D03*
X196810000Y-123825000D03*
%TD*%
D15*
%TO.C,C3*%
X223517621Y-130200000D03*
D16*
X226017621Y-130200000D03*
%TD*%
M02*
